<mxfile host="app.diagrams.net" modified="2024-04-19T12:04:34.273Z" agent="Mozilla/5.0 (Windows NT 10.0; Win64; x64) AppleWebKit/537.36 (KHTML, like Gecko) Chrome/123.0.0.0 Safari/537.36" etag="PFIjF_0k181sEx6mXx92" version="24.2.5" type="github">
  <diagram name="Page-1" id="b5b7bab2-c9e2-2cf4-8b2a-24fd1a2a6d21">
    <mxGraphModel dx="5050" dy="3133" grid="0" gridSize="10" guides="0" tooltips="0" connect="1" arrows="1" fold="1" page="0" pageScale="1" pageWidth="827" pageHeight="1169" background="#000000" math="0" shadow="0">
      <root>
        <mxCell id="0" />
        <mxCell id="1" parent="0" />
        <mxCell id="v7lTY6zvw72GwzH2N9rf-5" value="" style="rounded=0;whiteSpace=wrap;html=1;fillColor=#000000;strokeColor=default;gradientColor=none;strokeWidth=8;" vertex="1" parent="1">
          <mxGeometry x="-1415" y="-1019" width="1076" height="1941" as="geometry" />
        </mxCell>
        <mxCell id="TaVSvGBADPzD679VYjAK-72" value="" style="rounded=0;whiteSpace=wrap;html=1;fillColor=#000000;strokeColor=#FFFFFF;gradientColor=none;dashed=1;strokeWidth=2;" parent="1" vertex="1">
          <mxGeometry x="-1109" y="-938" width="759" height="255" as="geometry" />
        </mxCell>
        <mxCell id="TaVSvGBADPzD679VYjAK-73" value="" style="rounded=0;whiteSpace=wrap;html=1;fillColor=#000000;gradientColor=none;strokeColor=#FFFFFF;dashed=1;strokeWidth=2;" parent="1" vertex="1">
          <mxGeometry x="-1350" y="-938" width="250" height="274" as="geometry" />
        </mxCell>
        <mxCell id="TaVSvGBADPzD679VYjAK-135" value="" style="rounded=0;whiteSpace=wrap;html=1;fillColor=#000000;strokeColor=#FFFFFF;gradientColor=none;strokeWidth=2;dashed=1;" parent="1" vertex="1">
          <mxGeometry x="-1350" y="-698" width="1000" height="529" as="geometry" />
        </mxCell>
        <mxCell id="TaVSvGBADPzD679VYjAK-149" value="" style="rounded=0;whiteSpace=wrap;html=1;fillColor=#000000;strokeColor=#FFFFFF;gradientColor=none;fontColor=#FFFFFF;dashed=1;strokeWidth=2;" parent="1" vertex="1">
          <mxGeometry x="-1350" y="222" width="1000" height="312" as="geometry" />
        </mxCell>
        <mxCell id="TaVSvGBADPzD679VYjAK-199" value="" style="rounded=0;whiteSpace=wrap;html=1;fontSize=20;fillColor=#f5f5f5;strokeColor=none;align=left;gradientColor=#b3b3b3;opacity=10;fontColor=#FFFFFF;" parent="1" vertex="1">
          <mxGeometry x="-1320" y="258" width="950" height="132" as="geometry" />
        </mxCell>
        <mxCell id="TaVSvGBADPzD679VYjAK-147" value="" style="rounded=0;whiteSpace=wrap;html=1;fillColor=#000000;strokeColor=#FFFFFF;gradientColor=none;fontColor=#FFFFFF;dashed=1;strokeWidth=2;" parent="1" vertex="1">
          <mxGeometry x="-1350" y="526" width="1000" height="295" as="geometry" />
        </mxCell>
        <mxCell id="TaVSvGBADPzD679VYjAK-362" value="" style="rounded=0;whiteSpace=wrap;html=1;fontSize=20;fillColor=#f5f5f5;strokeColor=#666666;align=left;gradientColor=none;opacity=10;fontColor=#FFFFFF;" parent="1" vertex="1">
          <mxGeometry x="-760" y="548" width="220" height="80" as="geometry" />
        </mxCell>
        <mxCell id="TaVSvGBADPzD679VYjAK-351" value="" style="rounded=0;whiteSpace=wrap;html=1;fontSize=20;fillColor=#f5f5f5;strokeColor=none;align=left;gradientColor=#b3b3b3;opacity=10;fontColor=#FFFFFF;" parent="1" vertex="1">
          <mxGeometry x="-1040" y="548" width="226" height="80" as="geometry" />
        </mxCell>
        <mxCell id="TaVSvGBADPzD679VYjAK-361" value="" style="rounded=0;whiteSpace=wrap;html=1;fontSize=20;fillColor=#f5f5f5;strokeColor=none;align=left;gradientColor=#b3b3b3;opacity=10;fontColor=#FFFFFF;" parent="1" vertex="1">
          <mxGeometry x="-1320" y="548" width="230" height="80" as="geometry" />
        </mxCell>
        <mxCell id="TaVSvGBADPzD679VYjAK-146" value="" style="rounded=0;whiteSpace=wrap;html=1;fillColor=#000000;gradientColor=none;strokeColor=#FFFFFF;fontColor=#FFFFFF;dashed=1;strokeWidth=2;" parent="1" vertex="1">
          <mxGeometry x="-1350" y="73" width="1000" height="163" as="geometry" />
        </mxCell>
        <mxCell id="TaVSvGBADPzD679VYjAK-321" value="" style="rounded=0;whiteSpace=wrap;html=1;fontSize=20;fillColor=#f5f5f5;strokeColor=#666666;align=left;gradientColor=#b3b3b3;opacity=10;fontColor=#FFFFFF;" parent="1" vertex="1">
          <mxGeometry x="-1320" y="103" width="950" height="110" as="geometry" />
        </mxCell>
        <mxCell id="TaVSvGBADPzD679VYjAK-70" value="" style="rounded=0;whiteSpace=wrap;html=1;fillColor=#000000;strokeColor=#FFFFFF;gradientColor=none;strokeWidth=2;dashed=1;" parent="1" vertex="1">
          <mxGeometry x="-1350" y="-219" width="1000" height="180" as="geometry" />
        </mxCell>
        <mxCell id="TaVSvGBADPzD679VYjAK-17" value="&lt;font color=&quot;#ffffff&quot;&gt;shared link&lt;/font&gt;" style="rounded=1;whiteSpace=wrap;html=1;fontSize=20;fillColor=#000000;strokeColor=#FFFFFF;fontColor=#383838;strokeWidth=2;" parent="1" vertex="1">
          <mxGeometry x="-866" y="-685" width="150" height="31" as="geometry" />
        </mxCell>
        <mxCell id="TaVSvGBADPzD679VYjAK-51" value="" style="edgeStyle=orthogonalEdgeStyle;rounded=0;orthogonalLoop=1;jettySize=auto;html=1;strokeWidth=2;strokeColor=#FFFFFF;" parent="1" source="TaVSvGBADPzD679VYjAK-19" target="TaVSvGBADPzD679VYjAK-24" edge="1">
          <mxGeometry relative="1" as="geometry" />
        </mxCell>
        <mxCell id="TaVSvGBADPzD679VYjAK-19" value="&lt;font color=&quot;#ffffff&quot;&gt;filter - date&lt;/font&gt;" style="rounded=1;whiteSpace=wrap;html=1;fontSize=20;fillColor=#000000;strokeColor=#FFFFFF;fontColor=#383838;strokeWidth=2;" parent="1" vertex="1">
          <mxGeometry x="-861" y="-562" width="140" height="28" as="geometry" />
        </mxCell>
        <mxCell id="TaVSvGBADPzD679VYjAK-23" value="&lt;font color=&quot;#ffffff&quot;&gt;filter - status&lt;/font&gt;" style="rounded=1;whiteSpace=wrap;html=1;fontSize=20;fillColor=#000000;strokeColor=#FFFFFF;fontColor=#383838;strokeWidth=2;" parent="1" vertex="1">
          <mxGeometry x="-871" y="-519" width="160" height="28" as="geometry" />
        </mxCell>
        <mxCell id="TaVSvGBADPzD679VYjAK-24" value="&lt;font color=&quot;#ffffff&quot;&gt;order - sold&lt;/font&gt;" style="rounded=1;whiteSpace=wrap;html=1;fontSize=20;fillColor=#000000;strokeColor=#FFFFFF;fontColor=#383838;strokeWidth=2;" parent="1" vertex="1">
          <mxGeometry x="-871" y="-475" width="160" height="28" as="geometry" />
        </mxCell>
        <mxCell id="TaVSvGBADPzD679VYjAK-26" value="" style="endArrow=classic;html=1;rounded=0;entryX=0.5;entryY=0;entryDx=0;entryDy=0;strokeWidth=2;strokeColor=#FFFFFF;" parent="1" target="TaVSvGBADPzD679VYjAK-19" edge="1">
          <mxGeometry width="50" height="50" relative="1" as="geometry">
            <mxPoint x="-791" y="-584" as="sourcePoint" />
            <mxPoint x="-496" y="-612" as="targetPoint" />
          </mxGeometry>
        </mxCell>
        <mxCell id="TaVSvGBADPzD679VYjAK-27" value="" style="endArrow=classic;html=1;rounded=0;exitX=0.5;exitY=1;exitDx=0;exitDy=0;entryX=0.5;entryY=0;entryDx=0;entryDy=0;strokeWidth=2;strokeColor=#FFFFFF;" parent="1" source="TaVSvGBADPzD679VYjAK-23" target="TaVSvGBADPzD679VYjAK-24" edge="1">
          <mxGeometry width="50" height="50" relative="1" as="geometry">
            <mxPoint x="-596" y="-482" as="sourcePoint" />
            <mxPoint x="-576" y="-432" as="targetPoint" />
          </mxGeometry>
        </mxCell>
        <mxCell id="TaVSvGBADPzD679VYjAK-35" value="" style="endArrow=classic;html=1;rounded=0;exitX=1;exitY=0.5;exitDx=0;exitDy=0;entryX=0.5;entryY=0;entryDx=0;entryDy=0;strokeWidth=2;strokeColor=#FFFFFF;" parent="1" source="TaVSvGBADPzD679VYjAK-40" target="TaVSvGBADPzD679VYjAK-34" edge="1">
          <mxGeometry width="50" height="50" relative="1" as="geometry">
            <mxPoint x="-706" y="-466" as="sourcePoint" />
            <mxPoint x="-706" y="-436" as="targetPoint" />
            <Array as="points">
              <mxPoint x="-561" y="-381" />
            </Array>
          </mxGeometry>
        </mxCell>
        <mxCell id="TaVSvGBADPzD679VYjAK-40" value="&lt;b&gt;&lt;font color=&quot;#ffffff&quot;&gt;param&lt;/font&gt;&lt;/b&gt;" style="rhombus;whiteSpace=wrap;html=1;fontSize=20;fillColor=#000000;strokeColor=#FFFFFF;fontColor=#383838;strokeWidth=2;" parent="1" vertex="1">
          <mxGeometry x="-876" y="-406" width="170" height="50" as="geometry" />
        </mxCell>
        <mxCell id="TaVSvGBADPzD679VYjAK-41" value="" style="endArrow=classic;html=1;rounded=0;exitX=0.5;exitY=1;exitDx=0;exitDy=0;strokeWidth=2;strokeColor=#FFFFFF;" parent="1" target="TaVSvGBADPzD679VYjAK-40" edge="1">
          <mxGeometry width="50" height="50" relative="1" as="geometry">
            <mxPoint x="-791.1999999999998" y="-446" as="sourcePoint" />
            <mxPoint x="-791.1999999999998" y="-416" as="targetPoint" />
          </mxGeometry>
        </mxCell>
        <mxCell id="TaVSvGBADPzD679VYjAK-42" value="" style="endArrow=classic;html=1;rounded=0;exitX=0.5;exitY=1;exitDx=0;exitDy=0;entryX=0.5;entryY=0;entryDx=0;entryDy=0;strokeWidth=2;strokeColor=#FFFFFF;" parent="1" target="TaVSvGBADPzD679VYjAK-48" edge="1">
          <mxGeometry width="50" height="50" relative="1" as="geometry">
            <mxPoint x="-791.1199999999999" y="-356" as="sourcePoint" />
            <mxPoint x="-791" y="-276" as="targetPoint" />
          </mxGeometry>
        </mxCell>
        <mxCell id="TaVSvGBADPzD679VYjAK-43" value="" style="endArrow=none;html=1;rounded=0;strokeWidth=2;strokeColor=#FFFFFF;" parent="1" edge="1">
          <mxGeometry width="50" height="50" relative="1" as="geometry">
            <mxPoint x="-926" y="-337" as="sourcePoint" />
            <mxPoint x="-656" y="-337" as="targetPoint" />
          </mxGeometry>
        </mxCell>
        <mxCell id="TaVSvGBADPzD679VYjAK-45" value="" style="endArrow=classic;html=1;rounded=0;strokeWidth=2;strokeColor=#FFFFFF;" parent="1" edge="1">
          <mxGeometry width="50" height="50" relative="1" as="geometry">
            <mxPoint x="-926" y="-337" as="sourcePoint" />
            <mxPoint x="-926" y="-314" as="targetPoint" />
          </mxGeometry>
        </mxCell>
        <mxCell id="TaVSvGBADPzD679VYjAK-46" value="" style="endArrow=classic;html=1;rounded=0;strokeWidth=2;strokeColor=#FFFFFF;" parent="1" edge="1">
          <mxGeometry width="50" height="50" relative="1" as="geometry">
            <mxPoint x="-656" y="-337" as="sourcePoint" />
            <mxPoint x="-656" y="-314" as="targetPoint" />
          </mxGeometry>
        </mxCell>
        <mxCell id="TaVSvGBADPzD679VYjAK-52" value="" style="endArrow=classic;html=1;rounded=0;exitX=0.5;exitY=1;exitDx=0;exitDy=0;entryX=0.5;entryY=0;entryDx=0;entryDy=0;strokeWidth=2;strokeColor=#FFFFFF;" parent="1" edge="1">
          <mxGeometry width="50" height="50" relative="1" as="geometry">
            <mxPoint x="-791.29" y="-654" as="sourcePoint" />
            <mxPoint x="-791.29" y="-624" as="targetPoint" />
          </mxGeometry>
        </mxCell>
        <mxCell id="TaVSvGBADPzD679VYjAK-54" value="" style="endArrow=classic;html=1;rounded=0;strokeWidth=2;strokeColor=#FFFFFF;" parent="1" edge="1">
          <mxGeometry width="50" height="50" relative="1" as="geometry">
            <mxPoint x="-926.4200000000001" y="-301" as="sourcePoint" />
            <mxPoint x="-926.4200000000001" y="-251" as="targetPoint" />
          </mxGeometry>
        </mxCell>
        <mxCell id="TaVSvGBADPzD679VYjAK-55" value="" style="endArrow=classic;html=1;rounded=0;strokeWidth=2;strokeColor=#FFFFFF;" parent="1" edge="1">
          <mxGeometry width="50" height="50" relative="1" as="geometry">
            <mxPoint x="-791.4200000000001" y="-301" as="sourcePoint" />
            <mxPoint x="-791.4200000000001" y="-251" as="targetPoint" />
          </mxGeometry>
        </mxCell>
        <mxCell id="TaVSvGBADPzD679VYjAK-56" value="" style="endArrow=classic;html=1;rounded=0;strokeWidth=2;strokeColor=#FFFFFF;" parent="1" edge="1">
          <mxGeometry width="50" height="50" relative="1" as="geometry">
            <mxPoint x="-656.4200000000001" y="-300" as="sourcePoint" />
            <mxPoint x="-656.4200000000001" y="-250" as="targetPoint" />
          </mxGeometry>
        </mxCell>
        <mxCell id="TaVSvGBADPzD679VYjAK-57" value="" style="endArrow=classic;html=1;rounded=0;strokeColor=#FFFFFF;strokeWidth=2;" parent="1" edge="1">
          <mxGeometry width="50" height="50" relative="1" as="geometry">
            <mxPoint x="-561.4200000000001" y="-300" as="sourcePoint" />
            <mxPoint x="-561.4200000000001" y="-250" as="targetPoint" />
          </mxGeometry>
        </mxCell>
        <mxCell id="TaVSvGBADPzD679VYjAK-58" value="" style="endArrow=classic;html=1;rounded=0;entryX=0;entryY=0.5;entryDx=0;entryDy=0;horizontal=1;exitX=0;exitY=0.5;exitDx=0;exitDy=0;strokeColor=#FFFFFF;strokeWidth=2;" parent="1" source="TaVSvGBADPzD679VYjAK-53" target="TaVSvGBADPzD679VYjAK-40" edge="1">
          <mxGeometry width="50" height="50" relative="1" as="geometry">
            <mxPoint x="-996" y="-86" as="sourcePoint" />
            <mxPoint x="-996" y="-136" as="targetPoint" />
            <Array as="points">
              <mxPoint x="-996" y="-227" />
              <mxPoint x="-996" y="-381" />
            </Array>
          </mxGeometry>
        </mxCell>
        <mxCell id="TaVSvGBADPzD679VYjAK-60" value="" style="endArrow=classic;html=1;rounded=0;strokeWidth=2;strokeColor=#FFFFFF;" parent="1" edge="1">
          <mxGeometry width="50" height="50" relative="1" as="geometry">
            <mxPoint x="-846" y="-205" as="sourcePoint" />
            <mxPoint x="-846" y="-175" as="targetPoint" />
          </mxGeometry>
        </mxCell>
        <mxCell id="TaVSvGBADPzD679VYjAK-61" value="&lt;font color=&quot;#ffffff&quot;&gt;selected items&lt;/font&gt;" style="rounded=1;whiteSpace=wrap;html=1;fontSize=20;fillColor=#000000;strokeColor=#FFFFFF;fontColor=#383838;strokeWidth=2;" parent="1" vertex="1">
          <mxGeometry x="-926" y="-174" width="160" height="28" as="geometry" />
        </mxCell>
        <mxCell id="TaVSvGBADPzD679VYjAK-62" value="" style="endArrow=classic;html=1;rounded=0;exitX=0.5;exitY=1;exitDx=0;exitDy=0;entryX=0.5;entryY=0;entryDx=0;entryDy=0;strokeWidth=2;strokeColor=#FFFFFF;" parent="1" source="TaVSvGBADPzD679VYjAK-61" target="TaVSvGBADPzD679VYjAK-69" edge="1">
          <mxGeometry width="50" height="50" relative="1" as="geometry">
            <mxPoint x="-743.0799999999999" y="-124" as="sourcePoint" />
            <mxPoint x="-846" y="-124" as="targetPoint" />
          </mxGeometry>
        </mxCell>
        <mxCell id="TaVSvGBADPzD679VYjAK-63" value="" style="endArrow=classic;html=1;rounded=0;strokeWidth=2;strokeColor=#FFFFFF;" parent="1" edge="1">
          <mxGeometry width="50" height="50" relative="1" as="geometry">
            <mxPoint x="-642" y="-205" as="sourcePoint" />
            <mxPoint x="-642" y="-175" as="targetPoint" />
          </mxGeometry>
        </mxCell>
        <mxCell id="TaVSvGBADPzD679VYjAK-64" value="&lt;font color=&quot;#ffffff&quot;&gt;multi-view&lt;/font&gt;" style="rounded=1;whiteSpace=wrap;html=1;fontSize=20;fillColor=#000000;strokeColor=#FFFFFF;fontColor=#383838;strokeWidth=2;" parent="1" vertex="1">
          <mxGeometry x="-696" y="-174" width="110" height="28" as="geometry" />
        </mxCell>
        <mxCell id="TaVSvGBADPzD679VYjAK-69" value="&lt;font color=&quot;#ffffff&quot;&gt;send link&lt;/font&gt;" style="rounded=1;whiteSpace=wrap;html=1;fontSize=20;fillColor=#000000;strokeColor=#FFFFFF;fontColor=#383838;strokeWidth=2;" parent="1" vertex="1">
          <mxGeometry x="-891" y="-104" width="90" height="28" as="geometry" />
        </mxCell>
        <mxCell id="TaVSvGBADPzD679VYjAK-74" value="&lt;b&gt;&lt;font color=&quot;#ffffff&quot;&gt;Data server&lt;/font&gt;&lt;/b&gt;" style="rounded=1;whiteSpace=wrap;html=1;fontSize=20;fillColor=#000000;strokeColor=#FFFFFF;fontColor=#383838;strokeWidth=2;" parent="1" vertex="1">
          <mxGeometry x="-936" y="-774" width="290" height="54" as="geometry" />
        </mxCell>
        <mxCell id="TaVSvGBADPzD679VYjAK-75" value="&lt;b&gt;&lt;font color=&quot;#ffffff&quot;&gt;Administrator&lt;/font&gt;&lt;/b&gt;" style="rounded=1;whiteSpace=wrap;html=1;fontSize=20;fillColor=#000000;strokeColor=#FFFFFF;fontColor=#383838;strokeWidth=2;" parent="1" vertex="1">
          <mxGeometry x="-1304.25" y="-894" width="167.5" height="175" as="geometry" />
        </mxCell>
        <mxCell id="TaVSvGBADPzD679VYjAK-76" value="" style="endArrow=classic;html=1;rounded=0;horizontal=1;exitX=0;exitY=0.5;exitDx=0;exitDy=0;entryX=0.5;entryY=1;entryDx=0;entryDy=0;strokeWidth=2;strokeColor=#FFFFFF;" parent="1" source="TaVSvGBADPzD679VYjAK-69" target="TaVSvGBADPzD679VYjAK-75" edge="1">
          <mxGeometry width="50" height="50" relative="1" as="geometry">
            <mxPoint x="-1247" y="-396.5" as="sourcePoint" />
            <mxPoint x="-1234" y="-734" as="targetPoint" />
            <Array as="points">
              <mxPoint x="-1220" y="-90" />
            </Array>
          </mxGeometry>
        </mxCell>
        <mxCell id="TaVSvGBADPzD679VYjAK-77" value="" style="endArrow=classic;html=1;rounded=0;entryX=0.001;entryY=0.489;entryDx=0;entryDy=0;horizontal=1;strokeColor=#33FF33;fontStyle=1;entryPerimeter=0;exitX=1.002;exitY=0.514;exitDx=0;exitDy=0;exitPerimeter=0;strokeWidth=3;" parent="1" edge="1">
          <mxGeometry width="50" height="50" relative="1" as="geometry">
            <mxPoint x="-1136.415" y="-801.05" as="sourcePoint" />
            <mxPoint x="-935.71" y="-744.5939999999999" as="targetPoint" />
            <Array as="points">
              <mxPoint x="-1067" y="-801" />
              <mxPoint x="-1067" y="-745" />
            </Array>
          </mxGeometry>
        </mxCell>
        <mxCell id="TaVSvGBADPzD679VYjAK-79" value="" style="endArrow=classic;html=1;rounded=0;exitX=0.5;exitY=1;exitDx=0;exitDy=0;entryX=0.5;entryY=0;entryDx=0;entryDy=0;strokeWidth=2;strokeColor=#FFFFFF;" parent="1" source="TaVSvGBADPzD679VYjAK-74" target="TaVSvGBADPzD679VYjAK-17" edge="1">
          <mxGeometry width="50" height="50" relative="1" as="geometry">
            <mxPoint x="-831.3400000000001" y="-674" as="sourcePoint" />
            <mxPoint x="-831" y="-684" as="targetPoint" />
          </mxGeometry>
        </mxCell>
        <mxCell id="TaVSvGBADPzD679VYjAK-80" value="&lt;font color=&quot;#ffffff&quot;&gt;items&lt;/font&gt;" style="rounded=1;whiteSpace=wrap;html=1;fontSize=20;fillColor=#000000;strokeColor=#FFFFFF;fontColor=#383838;strokeWidth=2;" parent="1" vertex="1">
          <mxGeometry x="-1250.5" y="-287" width="60" height="33" as="geometry" />
        </mxCell>
        <mxCell id="TaVSvGBADPzD679VYjAK-82" value="&lt;font color=&quot;#ffb570&quot; style=&quot;font-size: 18px;&quot;&gt;url/?x&lt;/font&gt;" style="text;html=1;align=center;verticalAlign=middle;resizable=0;points=[];autosize=1;fontSize=15;fontStyle=1;fontFamily=Courier New;fontColor=#FF8000;" parent="1" vertex="1">
          <mxGeometry x="-565" y="-282" width="83" height="34" as="geometry" />
        </mxCell>
        <mxCell id="TaVSvGBADPzD679VYjAK-83" value="&lt;font color=&quot;#ffb570&quot; style=&quot;font-size: 18px;&quot;&gt;url/?t&lt;/font&gt;" style="text;html=1;align=center;verticalAlign=middle;resizable=0;points=[];autosize=1;fontSize=15;fontStyle=1;fontFamily=Courier New;fontColor=#FF8000;" parent="1" vertex="1">
          <mxGeometry x="-929" y="-281" width="83" height="34" as="geometry" />
        </mxCell>
        <mxCell id="TaVSvGBADPzD679VYjAK-84" value="&lt;font color=&quot;#ffb570&quot; style=&quot;font-size: 18px;&quot;&gt;url/?c&lt;/font&gt;" style="text;html=1;align=center;verticalAlign=middle;resizable=0;points=[];autosize=1;fontSize=15;fontStyle=1;fontFamily=Courier New;fontColor=#FF8000;" parent="1" vertex="1">
          <mxGeometry x="-794" y="-281" width="83" height="34" as="geometry" />
        </mxCell>
        <mxCell id="TaVSvGBADPzD679VYjAK-85" value="&lt;font color=&quot;#ffb570&quot; style=&quot;font-size: 18px;&quot;&gt;url/?v&lt;/font&gt;" style="text;html=1;align=center;verticalAlign=middle;resizable=0;points=[];autosize=1;fontSize=15;fontStyle=1;fontFamily=Courier New;fontColor=#FF8000;" parent="1" vertex="1">
          <mxGeometry x="-659" y="-281" width="83" height="34" as="geometry" />
        </mxCell>
        <mxCell id="TaVSvGBADPzD679VYjAK-86" value="&lt;font color=&quot;#ffb570&quot; style=&quot;font-size: 18px;&quot;&gt;url/select.htm?v&lt;/font&gt;" style="text;html=1;align=center;verticalAlign=middle;resizable=0;points=[];autosize=1;fontSize=15;fontStyle=1;fontFamily=Courier New;fontColor=#FF8000;" parent="1" vertex="1">
          <mxGeometry x="-1302" y="-90" width="191" height="34" as="geometry" />
        </mxCell>
        <mxCell id="TaVSvGBADPzD679VYjAK-87" value="&lt;font color=&quot;#ffb570&quot; style=&quot;font-size: 18px;&quot;&gt;google.shared.link&lt;/font&gt;" style="text;html=1;align=center;verticalAlign=middle;resizable=0;points=[];autosize=1;fontSize=15;fontStyle=1;fontFamily=Courier New;fontColor=#FF8000;" parent="1" vertex="1">
          <mxGeometry x="-714" y="-687" width="212" height="34" as="geometry" />
        </mxCell>
        <mxCell id="TaVSvGBADPzD679VYjAK-89" value="&lt;b&gt;&lt;i&gt;&lt;font style=&quot;font-size: 18px;&quot;&gt;Database view&lt;/font&gt;&lt;/i&gt;&lt;/b&gt;" style="text;html=1;align=center;verticalAlign=middle;resizable=0;points=[];autosize=1;strokeColor=none;fillColor=none;fontColor=#FFFFFF;" parent="1" vertex="1">
          <mxGeometry x="-519" y="-747" width="150" height="40" as="geometry" />
        </mxCell>
        <mxCell id="TaVSvGBADPzD679VYjAK-90" value="&lt;b&gt;&lt;i&gt;&lt;font style=&quot;font-size: 18px;&quot;&gt;Users view&lt;/font&gt;&lt;/i&gt;&lt;/b&gt;" style="text;html=1;align=center;verticalAlign=middle;resizable=0;points=[];autosize=1;strokeColor=none;fillColor=none;fontColor=#FFFFFF;" parent="1" vertex="1">
          <mxGeometry x="-490" y="-96" width="120" height="40" as="geometry" />
        </mxCell>
        <mxCell id="TaVSvGBADPzD679VYjAK-91" value="&lt;font style=&quot;font-size: 14px;&quot;&gt;update&lt;/font&gt;" style="text;html=1;align=center;verticalAlign=middle;resizable=0;points=[];autosize=1;strokeColor=none;fillColor=none;fontStyle=1;fontSize=9;fontColor=#33FF33;fontFamily=Courier New;" parent="1" vertex="1">
          <mxGeometry x="-1079" y="-745" width="68" height="29" as="geometry" />
        </mxCell>
        <mxCell id="TaVSvGBADPzD679VYjAK-98" value="" style="endArrow=classic;html=1;rounded=0;fontColor=#FFB570;strokeColor=#FFB570;entryX=0;entryY=0.5;entryDx=0;entryDy=0;exitX=1.002;exitY=0.423;exitDx=0;exitDy=0;exitPerimeter=0;strokeWidth=3;" parent="1" source="TaVSvGBADPzD679VYjAK-75" target="TaVSvGBADPzD679VYjAK-97" edge="1">
          <mxGeometry width="50" height="50" relative="1" as="geometry">
            <mxPoint x="-1150.75" y="-785.75" as="sourcePoint" />
            <mxPoint x="-977" y="-942" as="targetPoint" />
            <Array as="points">
              <mxPoint x="-1047" y="-820" />
              <mxPoint x="-1047" y="-863" />
            </Array>
          </mxGeometry>
        </mxCell>
        <mxCell id="TaVSvGBADPzD679VYjAK-99" value="" style="endArrow=classic;html=1;rounded=0;fontColor=#FFB570;strokeColor=#FFB570;entryX=0;entryY=0.25;entryDx=0;entryDy=0;strokeWidth=3;" parent="1" target="TaVSvGBADPzD679VYjAK-74" edge="1">
          <mxGeometry width="50" height="50" relative="1" as="geometry">
            <mxPoint x="-1047" y="-824" as="sourcePoint" />
            <mxPoint x="-977" y="-770" as="targetPoint" />
            <Array as="points">
              <mxPoint x="-1047" y="-824" />
              <mxPoint x="-1047" y="-760" />
            </Array>
          </mxGeometry>
        </mxCell>
        <mxCell id="TaVSvGBADPzD679VYjAK-100" value="" style="endArrow=classic;html=1;rounded=0;fontColor=#FFB570;strokeColor=#FFFFFF;entryX=0.5;entryY=0;entryDx=0;entryDy=0;strokeWidth=2;" parent="1" target="TaVSvGBADPzD679VYjAK-74" edge="1">
          <mxGeometry width="50" height="50" relative="1" as="geometry">
            <mxPoint x="-791" y="-880" as="sourcePoint" />
            <mxPoint x="-926.25" y="-779" as="targetPoint" />
            <Array as="points" />
          </mxGeometry>
        </mxCell>
        <mxCell id="TaVSvGBADPzD679VYjAK-101" value="&lt;span&gt;&lt;span&gt;&lt;font style=&quot;font-size: 14px;&quot;&gt;&amp;nbsp;get cdn link&lt;/font&gt;&lt;/span&gt;&lt;/span&gt;" style="text;html=1;align=center;verticalAlign=middle;resizable=0;points=[];autosize=1;strokeColor=none;fillColor=none;fontStyle=3;fontColor=#FFB570;fontFamily=Courier New;" parent="1" vertex="1">
          <mxGeometry x="-796" y="-812" width="127" height="29" as="geometry" />
        </mxCell>
        <mxCell id="TaVSvGBADPzD679VYjAK-103" value="image" style="rounded=1;whiteSpace=wrap;html=1;strokeColor=#FFFFFF;fillColor=#000000;fontColor=#FFFFFF;strokeWidth=2;" parent="1" vertex="1">
          <mxGeometry x="-936" y="-835" width="60" height="20" as="geometry" />
        </mxCell>
        <mxCell id="TaVSvGBADPzD679VYjAK-104" value="image" style="rounded=1;whiteSpace=wrap;html=1;strokeColor=#FFFFFF;fillColor=#000000;fontColor=#FFFFFF;strokeWidth=2;" parent="1" vertex="1">
          <mxGeometry x="-931" y="-835" width="60" height="20" as="geometry" />
        </mxCell>
        <mxCell id="TaVSvGBADPzD679VYjAK-105" value="image" style="rounded=1;whiteSpace=wrap;html=1;strokeColor=#FFFFFF;fillColor=#000000;fontColor=#FFFFFF;strokeWidth=2;" parent="1" vertex="1">
          <mxGeometry x="-926" y="-835" width="60" height="20" as="geometry" />
        </mxCell>
        <mxCell id="TaVSvGBADPzD679VYjAK-106" value="image" style="rounded=1;whiteSpace=wrap;html=1;strokeColor=#FFFFFF;fillColor=#000000;fontColor=#FFFFFF;strokeWidth=2;" parent="1" vertex="1">
          <mxGeometry x="-921" y="-835" width="60" height="20" as="geometry" />
        </mxCell>
        <mxCell id="TaVSvGBADPzD679VYjAK-107" value="image" style="rounded=1;whiteSpace=wrap;html=1;strokeColor=#FFFFFF;fillColor=#000000;fontColor=#FFFFFF;strokeWidth=2;" parent="1" vertex="1">
          <mxGeometry x="-916" y="-835" width="60" height="20" as="geometry" />
        </mxCell>
        <mxCell id="TaVSvGBADPzD679VYjAK-108" value="image" style="rounded=1;whiteSpace=wrap;html=1;strokeColor=#FFFFFF;fillColor=#000000;fontColor=#FFFFFF;strokeWidth=2;" parent="1" vertex="1">
          <mxGeometry x="-916" y="-835" width="60" height="20" as="geometry" />
        </mxCell>
        <mxCell id="TaVSvGBADPzD679VYjAK-109" value="image" style="rounded=1;whiteSpace=wrap;html=1;strokeColor=#FFFFFF;fillColor=#000000;fontColor=#FFFFFF;strokeWidth=2;" parent="1" vertex="1">
          <mxGeometry x="-911" y="-835" width="60" height="20" as="geometry" />
        </mxCell>
        <mxCell id="TaVSvGBADPzD679VYjAK-110" value="image" style="rounded=1;whiteSpace=wrap;html=1;strokeColor=#FFFFFF;fillColor=#000000;fontColor=#FFFFFF;strokeWidth=2;" parent="1" vertex="1">
          <mxGeometry x="-906" y="-835" width="60" height="20" as="geometry" />
        </mxCell>
        <mxCell id="TaVSvGBADPzD679VYjAK-111" value="image" style="rounded=1;whiteSpace=wrap;html=1;strokeColor=#FFFFFF;fillColor=#000000;fontColor=#FFFFFF;strokeWidth=2;" parent="1" vertex="1">
          <mxGeometry x="-901" y="-835" width="60" height="20" as="geometry" />
        </mxCell>
        <mxCell id="TaVSvGBADPzD679VYjAK-112" value="image" style="rounded=1;whiteSpace=wrap;html=1;strokeColor=#FFFFFF;fillColor=#000000;fontColor=#FFFFFF;strokeWidth=2;" parent="1" vertex="1">
          <mxGeometry x="-896" y="-835" width="60" height="20" as="geometry" />
        </mxCell>
        <mxCell id="TaVSvGBADPzD679VYjAK-113" value="image" style="rounded=1;whiteSpace=wrap;html=1;strokeColor=#FFFFFF;fillColor=#000000;fontColor=#FFFFFF;strokeWidth=2;" parent="1" vertex="1">
          <mxGeometry x="-891" y="-835" width="60" height="20" as="geometry" />
        </mxCell>
        <mxCell id="TaVSvGBADPzD679VYjAK-114" value="image" style="rounded=1;whiteSpace=wrap;html=1;strokeColor=#FFFFFF;fillColor=#000000;fontColor=#FFFFFF;strokeWidth=2;" parent="1" vertex="1">
          <mxGeometry x="-886" y="-835" width="60" height="20" as="geometry" />
        </mxCell>
        <mxCell id="TaVSvGBADPzD679VYjAK-115" value="image" style="rounded=1;whiteSpace=wrap;html=1;strokeColor=#FFFFFF;fillColor=#000000;fontColor=#FFFFFF;strokeWidth=2;" parent="1" vertex="1">
          <mxGeometry x="-881" y="-835" width="60" height="20" as="geometry" />
        </mxCell>
        <mxCell id="TaVSvGBADPzD679VYjAK-116" value="image" style="rounded=1;whiteSpace=wrap;html=1;strokeColor=#FFFFFF;fillColor=#000000;fontColor=#FFFFFF;strokeWidth=2;" parent="1" vertex="1">
          <mxGeometry x="-876" y="-835" width="60" height="20" as="geometry" />
        </mxCell>
        <mxCell id="TaVSvGBADPzD679VYjAK-117" value="image" style="rounded=1;whiteSpace=wrap;html=1;strokeColor=#FFFFFF;fillColor=#000000;fontColor=#FFFFFF;strokeWidth=2;" parent="1" vertex="1">
          <mxGeometry x="-871" y="-835" width="60" height="20" as="geometry" />
        </mxCell>
        <mxCell id="TaVSvGBADPzD679VYjAK-118" value="image" style="rounded=1;whiteSpace=wrap;html=1;strokeColor=#FFFFFF;fillColor=#000000;fontColor=#FFFFFF;strokeWidth=2;" parent="1" vertex="1">
          <mxGeometry x="-866" y="-835" width="60" height="20" as="geometry" />
        </mxCell>
        <mxCell id="TaVSvGBADPzD679VYjAK-119" value="image" style="rounded=1;whiteSpace=wrap;html=1;strokeColor=#FFFFFF;fillColor=#000000;fontColor=#FFFFFF;strokeWidth=2;" parent="1" vertex="1">
          <mxGeometry x="-861" y="-835" width="60" height="20" as="geometry" />
        </mxCell>
        <mxCell id="TaVSvGBADPzD679VYjAK-120" value="image" style="rounded=1;whiteSpace=wrap;html=1;strokeColor=#FFFFFF;fillColor=#000000;fontColor=#FFFFFF;strokeWidth=2;" parent="1" vertex="1">
          <mxGeometry x="-856" y="-835" width="60" height="20" as="geometry" />
        </mxCell>
        <mxCell id="TaVSvGBADPzD679VYjAK-121" value="image" style="rounded=1;whiteSpace=wrap;html=1;strokeColor=#FFFFFF;fillColor=#000000;fontColor=#FFFFFF;strokeWidth=2;" parent="1" vertex="1">
          <mxGeometry x="-851" y="-835" width="60" height="20" as="geometry" />
        </mxCell>
        <mxCell id="TaVSvGBADPzD679VYjAK-122" value="image" style="rounded=1;whiteSpace=wrap;html=1;strokeColor=#FFFFFF;fillColor=#000000;fontColor=#FFFFFF;strokeWidth=2;" parent="1" vertex="1">
          <mxGeometry x="-846" y="-835" width="60" height="20" as="geometry" />
        </mxCell>
        <mxCell id="TaVSvGBADPzD679VYjAK-123" value="image" style="rounded=1;whiteSpace=wrap;html=1;strokeColor=#FFFFFF;fillColor=#000000;fontColor=#FFFFFF;strokeWidth=2;" parent="1" vertex="1">
          <mxGeometry x="-846" y="-835" width="60" height="20" as="geometry" />
        </mxCell>
        <mxCell id="TaVSvGBADPzD679VYjAK-124" value="image" style="rounded=1;whiteSpace=wrap;html=1;strokeColor=#FFFFFF;fillColor=#000000;fontColor=#FFFFFF;strokeWidth=2;" parent="1" vertex="1">
          <mxGeometry x="-841" y="-835" width="60" height="20" as="geometry" />
        </mxCell>
        <mxCell id="TaVSvGBADPzD679VYjAK-125" value="image" style="rounded=1;whiteSpace=wrap;html=1;strokeColor=#FFFFFF;fillColor=#000000;fontColor=#FFFFFF;strokeWidth=2;" parent="1" vertex="1">
          <mxGeometry x="-836" y="-835" width="60" height="20" as="geometry" />
        </mxCell>
        <mxCell id="TaVSvGBADPzD679VYjAK-126" value="image" style="rounded=1;whiteSpace=wrap;html=1;strokeColor=#FFFFFF;fillColor=#000000;fontColor=#FFFFFF;strokeWidth=2;" parent="1" vertex="1">
          <mxGeometry x="-831" y="-835" width="60" height="20" as="geometry" />
        </mxCell>
        <mxCell id="TaVSvGBADPzD679VYjAK-127" value="image" style="rounded=1;whiteSpace=wrap;html=1;strokeColor=#FFFFFF;fillColor=#000000;fontColor=#FFFFFF;strokeWidth=2;" parent="1" vertex="1">
          <mxGeometry x="-826" y="-835" width="60" height="20" as="geometry" />
        </mxCell>
        <mxCell id="TaVSvGBADPzD679VYjAK-128" value="&lt;b&gt;image&lt;/b&gt;" style="rounded=1;whiteSpace=wrap;html=1;strokeColor=#FFFFFF;fontColor=#FFFFFF;fillColor=#000000;strokeWidth=2;" parent="1" vertex="1">
          <mxGeometry x="-821" y="-835" width="60" height="20" as="geometry" />
        </mxCell>
        <mxCell id="TaVSvGBADPzD679VYjAK-130" value="&lt;span style=&quot;&quot;&gt;&lt;font style=&quot;font-size: 14px;&quot;&gt;add image&lt;/font&gt;&lt;/span&gt;" style="text;html=1;align=center;verticalAlign=middle;resizable=0;points=[];autosize=1;strokeColor=none;fillColor=none;fontStyle=1;fontColor=#FFB570;fontSize=9;fontFamily=Courier New;" parent="1" vertex="1">
          <mxGeometry x="-1042" y="-895" width="94" height="29" as="geometry" />
        </mxCell>
        <mxCell id="TaVSvGBADPzD679VYjAK-131" value="&lt;span style=&quot;border-color: var(--border-color); font-style: normal; font-variant-ligatures: normal; font-variant-caps: normal; letter-spacing: normal; orphans: 2; text-align: center; text-indent: 0px; text-transform: none; widows: 2; word-spacing: 0px; -webkit-text-stroke-width: 0px; text-decoration-thickness: initial; text-decoration-style: initial; text-decoration-color: initial;&quot;&gt;&lt;span style=&quot;border-color: var(--border-color);&quot;&gt;&lt;font style=&quot;font-size: 14px;&quot;&gt;add info&lt;/font&gt;&lt;/span&gt;&lt;/span&gt;" style="text;whiteSpace=wrap;html=1;fontSize=9;labelBackgroundColor=none;fontColor=#FFB570;strokeColor=none;fontFamily=Courier New;fontStyle=1" parent="1" vertex="1">
          <mxGeometry x="-1030" y="-790" width="90" height="21" as="geometry" />
        </mxCell>
        <mxCell id="TaVSvGBADPzD679VYjAK-133" value="&lt;font color=&quot;#ffffff&quot; style=&quot;font-size: 24px;&quot;&gt;Single mode - one seller&lt;/font&gt;" style="text;html=1;align=center;verticalAlign=middle;resizable=0;points=[];autosize=1;strokeColor=none;fillColor=none;fontStyle=3" parent="1" vertex="1">
          <mxGeometry x="-1354" y="-984" width="277" height="41" as="geometry" />
        </mxCell>
        <mxCell id="TaVSvGBADPzD679VYjAK-134" value="&lt;font color=&quot;#ffb570&quot; style=&quot;font-size: 18px;&quot;&gt;url/?v&lt;/font&gt;" style="text;html=1;align=center;verticalAlign=middle;resizable=0;points=[];autosize=1;fontSize=15;fontStyle=1;fontFamily=Courier New;fontColor=#FF8000;" parent="1" vertex="1">
          <mxGeometry x="-1222" y="-249" width="83" height="34" as="geometry" />
        </mxCell>
        <mxCell id="TaVSvGBADPzD679VYjAK-136" value="" style="shape=image;verticalLabelPosition=bottom;labelBackgroundColor=default;verticalAlign=top;aspect=fixed;imageAspect=0;image=data:image/png,iVBORw0KGgoAAAANSUhEUgAAASwAAACoCAMAAABt9SM9AAAAkFBMVEX///8XFRYiIiIAAAAfHx8oKCgMDAwQEBAcHBwUFBShoaGcnJwXFxcZGRnr6+sTExNKSkqOjo7CwsL19fVFRUXe3t7i4uLt7e14eHhAQECCgoLS0tLLy8tvb2+pqaldXV1mZmYvLy+EhIS3t7c4ODiurq6SkpJnZ2fPz898entgXl87OztVVVUHAAVEQkNMSUp/aAaiAAAJtklEQVR4nO2ca6OqKhCGSxTsYlZk95vda9Ve///fHVFQUEytdXat3TyfSoH0FYaZAavVAAAAAAAAAAAAAAAAAAAAAAAAAAAAAAAAAAAAAAAAAAAAAAAAAOBvQQWvvpD3hnb6h0XXQhH+dXHod159Te/JqH/+wzTCpB5BMPv6PZ1DF0sxGwcdCtezBIr509mrL++d2HYRIhqleBdDqNt/9SW+C9udtk+p/esL5AqYDQqliuS6Dl99qS+nV0oqxg21Xn2xr8UboJJSMdD3J3euLblV0CpQq/65lutwZwrUg1Hz1Rf9Is5VhiDHRb1XX/ZLWDygVQDavPrCX8CDWn2kWodHtQrU+jS7tU20IuWsvFQMfdac6MW5hTrZGfoQWuaGkLVLqqBP8rfon9i/Qhs68pYrdG9UInTZDykdx2Vu36++g79IL5EGRekXb4yEfi7B+IaTrofQ2QvL9KVanxP5zKRuhMRB74IwjlKk39fLdeCHn4NDRzHmRmYsoIu8wl+h822rt9kcmtv+bx613cREYWlA9a0/h62X5EWpt+19+fOkwCSph1b3f2K0HIRZV9eNEq7X5ajctdGZx5jJ6VnqZY/p6ETlip9jBbZyxzpXqLiWIsm7MyI9EGQbMjaK+2Jnu79zOy2+AiAHClN+rMhlafNyP5nY9SVfoVL0MpZUxt38ct4EmUYaxNc+QjUuuf2shcPSRBGrER7DRWJZ0a/iHxRL7ljV3HHF6c/vWifHyUhlmFZ0shXqSAZ5ld9MLF92qtCiQs2VnNC5XXNKDR07q5XhRuN9ZEc3hLY5td9LrJniUWG/QtWd4uvnTYhduV+Ztm2akjpzxLWbhl87q4hpXPu9xBqr7icqvyroqX5+jrlrolioYB60JpNdYNyRy01WSiwPOww3GZXvJRZy5Tsu4zAJTmpV4ugKUV/YdtdoibaH/TMftNTkwzCyeF47/GYns8VbidVPdaw826Fjmaqru6i96Fg51nDJDLyJuXZvLpaaHq1k31MWXj8OV9xi4TwHbhmEBs6YD/43F2snGx73Vm3jx1CdHL6yJTpGdMH2JNcWjk7zOPx5b7GGSvaqctJTTa+ibIE+H4Ulh/fQ+Z/EGs36+/38ycBHNVkVrHuE6negU6bAgUQToZ/XsVqXNWMVdi6vyQetdWTH9rViseaLCPEwDtHXM/s9LhY59VdWGJE2Jk8ldVvy3eJcPzqXttIx95nzi2hctXNt4YCEzkIwGw4vFsHCzWizY8zMCbEOUp2NJFYLtRnC2NIdYV/dMB3JxTIs7PBPNto9scNMjViqRNG6+tlRfLULRkzXFq7DNh1Ahr4XF8scLBImpiRWdL4xjpqjk6g9Ioslt+uQx7eXXZVYp3onVXrmLZOnoTvFjarRoUQYPMtiqVopYhlmO4HffGmxFBoFyaQ7DBSxqi887JVhPEmfHvHrFcZwgSTC0mXF0lBFLNOMP2ssazmoEt490IySsiBWRizhZXHnYNxO7tUepMVykpDbZjbrp8SyMfJ3jmioUc2XlG7GV8SaF9e4K1Ym4Bm5KbEa+WKdutdrV5jkK2P5M2LZg+ZwREciSM2fmYvEshSxnhyGdTfTPikvFsNzpFMhPyCWwydAoZb7oJOaEis79RfRVMRqZNrnczYqMQwZwoPPiuXgBLuaWG2ehqWGOttUharD8FBcI0VPGYZm+nRs4Lk1XLAUjP2AWM56vxTsV/ZDYol+Xej550C/lNlwXLkBec2iTjKZQ/rFxeJ9tslMEdenkliqU+o+JpaurSp0ZbHuLTrkYJD79a+REXJld3WGHhArL9ypIlZT01YVLkqSBZdczIvpFCV4eM+3ZRnnrxJr+aRYG/Vuq5o+dTLULOLzh2nIIfrLxGo+OQz3z+T+arVvJQ2vycPMxHQthZ3Pi/WczXrUwNdOqczwM8m/umbnEf3ic58UHbxMrF7k9VVKnSs3Y6jLWdXmw7W6E1yT/KttuFtquvFAvCdW5JdVF6tdRiw+2+DqgQqnm1rPquLdphY7bhdNGc+NU0kt3m2Le5ZpxPVLiuXwXIJGLNPh4U2HZ3vshzfxtNQbxlb5wKljpYRe6kqNedcKbo5cz5vNeb0zc8XqCOc8tsFFYvEZzmiEY2t44L+lhDuH8CnRNX8Su4oSJXipLX4obxU+A72mq2oNXsdIVu/thus24qylRqyaWGXEg/F4wSbXIrFEkt9sr6fjlS0iSSXrgBvX8Xnh87i0Ud31jvFJWq1yzlanm9Iqz6Xtp/NUQjmdWBex1m+3G+hYKxarY4tEldOIn0M6n2U67YZIGRoP5FZiUuMwUMsv421tjUw97SisMfdEl7HUiyUrGybui8SqHRuZljNiZX/2QSi/6TB5GXURtC5a5ZldM6/5uPm7JPrYzV60iXcasWrd5N7LiTVLPYooTpfEIsp5s/IKlsIxlIgtNsw2N8yF+97mG/rR8kuz9/vemiMdY2zL12zaGI/D4T5wTEYsVhDai4JcrPA8lsU6k6hO5FzuUbJNx2yj64q1GCbQLJt9avnSrkPnYScrIjLx+A+tjabeN+9nONCrt/VS5ouOZsvpl36b/P298MPDwEa4wVa42i7GRrfJm16YFsONfVbas1jBdgOHTl+zHZ535Eiq54TH2nzcn7oEuaxhgox1v7Z0Dcsy2GQzMVjLtNacEOy2A7sVzMfPrk6vQ4FuVvBwT/NkBYMtS6ZsNmVblvUvFBS7s8N+67y4rFbHc1P+e4hOiPxUKCu4ODej/0SIzisTLU0f85bn42q16EXtDkV7NG7Z208X6+N5+fxCvidMVbM2W1JpHxGpp52BTtqqx0Xxw57eL0OkHth4bkr7iDSZ07x3Eh9Isv5SRCaeOJ3aykv00JihmV4svPucvxERQV64fj8/R2bJRToF9GI94+j9OqZCrU7gd81PV2bc62udAl3tTPhR7/5S/hcF7K5pbXYYnraz0VJns4+a9/PTk+a/ztDk7ijzb4dT6qF5Z6XzdTVvB2Ojaur+t3OK4hds8O6UlzLNioXxj75J9CvoRw4WNu/HAxmxyEcZdwFXi6DBMuoqns7fTdss/JFasXQv5vePiGnZRLvWkxIL3x7d7fTb8SwxxlxCiD7cU9cokP8pUU6W0Up+w6RQLBetP8dx19BCiRjaYSiJhW6f9u8XabxunAO9LxZGWj/sw9hbXC6tWHwnCUH+cynHfwXaqodyacUK323CyG5+tLWSoUv2L6Voqjm1QOyfSqvvp/ynmU197VTXWfkb+E9XAAAAAAAAAAAAAAAAAAAAAAAAAAAAAAAAAAAAAAAAAAAAAAAAAAAAAAD+Zf4DnIOyIcvCVlYAAAAASUVORK5CYII=;opacity=40;" parent="1" vertex="1">
          <mxGeometry x="-726" y="-886" width="53.51" height="30" as="geometry" />
        </mxCell>
        <mxCell id="TaVSvGBADPzD679VYjAK-138" value="" style="shape=image;verticalLabelPosition=bottom;labelBackgroundColor=default;verticalAlign=top;aspect=fixed;imageAspect=0;image=data:image/png,iVBORw0KGgoAAAANSUhEUgAAAOUAAAC5CAYAAADXhfiaAAAAAXNSR0IArs4c6QAAAARnQU1BAACxjwv8YQUAAAAJcEhZcwAAEnQAABJ0Ad5mH3gAACf9SURBVHhe7Z1XjFzXtaZXV1XnQDZzjsq0IiVayZIsS3SCfA1DBmwDDroD+D55MI8z8zJ3ZjCYx8HAA/jhAr4DA4aMsa9hW5IFS5YsK1GkKFJizhTJbsZm51C5Zn+7apOni5VOdYXT5PqJzaquOjutvf4V9tlV1ZIxEIVCERiEco8KhSIgUFIqFAGDklKhCBiUlApFwKCkVCgCBiWlQhEwKCkVioBBSalQBAxKSoUiYFBSKhQBg5JSoQgYlJQKRcCgpFQoAgb9lEgNkMqkZSI+LTPJuKTS6dyrwUaoJSRdrW3S29YlYfNcERwoKeeAeCopw9EJOTt5WU6OX7LETKZTkjH/ysFeUWPRF2uN15Oz3s1Ieygim7qXydblt8uijl6JhMK59xTNhpKySiQM+QYmh+TDC4fktdMfy97RM0bVM9ZrpisQabrC62aj+PXJEu3x+pSkcn9hC9LSH26X7Uvulh/d+zW5b8lGWdjebb2novlQUlaJY6OD8i+H35C3BvdJLJXIvepoU16kEKUSj+rAKkH44jAXFGmOl/HfDiljUHoi7fLc8i2yefFa2bb8Drln4Vrp7+jJXaFoJtQ0+gQ54/jMlCXkB5cOy3QyNstDtdhSh3+m4WzbxQrXFC4hU8Kewt+h3PXxdFIODp+TT6+elhETiiuaDyWlT0wnorJjYL/svnxchmYm7CYJSj6fMZGcMTnxRdk3fEbGYibQLemRFfWGktInxuPT8srnH9lNnflORoewUYOxxLT1mIdHBywx2bBSNAdKSp+YSMXk3ZFTMmPCvpvpVgLEjKYT8s6Fg3Ji/IJMJmZMHlskSVXUFUpKH0gYIk4bZSWPvBlDPPJMbpV8dOmYHBg5K2Pxqdw7ikZCSekDOA42ddI+dk0Lwe/OayPRYv4lMyk5PDIo+66ekdHYZO4dRaOgpGwKgh0Whsy/cZNjHh+7IAeG8ZjTuvnTQCgpG4xqfCTXNzq9I8ccTUzZHVnuybKxpcRsDJSUDQS88t7TrBScwCGkbDTs5k8qIW+d329vmUwmolWYFIVfKCnnBbI3+6uBNQRzIBL9toUisuPiUTloQtnx2HTuHUW9oKRsEGzY2ugYtEaAmLFMUg6PDMj+3AEDRf2gpGwAsoTMPvoFRK6mXq3hcsxjY+fl4Mg5e4hCc8z6QElZR0AlW6okJLCUDIiHhZgj8Sn57OppOTF2QSbjM0rMOkBJWSdAo+zHs8jogkGqWgBizqQS8sbAZ3Jq4pJMJ2K5dxS1gpKyxsCrOTLOFXihanZrHayXrYNBsJs/4ezmzyFO/miOWVMoKX2CzyVOGk/hPlR8Q6klDQLsYCHmTDpuSDlgyjklZg2hpPQJPGE0kzJezPmh2f9qBQg+F1bOrXZlIJQdjk3KkdFBOTI2KBOJGTNuzTHnCiVlAOFC4LmQqpYGohT4pMxwfFL2XDklp3IHDJSYc4OSMmDAQ863Hc3syZ+43fw5zeZPUjd/5gIlZYAAITlSN1fM9VMs1YBPl+A1+dgXhww4xK6oDkrKgMARsvF0qh3Y/JlMRu3mz5HRAXvAQOEfSsoAwJ7aaSAh8Wr0NZOIW2NQSxDKXomOyxFDTE7/TNkccz6bmsZDSdlkQEhyyFqpbSXt8N1CbARdnL5qv02h1oiYMHYoNiG7L5/IHjAw3lOJWTmUlE2EI2StgNpXsuvKV0vGUknZPzJoT+fUA9mTP3F5k5M/47r54wdKyiaAWwZ8f2wtbx1USkiHTItIvCUtA5cHZXy6Xt/3mv242c7Lx+Wo5pgVQ0nZIEAYSJgt/OWHQqXhl5AAukQiETk6eUFODQ/K2NR49o0agj7Y/GEnls2fo6PGAMRnsm8qikJJWUdkN3CuF8hYj9yqGnoTwraGwjKYHJfDY4NybOisXBwdklgsZsdaS5BjXpoZtbdKTo5fuOFb5RWzob8l4gP8ytaeoZOy/S//QxZHOuzXMRYDYm3UIYC5bBMRRvPFy93JsKxtWSD3LtskCxYusF601kAefW1d8tya++T2RWukM9KWe0fhhZLSB7ykXBhulw5DSreT2azfpayWkPljbjHNhJMi7ZNpaZk2JVV7taDF3vZOeXjlJvnP33hJVi9cln1DMQsavlYNQtK0tf7pdOPtGj1WTUhjh/PHzMZPMpKR6S6Rqe6UTLYnZSqSqGmZNiUaTki8ZfavZSpmQ0k5B6BYKHg1Od1ckO2t+j7tuAvVx+u3hyTT3SrSHZFMR1hM4lm70kYJSyhiHrMbs4oCMNJRzD9UbwayNcvUNgTKtBtCQqJQjj3ZrdQ5lYxpK6M/GF0WiEsxj0DIWi0hQcU7wBDTeMo0xDSEzEQg1NzKdW1TN1kKSsp5hLkexrPH+fzs64WNenQaYuI1a8Uj007aRMeK4lBSBhxQCN84F/9ITd+EBBDRQ0zr7WoBdZQloaQMMK4TMvu8epg2/BLSAQKxMUM4SylFTPLPSoqiJJSUAYUjZC1QLR+9aMFjOmJCLLjlLeY1b/5YtCgpy0JJGVDUipDZjZ3aHGywxGwLmVDWENN4z1nFEE5RGygpAwSIyGbOXDd0HNwB+FqiJRSSltawpNiNVR7WBUrKAAAyZv/VDpCx6jyyDDjMHsrll36IybUZ1biyUBE1AVDlesmSsZb0cfcia9nmLBhyWY/JBpCHmBCudMnmlCHNK0vCiErRaGSJ6P7VFrXMIcvB5pi5fBLSpc1jqcI1xslmSckTRUEoKesMlyN6S73QSEI6QMwWE8pCukpARJ1MmjHyRFEQSsoqgUo5kjl/x6OXfJRGoRmEdGhpCUkoUtmhVhxkhLBXPWVRKCmrhJduPK9HKFoJIGJ2U6c5hLSw0ajJFS3Zcq+VAHxUShaHkrJGaDQh6S9LSDxkcwzCLEA0Nn9MUS84Nygp5xmueeUcIYOGEDmm3cjJvVAA9tZI7rniRigp5xnSaff1lMFVa4jJrmy6gHYx6njuUVEYSsp5ApQYMgYgUK0IoZaQhAllPcBDFiKqYjZURAEHp3KubebMI/9C9MrmDySkXDtgUCKsVWShpGwyIB1f71+u8PuPsXTixpKK1bmYfjMp37d3ssbEmBHyR09RlId+xaQPeL9isi/cJm0mRJsLrOiNorZF2uxXPPoG9evwAz3XYMaWNv/N0I3ph9lWwiumYnPfArdp+lo75Uv9m+Sfn3hJ1vYtzb2q8EJJ6QO1JuW08UJLOvvkfz/676QrFZJQwFYiHArbn0t/b3Cf/HJwp0wnZ6S9pfwhgaTdiLqRkAlD8c5Ih3x10e1KyhJQUvpAzUmZjMqqrn75t+f+k/S2tBlPFKz4jt+xHItPytvn9sj/PPa6eT4lHaHyX7BTjJRxQ8ouJWVZaE7ZAGD33GaNt4gpLEBnyBDcKHtbKBKo0h5uNaXNlEjFimK/C2gebUgFEUrKaoDi2cJN/PIFNXUnb2aVXHPAXucp2ezNT6ENk8t52shSo9C1xYppwxRvG35g63Dbxmc9xWwoKauBISSeDq9QSfGrpNBpJhWTKRPeVlImEzMST6dsPQcoBkFi6XjBOoUKv4bFj/1UAwhJXaXj3KE5pQ94c8rulrC0zjGnjBrireteLK9u/y/SKRFLJG66j8Qm5P8de0smElFJVUCSaCohT6zYIg+vuEv623utIYiY8PPQ8CnZc/m4nJu4nLuyNPrauuXB5XfI/Us2S4cJW8kpJxLTJqfcLf/t8CsyUiSnxECRR5aD5pSVQUnpA40i5dmpK/Ifdv6LXIxNWg9YDGwMdZrrpwxxfnzbs/LihidkVc9ie/Kn1ZDyncG98m9nPpL3DTnLIpOSlYbQ/7jpGXl+3SPS09plXy5HSgwAXrISNVJSVgYNXwOIhCHIBeMtL0XH5Yp5HIpPFixX4hOGuBMyGB21Bwz4WT4v4smEXDXEPhcdK1jfWy7ExuW8uS6ahDqV2enshlVlhFRUDiVlNWiQEuKJO0Nh6TJer1DpNMWeLzVk5FeZ8Y6FAFkL1fcW+wO4FB9IKSHrAiWlbxglzHCKpr7KiK6j8HZHs0zhYq7NJ4h5xf7j/UL1vCVD8OwjHK/v7G9tKCkDCMMRSaSTMpWOyVhqRkaT0yVLMjEhUZP7RdOJXAtZxFIJiSWjkjSlUD1vmUrMGNcXy9UsDcifNPm1esn6QDd6fCC70XNCtr/+X6U73G7Cy7n92GLhjZ4WuWpyvJdPvGPyRA6mlV+epCHkkyvvk4eW3ik9Zlz4vYgJZ/cNnZS9V0+ZXHGkAi+YkQWRDtm26HbZsmSjPThgKs3a6LkanbCHChhRNWqjGz2VQUnpA40gJbchkpmUDE5dyV5UAbht0t+5QBa0dtn6AHKPx6dl3JAqWeGh9bCZT69po7e10+4C89ErLymHouNmzv7yTi+UlJVBSekDjSAlgFj5HxAuB5sXclAh9zcI54jlF+7D1BBTSdl4aE4ZUHD/jxvylRXuZWZuICDUqrydlL1WLXTzoZ7SBxqTU4ZkKjkjfz+3xzzG7W2HckiY67Ys2SR3LFonvcYTZU/0hOXE2KCcHBmw9yrLIW1I2RGOyBeW3CYbFqy0t1jyT/Sop2wMlJQ+0AhSRiIRuRAblf+441/lUnRM4ixPmRA0Ex2V729+Vl7Y+ISs6Oq/dqLnrXOfyKtnd8mn4wMmli39kauMyTuXt3XJDzc8JU+tfVC6I532dSVl46HhawDBruuRyYtyZOKiHDWPx8qUAxMX7I5tvn2dScZkIDos+yfOF6znLfR3dGpIRuNT1tMqmgclZcCQTqUllcjeb+T2Q7cpPaHWkiVkvE9bpN1e7wV/t4baJBRuK1jPW9pN8XuiR1EfKCkDievhaqW5RenrKmgFL5up7mNbitpCSRkwhCNhCbdHbP46ZXLO8eSMjCSmSpZUfEJiJvfjG++84O9oMiopUwrV85apVNS46Tp+CZeiYuhGjw80YqMnHA7Lldi4/J/9f5RpTvRUkN/FTT757OqH7KmexR19Nrdko2fnpcPy3sX9cnrysg1vS4EDCL2RNnl2xf2ybcU90mWe47F1o6fxUFL6QCNIyW2IeDohx0cHTNBZ2dLEDXmXdvXL0s7+7Kc9DDg4cDk6KlemR+yGT1uZ3Vd2bOl7SddCWW7acQcPlJSNh5LSBxpBSgA5WsP+lD/72cbs5xsd+IpIyOUXCTNPPdHTPGhOGVBUErZ64T6C5QX21q/N9duvovZQT+kDDQlfTcjIBs2BoVP241uVLE/MhKere5fJ6p5lxhNlc0dO9FwyoevFqWEZNzlnJSAPXdyxQNb1Lbf19URPc6Ck9IFGkDJiwtaL8VH577tfltH4tP3ESDkkDen+Yf3jsn3tI7Ksc6H1mBDswwsH5M3BvXJwYsCsdJmxmjqL27rlhVVb5ck190u3IQ9QUjYeGr4GDYaZ/JzBjqsn5b2ho6Yck/eHjpcs714+LAPTV+1XSnoPpQ8bEu0fPSNvXT4q714pXf525bDp84QMx8YlpfcrmwolZcCQPdGTNJ4uLB2hNvuhZQ6Zlyqh1i5pN4/5O6yc6Gkz9TnRw7ewlyp8Q7u5MFdT0UwoKRWKgEFJWSUIFfN3O2sBDg9E2rhxLzKTjsu4CWXHypRUYkqiiRn7nTxe2O/oMW2kM0mZMiFpqRLjM5l6oicQUFJWCQhZ6c19P2DfrbMlIlv71skTizaZslEe799Qsjy2+A5Z3bXkhnubfe3dcnfvSnl60WZ50rRTqjy1eLNsW7hRFpg63J80I8k2omg4dPfVB7y7r+1Cvhap6ua8Q6HdV75bZyoZkx3nD9iTOsYfZy8uAW6h3NW/XjYvXCOdJn/kXiMHB85MXJQz4xdlrIIPOQN+qmBt3zLZ2LfK7rLqiZ7mQEnpA40gJeD+YMSEsX7AMmYPEFwnMcTM/9b0SpBMZX8sSE/0NAcavgYQEIKjbn4K37GTfxqHQ+aFri1X6hGWKyqHkrJK8G1z2dyrMuDFII63sFnkQHvurGpQSjVeVjF3aPjqA97wtaulzSpupcD75O/WJtJxWdO1SP71yX8vvZFO014LB2sCAzhJPvrB4D75X6f/JqPm+VxOMWn4WhmUlD6Qn1P6IWUhpNJJWdDWKT/a9LTdoDG+KfdOcDCdjMrxkQH528gpmwNzIrZaKCkrg5LSB2pNSkAeOGU8Jt8mF8zbEC3SEuK7gozRmON8lZSVQUnpA/UgJbAbK0FeBhPH8m+uUFJWhuDFS7cgrMobgge21ICQisqhpFQoAgYlpUIRMCgpFYqAQUlZDVJB3SlV3AxQUvoGZFRCKuoHJaVCETAoKRWKgEFJqVAEDEpKhSJgUFL6RouRmn7rm6J+UFL6AB+tag+3SW9rt2RaQpLWXVh/yGSk1chteecC+xWaisJQUvoAH0Lua+2Su3tW2jOhSf3dDX8wpOyOtMpDSzZLp3lUFIaS0icWRjrlxWUPy2K+vDit3yTuC8aI9bV2yNPrH5FuY9wUhaGk9IkFnT3ynXufkQd610untEoso9+VWgliqZjc2bNCfrD6CVnY1WO//kRRGPp5yirx9um98n8P/VX+dmm/TEjMmLfsFygrvDCqRYifScl9vevk2+u2yT/c9rhsXrw6976iEJSUc8DrJ3bJnz/fJYcmB+TC9IRMJqL2F5EVWWR/Wq9H1nb3y/ZVD8hX1j4gdy5dl3tXUQxKyjni0sSw7D5/WHacOyiDU8MmTNNw1qGntVO2LN4oX15/n2xavEp6OjSPrARKyjkC8aVMiMZXRvJchXkdfBse3+sTaQlLKFSbrxS5FaCkVCgCBt0CUygCBiWlQhEwKCkVioBBSalQBAxKSoUiYFBSKhQBg5JSoQgYlJQKRcCgpFQoAgYlpUIRMCgpFYqAQUmpUAQMSkqFImBQUioUAYOSUqEIGJSUCkXAENgPOU9PT9sSi8UkkUhIKpWSlpYWCYVCEolEpKOjQ7q7u6W9vd2+drOA5WC+MzMz9m/m197WJi367W+3DAJHSoYDAQ8fPmzL559/LlevXrVKGg6HLSEXLVokmzdvlvvuu0/Wrl0rXV1dlrA3A+LxuJ3vgQMHrCxuM/Ncs2aNtBly1hP05VTByfJmkel8Q6BIiWeEhH/5y19kfHzcKigEpSSTyVmesrW11f69YcMGeeKJJ+TOO+/MtTK/MTY2JgcPHpTf/va3liTf+ta35PHHH7eRQb2ArC9fvmyNATJdsGCBrFy5Uvr6+nJXXAdenOiF6zo7O2+qKCUoCAwpUYpDhw7Jvn37ZHBwUKLRqFXExYsXy5IlS6Snp0fS6bRMTU3J0NCQXLlyxSoIr99+++2ydetWuffee3OtzV+Mjo7Kp59+Kr/5zW/s39/5znfkS1/6kiVALZFJZ6zR2/XxLjlz5oztF5kjY/pCruvWrZO77rpLVq++/j2tXPvJJ5/IhQsX5Otf/7p9jxBbUTsEwsxNTExYQu7evVtOnz5tFWPjxo2WaI8++uis8sUvftE+8h4KgaXGrtxMoRZzaTN5JNFAvTzR5NSk7Nq1U3bu3CmfffaZJRnpAYYQz0nqsGPHDrsmGEwiFYAnP3LkiH0dz+peDypIexjnpUuXrEFHt4KOQJDy1KlT1zwk+eGyZctsyPbVr35VnnrqKbnnnnus1SZU/cIXviBPP/20vPDCC5aYd999t2zbts2+rqgMEAklfeXVVy3hiEbuv/9+K9ft27dbeWIUUWKIuXfvXptaAAwGxmK+hK7Dw8PW4OPdia6CbkRAIKT697//Xc6dO2cXmx3Vl156SR566CGb2xQD4dWzzz4r3//+92XLli25VxWVAG9HRIIXQY5f+9rX5Lvf/a48+OCDNlx97rnnbC6LoSNVeOutt2RycjJXe36B8e/Zs0feffddS0r2J4KOppKSHAaBYZHJD8kdsdZsMBBKlQNW+2YKWxsFyEgOCTZt2iT9/f2zZMnj0qVL5cknn5Sf/vSn8rOf/cyuzXwFHp10YL4g/M8GuecNB9b3zTfftCEGgkNB2EnFW9aabOQVeGNCZcrFixetx3ALVioUw2AQ5rEzjIehPlaXjRKMR7mNDvo5f/68nDx5Uk6cOHEtjKJP1zbX0BY5D6ElOR3AcxG6E0U4EEoy/uPHj9v2yAfJA2mP8L8cuHZgYMAWCEn73GbygrHQFq9DUGckGSt9QmqiGciKcUW2bALhmfBGXO8dcz6oj0xIWZAHf7M3wM6666sQuIb5UhcZoDv0Tzjt6mWMDBNmbSaNsad9rsUQrV+/3uoWsqcd7/jcBiLzQC48Z21os9GEbhop2f0bHRm1tz+Y/MKFC+0uKiFTrQjJ4kxPTcuxY8eskrNBgSJDLhbWKoMZQzwRtxsckMvbN4vHoh85fEQOHT4kR48etcSivlMIt3nA+AuNGwLTL/2jzNSHdCMjI5YcGAtyHpSnt7fXEqEUKRk34+A+Jo+0j9IxF4jNmBkLBC0mR64ZHxuXI0ePXNttZf704VXUQgoJKZkDfbHbzSYdY2U8zI+xMCcMFm3mGwnIwXXMGbkwfkcE6qEL9Jm/28xtGOZIPW4ZsY4YAeoxJsYBoVnDtDEKly9dlr2f7rVrxToxHmTC87Nnz1rDgUFBRozZrRG6wvxYD8aDAUQOhW4P1QtNIyWKcdVYo/c/eN/+vWLFCrnttttmbb87YNW4HmuK8BEUZChU8L4oFoLkupMnT8mrr71qlYbFQyloi3ZQ/hMns57LbTBRj4Vi0VA8wmu8OYtF/ywuigOpnHegTw4xeD0ufXDNG2+8Ibt27bLXMh7XN4qB13UKgXJhyfFKhUjJuOjn/ffftwWlZL6MkzlhJFwEsGrVKusRUNJCaDPy4bc9DhoFpw2nfIzfzZ3fAClEbGRIP4yFNeP2DZsojogoPUrNdbTH2F0beDTm/ec//9nu+HIN7WCcWAOMDPUhFoRxBoLxIBN2fP/whz/YOVIHOdIvbUJUxovnD5t5nzZkpB/ki8zRIfqDpMiWPu68/Q6JxWM23/zggw/svJAH42StHelZb+aBPPPlUQ80jZRYvotG0Cg94GY1O34QIx8sCov261//Wt5++22rBCh6fmF7H4XdsH6D9BtvcdQQiZvwLDyLgrVDuHhkNjhYWF5nIVhYdnedMkNIFOeVV16x1/Aau5Ts9nIdC40SUrgWgjF+2gUoy69+9atri4rlhyxsSuERmT9kYm4QjvbZZUYZC5ESRfnwww/tPFFGxrl8+XJ7qokTP/TBPCgYINdPIaC8jAcjgJISqjHO/fv3W7JDUN7HUIUjs0NJFJu5Mn7qAjaIvvGNb9jdcJSd+syBcbKrC7lQZowPRop6ePPHHntMnnnmGXnggQesMYaQjqi0w7wA8mVt//rXv9qxszvM3gO3xpA53p66jCtk+uG0F8R0nt+Rkj5YO9bhjjvukCVLl1hDgE4xH6I05vHlL3/ZplLUw2NSMDDoKI/1RvPCVyMkhP/xxx9bQUNGFqEYKVG2jz76yHof6qKEriA8FobrUN6tDz4k00bhDx46aBWA61FSbsI/8sgjdiFZOMgJqSAQ1xAashgoM9aexeJ9SMP9URYLUqLMLCpKiwI6D87Y2TFmgd19V8aGF6U+t3don+I8CMbAeTQIWIiUKBHE+eMf/2jHg0KjyM8//7ydB23Rt5sDfWKAGEt++OiAzO0BATO2/v5FVnbMAzlDDCKDi6YtxsaYHHgP2WDQaBuZMjc8PH2iuPTP+8gBQ4b3Qk4YC4jP+L/97W/b8Je2GSePGw1hxkbHbFQRi8bkXkMSZP/x7o/tbRnGzI47a4iuUI+cl/mjB5A3mUhKlzFYyJixUAfCMhaMgNthRqbUYUx4RHSBdqmHwWMuGD1HZAwOr9NevdG03VcW21rinJdAaHiOQkAQ5CccpYNcPLqCdUMxWXiIacMLUwhbUHj+hmR4FIhEyIWiIHDCZdpzi4qlRfkpKDcKSJtcgwKxOCgPisBiscCMgfFBCLwMHp36eAXAuOkXj4EiUBcCMWYIDmHpg/rF4MJTp+go0MMPP2znAjA89E2/tMM1vAbJioEx4w03GAO19eGtVtnxEtwfRj4Yv/1GYfHO3EP2rg19QDzkhxIjE5eTO5JAUmTqIgW8Dc9ZD+pBGNbdRRtg+fIVsnrNatvW8PBVG0lNTU9dy1MhM2sBOeifeWJM0CNkjA6MjI7YvmiDeUAu+qFfjBCvIX90Ahk4z4cxgtQYD/YivJENa2fDYqOrjUDTSIlAWEQnNBQOpULI+eBaBI8isk3vPeGD9SPsQ2iAcIX2WBzaQ+hYVRSFvrzgWrzm+hwpKSgyhEQpGQsKw8JAQtr1gsWFqCgi72HhWVjmAilQBJSTvr3eBqA0LDoEQ8FKkZKIAgPBeFEMFAsQXhM9vPfeeza8w8NCVOTBI32UA+NmHhgtQkLCSWSKEaI+Hvudd96x88J4AEdKIgaIkg88GLJGfkQQ1GNseCz6Q87kohxMIJejQP7dn+y2cme94+aa8xfO27+ZP21RDy/NXF09VxcislaQClml8mTK83zdQv+coUVXnDyJcMhRaZN6zKeRaBopAYSBFFnLOGwt4sRYNs/zAuXGcmFhURZvwVMhNOq46zo6O6zSEMrSB8rDAhRCXy9h3kKrOFzLokIqPIOzjBC+WBiI9cXqOwXEelNogzHgkYvldozVeZT8OXvBWJyyMleUjtCa87Gvv/76Nc/APDFUP/zhD+Wb3/zmtZysGBzJHCAMBoacDa/JLQ/G5TZlnEfjNeaLx8JQ5AO55XsVPBFyQSaEsK+99prN1xk/hU2Z3//+9/Y95ku71EEv6Je585xruNbVc4VcFRlRj+sT8QQDzfVeGMgfD0sqgHEhjCVvfdnI9Xe/+519zniIfsoZzlqiqaSEKISACJJFvjp0VXbv+eQGi1YOhKlYUNrBKxUj4M0AFBYvA1EgFR4RD/fSSy/JT37yE+vlKsl9kDFKX0zWkB8vQsEgEdqXCocrAX3R1le+8hWbU7744os3FI5PYlA4VYQRxlAyT4wOueD3vve9gvUo1ON0EtFUuzHMlXwGFeOB/H7wgx9cO8VE5ICBJd/805/+ZDcLIaZfvawWTfeU5CQIAas1OjZqE3oUjpClEhC+QEgsGZ4S6473YhFpE6uJQuE1C4E+KTZkMtei0FhNlMctgttJLAReJ1cChGz0i1GgDYwEoTBesxBcqIUcGHsxMBY8GB6VeeK52XjgaBzHDPGOeGvmS5+l2gLIA0X75S9/aXO1QkAetIeXpz3n5aqFWxPawnAS5eCh8gv5G4V820UZEIe+8eSQhvdL1YXM5WTgBfInYiGE55MvyPTHP/qx3cBiTQltCWtZr0agqaRk4VksFAylYuFREnIE9/EgFDEfvIYyc/uD63iOApH3uXDYJfQQjfAORSQv8oL3IDT3p1BmFgeFdxsyKAEEI4QZODdg8pTZlpLxuXZRGpQNMuJlGAekZkHJLyG2F3g8yMyWPEpXSol6CZGNR3ThJuPEQ6LYGDXmymvIDqNGzoVXK2bZMSSMm7mziVOMmBgyDAr9Yhjoo1owRmRKm07eyCm/OHkhU9YUebqNHcaCjvC3t47LXwk/SYHyw3IH1tsbgrIGbMiRCrCWtMvaswl3zz13y8NGL1lTyIisCuliPdDUY3YOzguwEIRULAyKwwJSeJ2/UTQI6JQZ5eNvBE3+xEYQSuqUnDqEtiwGi8Z1LBhtkn/wHvdJUQKUBCJhIEj8uQYiMR76DRsDEg6HJGGUw3k4FJpF5RoITNhEXocC0xdjZF4UlIpxMRbao2/CIxabuoy32C0RxhUJR+TU6VO2PkBh6Ye/3XiowyYFtzNQVOe58+FyNXZ0UUz6h3CMAUPJ++5mPoWxc/wRw8nY84/Z5ZPVyR1FxzC620esI8TBCLDmGDz6Q1aQjXmzpsyD9XLhK/rAeOiTsTJ3HqmLbCEr0RVz5zl9Qlbg9iroEweA90UH6JM1JhUg2vIannDI5MPGRs6Y9zHoFOqSanFNvREIUiJgFpwJQxCEzcKyzY+wUTJ2NnlE8NzbRDGccPEaKAiK4zwOYQ/KhBLwyKI6S8pCcR+RT6ew4PSHApPnsKBOSVl8FIQ2UbJTxruw6CgzygMhGSfXQUZ3O8GFzowZ0mAAeE4bhOW0SX1e41rmkU9Kdv8AG1nrTV7Xbq5DiVEQlBuFpx365zmHCpAViksfzIm5uF1pL1Aw5MP11He3WzBMyBMvSrTCGJAdcyLvgkiQH9kzp2KkpC3miqwZA3OgDYhHX8iftWDeyBpy0C67vMh0POclCUkBesE19ItOICvqUR+yUYdNGYw164hhdvOG3Kw9c2KtmTdjpy59IGvWAb1DFvQVMoxEhugZbTM/wml2yhuxXxEIUgK8CAuMYrIACJBFdJYUIVF4jb8RKsB6oTDctmChvECJ8DIIHeuPVaUNlJj2nfeEUHyOkLDF5WQsBAtMG9THo1CfBba7xGYBeY1FYsHYaCDUYrwAsvE6yobiMCcKfdMG3g2lQHloiz65HhlwDcaH/njNbbZg5RkfSu0Ui3kwHoiAAWDcbPZw0IFQzI3HC16jPWTjZMEjJIfcGCz+RjYoOLkr42KNUGLep092aSFdPikxDBhQwlTkxy0a+mOuzIHogPFDBDwVys8jfdLWI49sM+vxvHSaOgA5YUgYN3WRH1EGho1IB7KyrkQ5HGZgzG7e1EXWGDPWAXLSF7KCZFyLkeM91hlDtJPTYbt22mvRN+4ls77MgXWqNwL3xVlO8YdMuZRTaJQQUgGUHeVHGfCuLldB+IWA8BG2C0Noz5GJ5H6FUZLVq9fIqtWr7MJ7AWlZ7LPGqmP5GQ8EYqHIP+ifsBnlJ58ttGCub+rjJSAmiwvRIL0L2VB4vvqDzQYUntwQbDEKvWnTZuMpsxYaZeZ9vAJKDOkBHoD5uJwImUDgYoDQzMONjfac8aAtSMicyKl4dCkBc4C8EPnRLz5qSdbWPpuUKDnkoV2X+yIvgOx5HU+JbJgPcmY9kCeGYv06zgAvkZDp04FxoQcQmbEyDnSCOaID1EOm6AXy9cKFzRTaYN4YYufpacu9z3rQLuOhXdYXedJ2oxDYr5jkuBSE4BAARMDaASwpSoPAsLyVWi48CUqHFYeoLCbkpp0eozCclSwGxjI8MmzrMw4MB0aAupRiBgEwdkJAHjE2ri4KiILiEbmJjtKyJU/IhgKiSKCnu8e+5z2DSnvMh/ZQauA8ESXfuJQDfdEWj258yIa2MBxeMDaUFhkuNHkbYXW+N6YN5OSMH21AagdUjnFjUFhjSMm6IktIkk8qBwwJ/VIPcjEWoiPad+mPtx8vGBN1WAf6Q6bM0cmKcfA+42LcTs8guctPG4XAknI+AwVg8VEePAqehuIN81Aw8hV2/rDQWGTuzRGGK25tNPWWyM0KrC6bKL/4xS/k5ZdftjkTBMXK4+UcaQlDyVuwi4Sd+V5JcWtCPWUdQHhEvvTzn//chnaEyoRXbGIRDhF6cquBawjzKP/003+ytw44Iqi4taGkrBPIu/CWHHDAS5L7kJuQr+EpyW3JXchp2MV8/LHHTQ63UH+eQKGkrBcQK7t8bOSwEwkx8ZDkknhPyMhGA7kkx+QgbP4tHcWtCSVlA8AtAIjJdjs5JeTjlgXb8txyKLV7q7j1oKRUKAIGTWAUioBBSalQBAxKSoUiYFBSKhQBg5JSoQgYlJQKRcCgpFQoAgYlpUIRKIj8fwgzukLzn4ARAAAAAElFTkSuQmCC;" parent="1" vertex="1">
          <mxGeometry x="-638" y="-784" width="89.57" height="72.37" as="geometry" />
        </mxCell>
        <mxCell id="TaVSvGBADPzD679VYjAK-148" value="" style="rounded=0;whiteSpace=wrap;html=1;fillColor=#000000;strokeColor=#FFFFFF;gradientColor=none;fontColor=#FFFFFF;dashed=1;strokeWidth=2;" parent="1" vertex="1">
          <mxGeometry x="-1350" y="813" width="1000" height="101" as="geometry" />
        </mxCell>
        <mxCell id="TaVSvGBADPzD679VYjAK-171" value="" style="rounded=0;whiteSpace=wrap;html=1;fontSize=20;opacity=10;fontColor=#FFFFFF;gradientColor=#B3B3B3;strokeColor=none;" parent="1" vertex="1">
          <mxGeometry x="-1320" y="684" width="780" height="140" as="geometry" />
        </mxCell>
        <mxCell id="TaVSvGBADPzD679VYjAK-183" value="" style="rounded=0;whiteSpace=wrap;html=1;fontSize=20;fillColor=#f5f5f5;strokeColor=none;align=left;gradientColor=#b3b3b3;opacity=10;fontColor=#FFFFFF;" parent="1" vertex="1">
          <mxGeometry x="-1320" y="399" width="950" height="105" as="geometry" />
        </mxCell>
        <mxCell id="TaVSvGBADPzD679VYjAK-202" value="" style="endArrow=classic;html=1;rounded=0;fontColor=#FFFFFF;strokeColor=#FFFFFF;entryX=0.5;entryY=0;entryDx=0;entryDy=0;strokeWidth=2;" parent="1" edge="1">
          <mxGeometry width="50" height="50" relative="1" as="geometry">
            <mxPoint x="-1220" y="378" as="sourcePoint" />
            <mxPoint x="-1220" y="418.0000000000002" as="targetPoint" />
            <Array as="points" />
          </mxGeometry>
        </mxCell>
        <mxCell id="TaVSvGBADPzD679VYjAK-231" value="&lt;b style=&quot;border-color: var(--border-color); font-family: Helvetica; font-size: 16px; font-style: normal; font-variant-ligatures: normal; font-variant-caps: normal; letter-spacing: normal; orphans: 2; text-align: center; text-indent: 0px; text-transform: none; widows: 2; word-spacing: 0px; -webkit-text-stroke-width: 0px; text-decoration-thickness: initial; text-decoration-style: initial; text-decoration-color: initial;&quot;&gt;&lt;span style=&quot;border-color: var(--border-color); font-size: 16px;&quot;&gt;add&lt;/span&gt;&lt;/b&gt;" style="text;whiteSpace=wrap;html=1;fontSize=16;opacity=80;textOpacity=80;labelBackgroundColor=none;fontColor=#FFB570;" parent="1" vertex="1">
          <mxGeometry x="-1160" y="262" width="30" height="30" as="geometry" />
        </mxCell>
        <mxCell id="TaVSvGBADPzD679VYjAK-234" value="" style="shape=image;verticalLabelPosition=bottom;labelBackgroundColor=default;verticalAlign=top;aspect=fixed;imageAspect=0;image=data:image/png,iVBORw0KGgoAAAANSUhEUgAAASwAAACoCAMAAABt9SM9AAAAkFBMVEX///8XFRYiIiIAAAAfHx8oKCgMDAwQEBAcHBwUFBShoaGcnJwXFxcZGRnr6+sTExNKSkqOjo7CwsL19fVFRUXe3t7i4uLt7e14eHhAQECCgoLS0tLLy8tvb2+pqaldXV1mZmYvLy+EhIS3t7c4ODiurq6SkpJnZ2fPz898entgXl87OztVVVUHAAVEQkNMSUp/aAaiAAAJtklEQVR4nO2ca6OqKhCGSxTsYlZk95vda9Ve///fHVFQUEytdXat3TyfSoH0FYaZAavVAAAAAAAAAAAAAAAAAAAAAAAAAAAAAAAAAAAAAAAAAAAAAAAAAOBvQQWvvpD3hnb6h0XXQhH+dXHod159Te/JqH/+wzTCpB5BMPv6PZ1DF0sxGwcdCtezBIr509mrL++d2HYRIhqleBdDqNt/9SW+C9udtk+p/esL5AqYDQqliuS6Dl99qS+nV0oqxg21Xn2xr8UboJJSMdD3J3euLblV0CpQq/65lutwZwrUg1Hz1Rf9Is5VhiDHRb1XX/ZLWDygVQDavPrCX8CDWn2kWodHtQrU+jS7tU20IuWsvFQMfdac6MW5hTrZGfoQWuaGkLVLqqBP8rfon9i/Qhs68pYrdG9UInTZDykdx2Vu36++g79IL5EGRekXb4yEfi7B+IaTrofQ2QvL9KVanxP5zKRuhMRB74IwjlKk39fLdeCHn4NDRzHmRmYsoIu8wl+h822rt9kcmtv+bx613cREYWlA9a0/h62X5EWpt+19+fOkwCSph1b3f2K0HIRZV9eNEq7X5ajctdGZx5jJ6VnqZY/p6ETlip9jBbZyxzpXqLiWIsm7MyI9EGQbMjaK+2Jnu79zOy2+AiAHClN+rMhlafNyP5nY9SVfoVL0MpZUxt38ct4EmUYaxNc+QjUuuf2shcPSRBGrER7DRWJZ0a/iHxRL7ljV3HHF6c/vWifHyUhlmFZ0shXqSAZ5ld9MLF92qtCiQs2VnNC5XXNKDR07q5XhRuN9ZEc3hLY5td9LrJniUWG/QtWd4uvnTYhduV+Ztm2akjpzxLWbhl87q4hpXPu9xBqr7icqvyroqX5+jrlrolioYB60JpNdYNyRy01WSiwPOww3GZXvJRZy5Tsu4zAJTmpV4ugKUV/YdtdoibaH/TMftNTkwzCyeF47/GYns8VbidVPdaw826Fjmaqru6i96Fg51nDJDLyJuXZvLpaaHq1k31MWXj8OV9xi4TwHbhmEBs6YD/43F2snGx73Vm3jx1CdHL6yJTpGdMH2JNcWjk7zOPx5b7GGSvaqctJTTa+ibIE+H4Ulh/fQ+Z/EGs36+/38ycBHNVkVrHuE6negU6bAgUQToZ/XsVqXNWMVdi6vyQetdWTH9rViseaLCPEwDtHXM/s9LhY59VdWGJE2Jk8ldVvy3eJcPzqXttIx95nzi2hctXNt4YCEzkIwGw4vFsHCzWizY8zMCbEOUp2NJFYLtRnC2NIdYV/dMB3JxTIs7PBPNto9scNMjViqRNG6+tlRfLULRkzXFq7DNh1Ahr4XF8scLBImpiRWdL4xjpqjk6g9Ioslt+uQx7eXXZVYp3onVXrmLZOnoTvFjarRoUQYPMtiqVopYhlmO4HffGmxFBoFyaQ7DBSxqi887JVhPEmfHvHrFcZwgSTC0mXF0lBFLNOMP2ssazmoEt490IySsiBWRizhZXHnYNxO7tUepMVykpDbZjbrp8SyMfJ3jmioUc2XlG7GV8SaF9e4K1Ym4Bm5KbEa+WKdutdrV5jkK2P5M2LZg+ZwREciSM2fmYvEshSxnhyGdTfTPikvFsNzpFMhPyCWwydAoZb7oJOaEis79RfRVMRqZNrnczYqMQwZwoPPiuXgBLuaWG2ehqWGOttUharD8FBcI0VPGYZm+nRs4Lk1XLAUjP2AWM56vxTsV/ZDYol+Xej550C/lNlwXLkBec2iTjKZQ/rFxeJ9tslMEdenkliqU+o+JpaurSp0ZbHuLTrkYJD79a+REXJld3WGHhArL9ypIlZT01YVLkqSBZdczIvpFCV4eM+3ZRnnrxJr+aRYG/Vuq5o+dTLULOLzh2nIIfrLxGo+OQz3z+T+arVvJQ2vycPMxHQthZ3Pi/WczXrUwNdOqczwM8m/umbnEf3ic58UHbxMrF7k9VVKnSs3Y6jLWdXmw7W6E1yT/KttuFtquvFAvCdW5JdVF6tdRiw+2+DqgQqnm1rPquLdphY7bhdNGc+NU0kt3m2Le5ZpxPVLiuXwXIJGLNPh4U2HZ3vshzfxtNQbxlb5wKljpYRe6kqNedcKbo5cz5vNeb0zc8XqCOc8tsFFYvEZzmiEY2t44L+lhDuH8CnRNX8Su4oSJXipLX4obxU+A72mq2oNXsdIVu/thus24qylRqyaWGXEg/F4wSbXIrFEkt9sr6fjlS0iSSXrgBvX8Xnh87i0Ud31jvFJWq1yzlanm9Iqz6Xtp/NUQjmdWBex1m+3G+hYKxarY4tEldOIn0M6n2U67YZIGRoP5FZiUuMwUMsv421tjUw97SisMfdEl7HUiyUrGybui8SqHRuZljNiZX/2QSi/6TB5GXURtC5a5ZldM6/5uPm7JPrYzV60iXcasWrd5N7LiTVLPYooTpfEIsp5s/IKlsIxlIgtNsw2N8yF+97mG/rR8kuz9/vemiMdY2zL12zaGI/D4T5wTEYsVhDai4JcrPA8lsU6k6hO5FzuUbJNx2yj64q1GCbQLJt9avnSrkPnYScrIjLx+A+tjabeN+9nONCrt/VS5ouOZsvpl36b/P298MPDwEa4wVa42i7GRrfJm16YFsONfVbas1jBdgOHTl+zHZ535Eiq54TH2nzcn7oEuaxhgox1v7Z0Dcsy2GQzMVjLtNacEOy2A7sVzMfPrk6vQ4FuVvBwT/NkBYMtS6ZsNmVblvUvFBS7s8N+67y4rFbHc1P+e4hOiPxUKCu4ODej/0SIzisTLU0f85bn42q16EXtDkV7NG7Z208X6+N5+fxCvidMVbM2W1JpHxGpp52BTtqqx0Xxw57eL0OkHth4bkr7iDSZ07x3Eh9Isv5SRCaeOJ3aykv00JihmV4svPucvxERQV64fj8/R2bJRToF9GI94+j9OqZCrU7gd81PV2bc62udAl3tTPhR7/5S/hcF7K5pbXYYnraz0VJns4+a9/PTk+a/ztDk7ijzb4dT6qF5Z6XzdTVvB2Ojaur+t3OK4hds8O6UlzLNioXxj75J9CvoRw4WNu/HAxmxyEcZdwFXi6DBMuoqns7fTdss/JFasXQv5vePiGnZRLvWkxIL3x7d7fTb8SwxxlxCiD7cU9cokP8pUU6W0Up+w6RQLBetP8dx19BCiRjaYSiJhW6f9u8XabxunAO9LxZGWj/sw9hbXC6tWHwnCUH+cynHfwXaqodyacUK323CyG5+tLWSoUv2L6Voqjm1QOyfSqvvp/ynmU197VTXWfkb+E9XAAAAAAAAAAAAAAAAAAAAAAAAAAAAAAAAAAAAAAAAAAAAAAAAAAAAAAD+Zf4DnIOyIcvCVlYAAAAASUVORK5CYII=;fontColor=#FFFFFF;" parent="1" vertex="1">
          <mxGeometry x="-458" y="298" width="71.34" height="40" as="geometry" />
        </mxCell>
        <mxCell id="TaVSvGBADPzD679VYjAK-235" value="" style="shape=image;verticalLabelPosition=bottom;labelBackgroundColor=default;verticalAlign=top;aspect=fixed;imageAspect=0;image=data:image/png,iVBORw0KGgoAAAANSUhEUgAAAOUAAAC5CAYAAADXhfiaAAAAAXNSR0IArs4c6QAAAARnQU1BAACxjwv8YQUAAAAJcEhZcwAAEnQAABJ0Ad5mH3gAACf9SURBVHhe7Z1XjFzXtaZXV1XnQDZzjsq0IiVayZIsS3SCfA1DBmwDDroD+D55MI8z8zJ3ZjCYx8HAA/jhAr4DA4aMsa9hW5IFS5YsK1GkKFJizhTJbsZm51C5Zn+7apOni5VOdYXT5PqJzaquOjutvf4V9tlV1ZIxEIVCERiEco8KhSIgUFIqFAGDklKhCBiUlApFwKCkVCgCBiWlQhEwKCkVioBBSalQBAxKSoUiYFBSKhQBg5JSoQgYlJQKRcCgpFQoAgb9lEgNkMqkZSI+LTPJuKTS6dyrwUaoJSRdrW3S29YlYfNcERwoKeeAeCopw9EJOTt5WU6OX7LETKZTkjH/ysFeUWPRF2uN15Oz3s1Ieygim7qXydblt8uijl6JhMK59xTNhpKySiQM+QYmh+TDC4fktdMfy97RM0bVM9ZrpisQabrC62aj+PXJEu3x+pSkcn9hC9LSH26X7Uvulh/d+zW5b8lGWdjebb2novlQUlaJY6OD8i+H35C3BvdJLJXIvepoU16kEKUSj+rAKkH44jAXFGmOl/HfDiljUHoi7fLc8i2yefFa2bb8Drln4Vrp7+jJXaFoJtQ0+gQ54/jMlCXkB5cOy3QyNstDtdhSh3+m4WzbxQrXFC4hU8Kewt+h3PXxdFIODp+TT6+elhETiiuaDyWlT0wnorJjYL/svnxchmYm7CYJSj6fMZGcMTnxRdk3fEbGYibQLemRFfWGktInxuPT8srnH9lNnflORoewUYOxxLT1mIdHBywx2bBSNAdKSp+YSMXk3ZFTMmPCvpvpVgLEjKYT8s6Fg3Ji/IJMJmZMHlskSVXUFUpKH0gYIk4bZSWPvBlDPPJMbpV8dOmYHBg5K2Pxqdw7ikZCSekDOA42ddI+dk0Lwe/OayPRYv4lMyk5PDIo+66ekdHYZO4dRaOgpGwKgh0Whsy/cZNjHh+7IAeG8ZjTuvnTQCgpG4xqfCTXNzq9I8ccTUzZHVnuybKxpcRsDJSUDQS88t7TrBScwCGkbDTs5k8qIW+d329vmUwmolWYFIVfKCnnBbI3+6uBNQRzIBL9toUisuPiUTloQtnx2HTuHUW9oKRsEGzY2ugYtEaAmLFMUg6PDMj+3AEDRf2gpGwAsoTMPvoFRK6mXq3hcsxjY+fl4Mg5e4hCc8z6QElZR0AlW6okJLCUDIiHhZgj8Sn57OppOTF2QSbjM0rMOkBJWSdAo+zHs8jogkGqWgBizqQS8sbAZ3Jq4pJMJ2K5dxS1gpKyxsCrOTLOFXihanZrHayXrYNBsJs/4ezmzyFO/miOWVMoKX2CzyVOGk/hPlR8Q6klDQLsYCHmTDpuSDlgyjklZg2hpPQJPGE0kzJezPmh2f9qBQg+F1bOrXZlIJQdjk3KkdFBOTI2KBOJGTNuzTHnCiVlAOFC4LmQqpYGohT4pMxwfFL2XDklp3IHDJSYc4OSMmDAQ863Hc3syZ+43fw5zeZPUjd/5gIlZYAAITlSN1fM9VMs1YBPl+A1+dgXhww4xK6oDkrKgMARsvF0qh3Y/JlMRu3mz5HRAXvAQOEfSsoAwJ7aaSAh8Wr0NZOIW2NQSxDKXomOyxFDTE7/TNkccz6bmsZDSdlkQEhyyFqpbSXt8N1CbARdnL5qv02h1oiYMHYoNiG7L5/IHjAw3lOJWTmUlE2EI2StgNpXsuvKV0vGUknZPzJoT+fUA9mTP3F5k5M/47r54wdKyiaAWwZ8f2wtbx1USkiHTItIvCUtA5cHZXy6Xt/3mv242c7Lx+Wo5pgVQ0nZIEAYSJgt/OWHQqXhl5AAukQiETk6eUFODQ/K2NR49o0agj7Y/GEnls2fo6PGAMRnsm8qikJJWUdkN3CuF8hYj9yqGnoTwraGwjKYHJfDY4NybOisXBwdklgsZsdaS5BjXpoZtbdKTo5fuOFb5RWzob8l4gP8ytaeoZOy/S//QxZHOuzXMRYDYm3UIYC5bBMRRvPFy93JsKxtWSD3LtskCxYusF601kAefW1d8tya++T2RWukM9KWe0fhhZLSB7ykXBhulw5DSreT2azfpayWkPljbjHNhJMi7ZNpaZk2JVV7taDF3vZOeXjlJvnP33hJVi9cln1DMQsavlYNQtK0tf7pdOPtGj1WTUhjh/PHzMZPMpKR6S6Rqe6UTLYnZSqSqGmZNiUaTki8ZfavZSpmQ0k5B6BYKHg1Od1ckO2t+j7tuAvVx+u3hyTT3SrSHZFMR1hM4lm70kYJSyhiHrMbs4oCMNJRzD9UbwayNcvUNgTKtBtCQqJQjj3ZrdQ5lYxpK6M/GF0WiEsxj0DIWi0hQcU7wBDTeMo0xDSEzEQg1NzKdW1TN1kKSsp5hLkexrPH+fzs64WNenQaYuI1a8Uj007aRMeK4lBSBhxQCN84F/9ITd+EBBDRQ0zr7WoBdZQloaQMMK4TMvu8epg2/BLSAQKxMUM4SylFTPLPSoqiJJSUAYUjZC1QLR+9aMFjOmJCLLjlLeY1b/5YtCgpy0JJGVDUipDZjZ3aHGywxGwLmVDWENN4z1nFEE5RGygpAwSIyGbOXDd0HNwB+FqiJRSSltawpNiNVR7WBUrKAAAyZv/VDpCx6jyyDDjMHsrll36IybUZ1biyUBE1AVDlesmSsZb0cfcia9nmLBhyWY/JBpCHmBCudMnmlCHNK0vCiErRaGSJ6P7VFrXMIcvB5pi5fBLSpc1jqcI1xslmSckTRUEoKesMlyN6S73QSEI6QMwWE8pCukpARJ1MmjHyRFEQSsoqgUo5kjl/x6OXfJRGoRmEdGhpCUkoUtmhVhxkhLBXPWVRKCmrhJduPK9HKFoJIGJ2U6c5hLSw0ajJFS3Zcq+VAHxUShaHkrJGaDQh6S9LSDxkcwzCLEA0Nn9MUS84Nygp5xmueeUcIYOGEDmm3cjJvVAA9tZI7rniRigp5xnSaff1lMFVa4jJrmy6gHYx6njuUVEYSsp5ApQYMgYgUK0IoZaQhAllPcBDFiKqYjZURAEHp3KubebMI/9C9MrmDySkXDtgUCKsVWShpGwyIB1f71+u8PuPsXTixpKK1bmYfjMp37d3ssbEmBHyR09RlId+xaQPeL9isi/cJm0mRJsLrOiNorZF2uxXPPoG9evwAz3XYMaWNv/N0I3ph9lWwiumYnPfArdp+lo75Uv9m+Sfn3hJ1vYtzb2q8EJJ6QO1JuW08UJLOvvkfz/676QrFZJQwFYiHArbn0t/b3Cf/HJwp0wnZ6S9pfwhgaTdiLqRkAlD8c5Ih3x10e1KyhJQUvpAzUmZjMqqrn75t+f+k/S2tBlPFKz4jt+xHItPytvn9sj/PPa6eT4lHaHyX7BTjJRxQ8ouJWVZaE7ZAGD33GaNt4gpLEBnyBDcKHtbKBKo0h5uNaXNlEjFimK/C2gebUgFEUrKaoDi2cJN/PIFNXUnb2aVXHPAXucp2ezNT6ENk8t52shSo9C1xYppwxRvG35g63Dbxmc9xWwoKauBISSeDq9QSfGrpNBpJhWTKRPeVlImEzMST6dsPQcoBkFi6XjBOoUKv4bFj/1UAwhJXaXj3KE5pQ94c8rulrC0zjGnjBrireteLK9u/y/SKRFLJG66j8Qm5P8de0smElFJVUCSaCohT6zYIg+vuEv623utIYiY8PPQ8CnZc/m4nJu4nLuyNPrauuXB5XfI/Us2S4cJW8kpJxLTJqfcLf/t8CsyUiSnxECRR5aD5pSVQUnpA40i5dmpK/Ifdv6LXIxNWg9YDGwMdZrrpwxxfnzbs/LihidkVc9ie/Kn1ZDyncG98m9nPpL3DTnLIpOSlYbQ/7jpGXl+3SPS09plXy5HSgwAXrISNVJSVgYNXwOIhCHIBeMtL0XH5Yp5HIpPFixX4hOGuBMyGB21Bwz4WT4v4smEXDXEPhcdK1jfWy7ExuW8uS6ahDqV2enshlVlhFRUDiVlNWiQEuKJO0Nh6TJer1DpNMWeLzVk5FeZ8Y6FAFkL1fcW+wO4FB9IKSHrAiWlbxglzHCKpr7KiK6j8HZHs0zhYq7NJ4h5xf7j/UL1vCVD8OwjHK/v7G9tKCkDCMMRSaSTMpWOyVhqRkaT0yVLMjEhUZP7RdOJXAtZxFIJiSWjkjSlUD1vmUrMGNcXy9UsDcifNPm1esn6QDd6fCC70XNCtr/+X6U73G7Cy7n92GLhjZ4WuWpyvJdPvGPyRA6mlV+epCHkkyvvk4eW3ik9Zlz4vYgJZ/cNnZS9V0+ZXHGkAi+YkQWRDtm26HbZsmSjPThgKs3a6LkanbCHChhRNWqjGz2VQUnpA40gJbchkpmUDE5dyV5UAbht0t+5QBa0dtn6AHKPx6dl3JAqWeGh9bCZT69po7e10+4C89ErLymHouNmzv7yTi+UlJVBSekDjSAlgFj5HxAuB5sXclAh9zcI54jlF+7D1BBTSdl4aE4ZUHD/jxvylRXuZWZuICDUqrydlL1WLXTzoZ7SBxqTU4ZkKjkjfz+3xzzG7W2HckiY67Ys2SR3LFonvcYTZU/0hOXE2KCcHBmw9yrLIW1I2RGOyBeW3CYbFqy0t1jyT/Sop2wMlJQ+0AhSRiIRuRAblf+441/lUnRM4ixPmRA0Ex2V729+Vl7Y+ISs6Oq/dqLnrXOfyKtnd8mn4wMmli39kauMyTuXt3XJDzc8JU+tfVC6I532dSVl46HhawDBruuRyYtyZOKiHDWPx8qUAxMX7I5tvn2dScZkIDos+yfOF6znLfR3dGpIRuNT1tMqmgclZcCQTqUllcjeb+T2Q7cpPaHWkiVkvE9bpN1e7wV/t4baJBRuK1jPW9pN8XuiR1EfKCkDievhaqW5RenrKmgFL5up7mNbitpCSRkwhCNhCbdHbP46ZXLO8eSMjCSmSpZUfEJiJvfjG++84O9oMiopUwrV85apVNS46Tp+CZeiYuhGjw80YqMnHA7Lldi4/J/9f5RpTvRUkN/FTT757OqH7KmexR19Nrdko2fnpcPy3sX9cnrysg1vS4EDCL2RNnl2xf2ybcU90mWe47F1o6fxUFL6QCNIyW2IeDohx0cHTNBZ2dLEDXmXdvXL0s7+7Kc9DDg4cDk6KlemR+yGT1uZ3Vd2bOl7SddCWW7acQcPlJSNh5LSBxpBSgA5WsP+lD/72cbs5xsd+IpIyOUXCTNPPdHTPGhOGVBUErZ64T6C5QX21q/N9duvovZQT+kDDQlfTcjIBs2BoVP241uVLE/MhKere5fJ6p5lxhNlc0dO9FwyoevFqWEZNzlnJSAPXdyxQNb1Lbf19URPc6Ck9IFGkDJiwtaL8VH577tfltH4tP3ESDkkDen+Yf3jsn3tI7Ksc6H1mBDswwsH5M3BvXJwYsCsdJmxmjqL27rlhVVb5ck190u3IQ9QUjYeGr4GDYaZ/JzBjqsn5b2ho6Yck/eHjpcs714+LAPTV+1XSnoPpQ8bEu0fPSNvXT4q714pXf525bDp84QMx8YlpfcrmwolZcCQPdGTNJ4uLB2hNvuhZQ6Zlyqh1i5pN4/5O6yc6Gkz9TnRw7ewlyp8Q7u5MFdT0UwoKRWKgEFJWSUIFfN3O2sBDg9E2rhxLzKTjsu4CWXHypRUYkqiiRn7nTxe2O/oMW2kM0mZMiFpqRLjM5l6oicQUFJWCQhZ6c19P2DfrbMlIlv71skTizaZslEe799Qsjy2+A5Z3bXkhnubfe3dcnfvSnl60WZ50rRTqjy1eLNsW7hRFpg63J80I8k2omg4dPfVB7y7r+1Cvhap6ua8Q6HdV75bZyoZkx3nD9iTOsYfZy8uAW6h3NW/XjYvXCOdJn/kXiMHB85MXJQz4xdlrIIPOQN+qmBt3zLZ2LfK7rLqiZ7mQEnpA40gJeD+YMSEsX7AMmYPEFwnMcTM/9b0SpBMZX8sSE/0NAcavgYQEIKjbn4K37GTfxqHQ+aFri1X6hGWKyqHkrJK8G1z2dyrMuDFII63sFnkQHvurGpQSjVeVjF3aPjqA97wtaulzSpupcD75O/WJtJxWdO1SP71yX8vvZFO014LB2sCAzhJPvrB4D75X6f/JqPm+VxOMWn4WhmUlD6Qn1P6IWUhpNJJWdDWKT/a9LTdoDG+KfdOcDCdjMrxkQH528gpmwNzIrZaKCkrg5LSB2pNSkAeOGU8Jt8mF8zbEC3SEuK7gozRmON8lZSVQUnpA/UgJbAbK0FeBhPH8m+uUFJWhuDFS7cgrMobgge21ICQisqhpFQoAgYlpUIRMCgpFYqAQUlZDVJB3SlV3AxQUvoGZFRCKuoHJaVCETAoKRWKgEFJqVAEDEpKhSJgUFL6RouRmn7rm6J+UFL6AB+tag+3SW9rt2RaQpLWXVh/yGSk1chteecC+xWaisJQUvoAH0Lua+2Su3tW2jOhSf3dDX8wpOyOtMpDSzZLp3lUFIaS0icWRjrlxWUPy2K+vDit3yTuC8aI9bV2yNPrH5FuY9wUhaGk9IkFnT3ynXufkQd610untEoso9+VWgliqZjc2bNCfrD6CVnY1WO//kRRGPp5yirx9um98n8P/VX+dmm/TEjMmLfsFygrvDCqRYifScl9vevk2+u2yT/c9rhsXrw6976iEJSUc8DrJ3bJnz/fJYcmB+TC9IRMJqL2F5EVWWR/Wq9H1nb3y/ZVD8hX1j4gdy5dl3tXUQxKyjni0sSw7D5/WHacOyiDU8MmTNNw1qGntVO2LN4oX15/n2xavEp6OjSPrARKyjkC8aVMiMZXRvJchXkdfBse3+sTaQlLKFSbrxS5FaCkVCgCBt0CUygCBiWlQhEwKCkVioBBSalQBAxKSoUiYFBSKhQBg5JSoQgYlJQKRcCgpFQoAgYlpUIRMCgpFYqAQUmpUAQMSkqFImBQUioUAYOSUqEIGJSUCkXAENgPOU9PT9sSi8UkkUhIKpWSlpYWCYVCEolEpKOjQ7q7u6W9vd2+drOA5WC+MzMz9m/m197WJi367W+3DAJHSoYDAQ8fPmzL559/LlevXrVKGg6HLSEXLVokmzdvlvvuu0/Wrl0rXV1dlrA3A+LxuJ3vgQMHrCxuM/Ncs2aNtBly1hP05VTByfJmkel8Q6BIiWeEhH/5y19kfHzcKigEpSSTyVmesrW11f69YcMGeeKJJ+TOO+/MtTK/MTY2JgcPHpTf/va3liTf+ta35PHHH7eRQb2ArC9fvmyNATJdsGCBrFy5Uvr6+nJXXAdenOiF6zo7O2+qKCUoCAwpUYpDhw7Jvn37ZHBwUKLRqFXExYsXy5IlS6Snp0fS6bRMTU3J0NCQXLlyxSoIr99+++2ydetWuffee3OtzV+Mjo7Kp59+Kr/5zW/s39/5znfkS1/6kiVALZFJZ6zR2/XxLjlz5oztF5kjY/pCruvWrZO77rpLVq++/j2tXPvJJ5/IhQsX5Otf/7p9jxBbUTsEwsxNTExYQu7evVtOnz5tFWPjxo2WaI8++uis8sUvftE+8h4KgaXGrtxMoRZzaTN5JNFAvTzR5NSk7Nq1U3bu3CmfffaZJRnpAYYQz0nqsGPHDrsmGEwiFYAnP3LkiH0dz+peDypIexjnpUuXrEFHt4KOQJDy1KlT1zwk+eGyZctsyPbVr35VnnrqKbnnnnus1SZU/cIXviBPP/20vPDCC5aYd999t2zbts2+rqgMEAklfeXVVy3hiEbuv/9+K9ft27dbeWIUUWKIuXfvXptaAAwGxmK+hK7Dw8PW4OPdia6CbkRAIKT697//Xc6dO2cXmx3Vl156SR566CGb2xQD4dWzzz4r3//+92XLli25VxWVAG9HRIIXQY5f+9rX5Lvf/a48+OCDNlx97rnnbC6LoSNVeOutt2RycjJXe36B8e/Zs0feffddS0r2J4KOppKSHAaBYZHJD8kdsdZsMBBKlQNW+2YKWxsFyEgOCTZt2iT9/f2zZMnj0qVL5cknn5Sf/vSn8rOf/cyuzXwFHp10YL4g/M8GuecNB9b3zTfftCEGgkNB2EnFW9aabOQVeGNCZcrFixetx3ALVioUw2AQ5rEzjIehPlaXjRKMR7mNDvo5f/68nDx5Uk6cOHEtjKJP1zbX0BY5D6ElOR3AcxG6E0U4EEoy/uPHj9v2yAfJA2mP8L8cuHZgYMAWCEn73GbygrHQFq9DUGckGSt9QmqiGciKcUW2bALhmfBGXO8dcz6oj0xIWZAHf7M3wM6666sQuIb5UhcZoDv0Tzjt6mWMDBNmbSaNsad9rsUQrV+/3uoWsqcd7/jcBiLzQC48Z21os9GEbhop2f0bHRm1tz+Y/MKFC+0uKiFTrQjJ4kxPTcuxY8eskrNBgSJDLhbWKoMZQzwRtxsckMvbN4vHoh85fEQOHT4kR48etcSivlMIt3nA+AuNGwLTL/2jzNSHdCMjI5YcGAtyHpSnt7fXEqEUKRk34+A+Jo+0j9IxF4jNmBkLBC0mR64ZHxuXI0ePXNttZf704VXUQgoJKZkDfbHbzSYdY2U8zI+xMCcMFm3mGwnIwXXMGbkwfkcE6qEL9Jm/28xtGOZIPW4ZsY4YAeoxJsYBoVnDtDEKly9dlr2f7rVrxToxHmTC87Nnz1rDgUFBRozZrRG6wvxYD8aDAUQOhW4P1QtNIyWKcdVYo/c/eN/+vWLFCrnttttmbb87YNW4HmuK8BEUZChU8L4oFoLkupMnT8mrr71qlYbFQyloi3ZQ/hMns57LbTBRj4Vi0VA8wmu8OYtF/ywuigOpnHegTw4xeD0ufXDNG2+8Ibt27bLXMh7XN4qB13UKgXJhyfFKhUjJuOjn/ffftwWlZL6MkzlhJFwEsGrVKusRUNJCaDPy4bc9DhoFpw2nfIzfzZ3fAClEbGRIP4yFNeP2DZsojogoPUrNdbTH2F0beDTm/ec//9nu+HIN7WCcWAOMDPUhFoRxBoLxIBN2fP/whz/YOVIHOdIvbUJUxovnD5t5nzZkpB/ki8zRIfqDpMiWPu68/Q6JxWM23/zggw/svJAH42StHelZb+aBPPPlUQ80jZRYvotG0Cg94GY1O34QIx8sCov261//Wt5++22rBCh6fmF7H4XdsH6D9BtvcdQQiZvwLDyLgrVDuHhkNjhYWF5nIVhYdnedMkNIFOeVV16x1/Aau5Ts9nIdC40SUrgWgjF+2gUoy69+9atri4rlhyxsSuERmT9kYm4QjvbZZUYZC5ESRfnwww/tPFFGxrl8+XJ7qokTP/TBPCgYINdPIaC8jAcjgJISqjHO/fv3W7JDUN7HUIUjs0NJFJu5Mn7qAjaIvvGNb9jdcJSd+syBcbKrC7lQZowPRop6ePPHHntMnnnmGXnggQesMYaQjqi0w7wA8mVt//rXv9qxszvM3gO3xpA53p66jCtk+uG0F8R0nt+Rkj5YO9bhjjvukCVLl1hDgE4xH6I05vHlL3/ZplLUw2NSMDDoKI/1RvPCVyMkhP/xxx9bQUNGFqEYKVG2jz76yHof6qKEriA8FobrUN6tDz4k00bhDx46aBWA61FSbsI/8sgjdiFZOMgJqSAQ1xAashgoM9aexeJ9SMP9URYLUqLMLCpKiwI6D87Y2TFmgd19V8aGF6U+t3don+I8CMbAeTQIWIiUKBHE+eMf/2jHg0KjyM8//7ydB23Rt5sDfWKAGEt++OiAzO0BATO2/v5FVnbMAzlDDCKDi6YtxsaYHHgP2WDQaBuZMjc8PH2iuPTP+8gBQ4b3Qk4YC4jP+L/97W/b8Je2GSePGw1hxkbHbFQRi8bkXkMSZP/x7o/tbRnGzI47a4iuUI+cl/mjB5A3mUhKlzFYyJixUAfCMhaMgNthRqbUYUx4RHSBdqmHwWMuGD1HZAwOr9NevdG03VcW21rinJdAaHiOQkAQ5CccpYNcPLqCdUMxWXiIacMLUwhbUHj+hmR4FIhEyIWiIHDCZdpzi4qlRfkpKDcKSJtcgwKxOCgPisBiscCMgfFBCLwMHp36eAXAuOkXj4EiUBcCMWYIDmHpg/rF4MJTp+go0MMPP2znAjA89E2/tMM1vAbJioEx4w03GAO19eGtVtnxEtwfRj4Yv/1GYfHO3EP2rg19QDzkhxIjE5eTO5JAUmTqIgW8Dc9ZD+pBGNbdRRtg+fIVsnrNatvW8PBVG0lNTU9dy1MhM2sBOeifeWJM0CNkjA6MjI7YvmiDeUAu+qFfjBCvIX90Ahk4z4cxgtQYD/YivJENa2fDYqOrjUDTSIlAWEQnNBQOpULI+eBaBI8isk3vPeGD9SPsQ2iAcIX2WBzaQ+hYVRSFvrzgWrzm+hwpKSgyhEQpGQsKw8JAQtr1gsWFqCgi72HhWVjmAilQBJSTvr3eBqA0LDoEQ8FKkZKIAgPBeFEMFAsQXhM9vPfeeza8w8NCVOTBI32UA+NmHhgtQkLCSWSKEaI+Hvudd96x88J4AEdKIgaIkg88GLJGfkQQ1GNseCz6Q87kohxMIJejQP7dn+y2cme94+aa8xfO27+ZP21RDy/NXF09VxcislaQClml8mTK83zdQv+coUVXnDyJcMhRaZN6zKeRaBopAYSBFFnLOGwt4sRYNs/zAuXGcmFhURZvwVMhNOq46zo6O6zSEMrSB8rDAhRCXy9h3kKrOFzLokIqPIOzjBC+WBiI9cXqOwXEelNogzHgkYvldozVeZT8OXvBWJyyMleUjtCa87Gvv/76Nc/APDFUP/zhD+Wb3/zmtZysGBzJHCAMBoacDa/JLQ/G5TZlnEfjNeaLx8JQ5AO55XsVPBFyQSaEsK+99prN1xk/hU2Z3//+9/Y95ku71EEv6Je585xruNbVc4VcFRlRj+sT8QQDzfVeGMgfD0sqgHEhjCVvfdnI9Xe/+519zniIfsoZzlqiqaSEKISACJJFvjp0VXbv+eQGi1YOhKlYUNrBKxUj4M0AFBYvA1EgFR4RD/fSSy/JT37yE+vlKsl9kDFKX0zWkB8vQsEgEdqXCocrAX3R1le+8hWbU7744os3FI5PYlA4VYQRxlAyT4wOueD3vve9gvUo1ON0EtFUuzHMlXwGFeOB/H7wgx9cO8VE5ICBJd/805/+ZDcLIaZfvawWTfeU5CQIAas1OjZqE3oUjpClEhC+QEgsGZ4S6473YhFpE6uJQuE1C4E+KTZkMtei0FhNlMctgttJLAReJ1cChGz0i1GgDYwEoTBesxBcqIUcGHsxMBY8GB6VeeK52XjgaBzHDPGOeGvmS5+l2gLIA0X75S9/aXO1QkAetIeXpz3n5aqFWxPawnAS5eCh8gv5G4V820UZEIe+8eSQhvdL1YXM5WTgBfInYiGE55MvyPTHP/qx3cBiTQltCWtZr0agqaRk4VksFAylYuFREnIE9/EgFDEfvIYyc/uD63iOApH3uXDYJfQQjfAORSQv8oL3IDT3p1BmFgeFdxsyKAEEI4QZODdg8pTZlpLxuXZRGpQNMuJlGAekZkHJLyG2F3g8yMyWPEpXSol6CZGNR3ThJuPEQ6LYGDXmymvIDqNGzoVXK2bZMSSMm7mziVOMmBgyDAr9Yhjoo1owRmRKm07eyCm/OHkhU9YUebqNHcaCjvC3t47LXwk/SYHyw3IH1tsbgrIGbMiRCrCWtMvaswl3zz13y8NGL1lTyIisCuliPdDUY3YOzguwEIRULAyKwwJSeJ2/UTQI6JQZ5eNvBE3+xEYQSuqUnDqEtiwGi8Z1LBhtkn/wHvdJUQKUBCJhIEj8uQYiMR76DRsDEg6HJGGUw3k4FJpF5RoITNhEXocC0xdjZF4UlIpxMRbao2/CIxabuoy32C0RxhUJR+TU6VO2PkBh6Ye/3XiowyYFtzNQVOe58+FyNXZ0UUz6h3CMAUPJ++5mPoWxc/wRw8nY84/Z5ZPVyR1FxzC620esI8TBCLDmGDz6Q1aQjXmzpsyD9XLhK/rAeOiTsTJ3HqmLbCEr0RVz5zl9Qlbg9iroEweA90UH6JM1JhUg2vIannDI5MPGRs6Y9zHoFOqSanFNvREIUiJgFpwJQxCEzcKyzY+wUTJ2NnlE8NzbRDGccPEaKAiK4zwOYQ/KhBLwyKI6S8pCcR+RT6ew4PSHApPnsKBOSVl8FIQ2UbJTxruw6CgzygMhGSfXQUZ3O8GFzowZ0mAAeE4bhOW0SX1e41rmkU9Kdv8AG1nrTV7Xbq5DiVEQlBuFpx365zmHCpAViksfzIm5uF1pL1Aw5MP11He3WzBMyBMvSrTCGJAdcyLvgkiQH9kzp2KkpC3miqwZA3OgDYhHX8iftWDeyBpy0C67vMh0POclCUkBesE19ItOICvqUR+yUYdNGYw164hhdvOG3Kw9c2KtmTdjpy59IGvWAb1DFvQVMoxEhugZbTM/wml2yhuxXxEIUgK8CAuMYrIACJBFdJYUIVF4jb8RKsB6oTDctmChvECJ8DIIHeuPVaUNlJj2nfeEUHyOkLDF5WQsBAtMG9THo1CfBba7xGYBeY1FYsHYaCDUYrwAsvE6yobiMCcKfdMG3g2lQHloiz65HhlwDcaH/njNbbZg5RkfSu0Ui3kwHoiAAWDcbPZw0IFQzI3HC16jPWTjZMEjJIfcGCz+RjYoOLkr42KNUGLep092aSFdPikxDBhQwlTkxy0a+mOuzIHogPFDBDwVys8jfdLWI49sM+vxvHSaOgA5YUgYN3WRH1EGho1IB7KyrkQ5HGZgzG7e1EXWGDPWAXLSF7KCZFyLkeM91hlDtJPTYbt22mvRN+4ls77MgXWqNwL3xVlO8YdMuZRTaJQQUgGUHeVHGfCuLldB+IWA8BG2C0Noz5GJ5H6FUZLVq9fIqtWr7MJ7AWlZ7LPGqmP5GQ8EYqHIP+ifsBnlJ58ttGCub+rjJSAmiwvRIL0L2VB4vvqDzQYUntwQbDEKvWnTZuMpsxYaZeZ9vAJKDOkBHoD5uJwImUDgYoDQzMONjfac8aAtSMicyKl4dCkBc4C8EPnRLz5qSdbWPpuUKDnkoV2X+yIvgOx5HU+JbJgPcmY9kCeGYv06zgAvkZDp04FxoQcQmbEyDnSCOaID1EOm6AXy9cKFzRTaYN4YYufpacu9z3rQLuOhXdYXedJ2oxDYr5jkuBSE4BAARMDaASwpSoPAsLyVWi48CUqHFYeoLCbkpp0eozCclSwGxjI8MmzrMw4MB0aAupRiBgEwdkJAHjE2ri4KiILiEbmJjtKyJU/IhgKiSKCnu8e+5z2DSnvMh/ZQauA8ESXfuJQDfdEWj258yIa2MBxeMDaUFhkuNHkbYXW+N6YN5OSMH21AagdUjnFjUFhjSMm6IktIkk8qBwwJ/VIPcjEWoiPad+mPtx8vGBN1WAf6Q6bM0cmKcfA+42LcTs8guctPG4XAknI+AwVg8VEePAqehuIN81Aw8hV2/rDQWGTuzRGGK25tNPWWyM0KrC6bKL/4xS/k5ZdftjkTBMXK4+UcaQlDyVuwi4Sd+V5JcWtCPWUdQHhEvvTzn//chnaEyoRXbGIRDhF6cquBawjzKP/003+ytw44Iqi4taGkrBPIu/CWHHDAS5L7kJuQr+EpyW3JXchp2MV8/LHHTQ63UH+eQKGkrBcQK7t8bOSwEwkx8ZDkknhPyMhGA7kkx+QgbP4tHcWtCSVlA8AtAIjJdjs5JeTjlgXb8txyKLV7q7j1oKRUKAIGTWAUioBBSalQBAxKSoUiYFBSKhQBg5JSoQgYlJQKRcCgpFQoAgYlpUIRKIj8fwgzukLzn4ARAAAAAElFTkSuQmCC;fillColor=#f5f5f5;gradientColor=#b3b3b3;strokeColor=#666666;fontColor=#FFFFFF;" parent="1" vertex="1">
          <mxGeometry x="-442" y="425" width="55.7" height="45" as="geometry" />
        </mxCell>
        <mxCell id="TaVSvGBADPzD679VYjAK-236" value="" style="shape=image;verticalLabelPosition=bottom;labelBackgroundColor=default;verticalAlign=top;aspect=fixed;imageAspect=0;image=https://theexchangesd.com/wp-content/uploads/2022/08/internet-apps-1024x256.png;fontColor=#FFFFFF;" parent="1" vertex="1">
          <mxGeometry x="-500" y="850" width="120" height="30" as="geometry" />
        </mxCell>
        <mxCell id="TaVSvGBADPzD679VYjAK-237" value="" style="shape=image;verticalLabelPosition=bottom;labelBackgroundColor=default;verticalAlign=top;aspect=fixed;imageAspect=0;image=data:image/png,iVBORw0KGgoAAAANSUhEUgAAAZIAAACMCAYAAABWKS+lAAAAAXNSR0IArs4c6QAAAARnQU1BAACxjwv8YQUAAAAJcEhZcwAAEnQAABJ0Ad5mH3gAACLTSURBVHhe7Z0LsF1VecfXpZEko8ANjwoJkJvUV8Ta0YQgxSRXiKOjAwWtz9YJUSotMO20Y7VCi4kdUFuntSOoOEqS2tqODgWLw7QjSACpCpFafGRUSrhAYJxYkxgVRSDdv332d7PuZu2z11p77XP2uff7zazZj7Mfa+3H91/ft9baZ+xghlEURVGUSA4rpoqiKIoShQqJoiiK0ggVEkVRFKURKiSKoihKI1RIFEVRlEaokCiKoiiNUCFRFEVRGqFCoiiKojRChURRFEVphAqJoiiK0ggVEkVRFKURKiSKoihKI1RIFEVRlEaokCiKoiiNUCFRFEVRGjF6/0dy8zeM2fG93vyiI4w5OkvLTjBm1fN765RW2Lp1az6dmpoyDzzwQD7PVBJMTEzMmE5OTpp169bly7JOUZTZx2gJyTU3GnP/I8WCA4TlNxb3hAWBWZ7NK9EgHrfddtu0iDRBxOR973vf0IRl+/bt5hWveEWx1B/yt2vXrmIpnGXLlk0LbB1Nz+UDZd+4cWPr5xkleK65Jr7ofwBWMzqhrToRgb0Het7K57f3tv/gZ3vz4sEotfByYWzHxsbylyyFiABGVQw5afPmzd6GVmkG15prrtdbaYvREBIfEXFhCwuiwnFUVJwgGNSiEQ8Mfptg0DZt2jR9PjVw7cB1RUC41orSJt0XklgRKYOocBwRFaasm+OIlzAsgy4CxlQFJR3cV65r25UCRYHhCwnGXIy8JLwG8SRSiEgZ8VQQKRrv5yiIByLSBWNDXtQ7SQP3lKQog2LwQoLhJmHE33NNzzuQsJMkBITUdhhKBKUNseowEvJI1f6RCqlFdy1fo4J4l+qFKINmMEKCwUY8EI4v7eilrhhv8va57MWbI54JItL1kAeeicb1w0B8VUSUYdGukIiA4HEgHl2FfJI/8YIGJXJyfTgv16hlRERGAXoakZR6EBDEV1GGRXtCMgoCUkbaZeywWxshtrLAcnzWtYiEjUYJvBIVk3rUC1GGTfoBiRhEDHELhnH3/iPMDd9+Xj6FJUf1zrH4qJ/m0yVH9pZZL78lg8GOwAj65SeED3bkenzj+/2F9UMXFjNpSe2JnH/++fkguqVLl+bLjGC3G8kZxIhxY529PhYEhYGMTSFPvo3QozQgkTE/vuigukMQDgzx5PTaVZNWSKhlJ/RALr1p0lx8xjemReHqO1eaq+5clc/7IPvlwlKIzKknP5rPNxYbhKVOVEQ8fD2OloQkRewc8ZBR6SFwXhkd30RUMLSh5y4zSCEJ7TDA9Y1FhSQOFZJ0pBESjCQN1gnbFu56cLHZ8K9nm0vO2JGLCeCJrL/mrfn8la/Zbh7Z/6xp72T3T47I52XZF8Rk9UmPTAvM6pMjymB/mgX2ZR5STLiqBSEJfVnK3HrrrbnHkQLyEjuiHcNOXpqIySCFZJCokMShQpKO5kKCsawLZWFo16/s1eDZ7n8zY433UmNoEQ2E4eYLPzvtPSAuiMy2N99YafSnxQVhyQQGfEVHPJVcXE56NE5YYuDavCGNwRYw2LEhLWrI1157bZCR8oWXN7TGDk1DXCokagxtVEjS0UxIEII6TyQTkc3fvc1s/eL1ZmLRsWbyjDVmw/vfayaOOqZWgFxeyfXffn4e8sLAIyZNQUzuemixufvBE3KB4Zw2Iirnvuj77YoKIpL4C8axIa2UXkgVeCa8yKHeSZMQlwqJGkMbFZJ0NOu15RHO2nznF82mz3zSPLB3j9l+/858ftu7N/e8lDf2N1YYbgw57SIPF94DRh1c3kQMHP+8F30vD5UhTHg/TBEvzs95EC8EDQ+Jdpqy2CQhsYhgoGNEZMuWLa2LCOBZxLQLaC8uReke8UJCt1iPNpFNX/yXYu4Qmz5f1EQRkxrs9hHIPYTCwLdh0OX4nFeExRYVRM0WlSQkDmlBjMFFRJo0+oaCmIQOPIzxYhRFaZd4IfEcWzF58vPMD750h3nza88p1vTIQ1seQiK9raStA1zr2gJhKYsK60RUEBRCbY1EjYb6hGBoQ9sgEJBBiogQ0xOsSecBRVHSEyckeCOevOctG81z1r/cvOeiPy7WZCJyzK/3RMRDjCS8tePBokdUBsvDwBYVQmGExOzQl3QECMZDUEPYtm1bMecHhhxvZFiE9saKCdkpitIecUJCrytPXnBwofnzc95kXvLa9fnyxKLjzJaPfiyfz8dYeICxtr0PlocJgiLtKuKlACIiYS/ExZvEn2QJDRcNwxOxQUR88sA2iI42eo42eMyEXkl0fiDRYYBEL0NJ0rtvVCoO0nhPkjJImaSclHk2hmbjem3x+ZAQshr39nmZF7HkWDP5ltf79fYqQDQwzGK4gWXW292Chw35ofcX7SbMky/y58UrV/W6RyeABzVESLrUO4kXzvWSISAxIbAyg+y1JUbQh7puzaH3NBV1+QqB+4qnHFsO7gedQDZs2JB0XFNImNRlKkUUebZCBIIySHmaPtddIM4jwfCFkAnH5J7s4k398tA3rAJr4a0Kxnjm4Zzy3EZpyW8fb85701Nm2+XfMldesNNcedF9zu2c6bAFRUYGz7C9ERvbQDBPuI2Xl+lseNnmIhjX5cuX55WEJmLIcTD8VAQ4Vhe8FASEvJCvEBEB8s/1oDy+FY4uEyck1J7/4q293kYh35yqGYDogm9rwaqTHs2nhI+kxp9MXJYcbw5OvCRJWrxqhTn3bcebU1894fzdmZ51YpGR5oQ+lKlqnCmgdibhK1KXRE4JQ2rqGNrUHi/HljDRMEAEmgqjQFkkHBYqRl0ivtcWDcSMfbjw7J6oJG4wFmhrQDBodAdpK5HxJLOCXzxVzDSDBzHkYUwVIkiFeCFdy5cSRkpD2w+Oz3kGaYApGyKW+pwSZhtVMYlrIymTGcKD39ljzIEnixVp2Pnj+eYfvjJunjP+uHnX2r35ug/fvsjct+9w89aVB8zaJT/P1zXmsIXFzJAYn2fGXtxciOUh94UXsUseSduEXB9tI4l7PkKfwRRwr2IqIGK8fcFLPvPMM1vt7ME1H8V2k3iPBBCQqcfMwbv2G/Ozw3sGOWk63CwcHzMbTnt8et03H1tofjr/18zak7KbOWPbBmnYzG92GwS+shsCD6yipGIYIgLU4gdRm6dsbYoIICSh3fe7QLQFQzxyAZn6RbEmPSuOfsL8/eR+c9zCXuhnz2O97MrybGFs/BnFXDN4kX2hxqMN2EoqhiUiAiLC+Uc1NGSDmIxaOaKFJA/FLEhTk/bljt2Z15Ox5sRf5tNZQyKPJOThUxFRUhISImoLnv9hNcCnZtTKEW/BMhHJxWTp4Lqu7vy/Xs19zZLH86kykxAh0QZtJRVdaiSm3SPEM+8qlGOUvJJ0je33HkjW+6gKQls/yhIhr06ChyZe2r6APGZiPLa0eVtNyOfEYxpSR52Q8AseW1ca2zEoVUaF9aENxr74hD+bhLQ4Nl28161bN70sZZV/1YzB996FNrb3Q8ohFTS5X7R3cI2q7l8/RukdTSMkgIjsf8Ic/OEvw4zoqINwPPtwM/bs+TNDfSHXA+9u9VHFQhw8qHSF9KXNhzT2xQmFl7bO0NmMqpD0I/S+p24s5npyXUPg2lLeunFClI0QT4yg0Iur7vgphARh9vHupRyh7wXPYMgzPizSCYlN0ZvL/LDdENQHt7QzdqWO1ac/Zc581ZP+XgTXA0HJhKVKVPIw4fi8YimcUIPi86LFMqjuqqEGWIUkrZCEXE8Boxv6pYIYg+9z/5oISczzEfNe+ArVsIlvI+kHNeznP7NXy6YNxa6pJ+Qft84bSLpl+zxz5MQ8c9aGeea9W7LpOzMPJCQUxfXItkcsqq5JLjQNCK3pjEItR+k2MV+ZxjCGPntUeGIqJqHvhC8xIgI+XliZtsqQmnYsvCAGNDOepH3HPNPctWuBMz144PDg1BZLsuf8kuy5Je3MKnA3Z8/MxVmFcXWKikHpmiC4eWgsURdgX0blAVW6i6/HJeCJxIIRrquZY+ARHIw8qa3KUpNyhI7dCh0bNjQIbbXNVZsOHjxr4uDBF2Rn62oif1+/tcjwEHh4VzETSVbTI2bhnbKXodgzPdnL7Dxn6sR5Qgi5RpkRKvaKI6t5Oo/rSqHlsMkMpvOYVSkVPD+u41clrkdTqu4f9yrmeQ4tAylFOciv69iu1PQ5HBSteiRXbzZmxZgxV2U1+90drwCTv0s39hL5vj6rbLWdZ87D+bhGG+I6vkzTVu1LUVzcfvvtxZwfsW1ANngk4pXwvON9ZDYs9z5CQ0axXH755cVcPCFtHnM6tIUBXr+sJyCjBPlGQMg3Bp4ykJhnfQo4hy2wctymohUqJFNTU8WcooQT0lMLI5+qooMg0c6CeKQQpxAoQ4pySHdnX0ZBTJILCUYS49tGbZ6vAPM3t/JXtyT++pbEH1+R+EqwpBSIuIjnQNkoY0j5RDxEmLogsNpGojQh5PlZu3ZtMdcc2ysZNAhiyFituUQyIcFYEp5JaSQRCvs/R+Rz8iQRjkvO2JEnERYRGtLOd1+T/0shScRHRIdjxPyfCeWkjCIKCMRdjsqZiId4NuwTIj4xhNSWVEiUWEIb2Ydl+FOzdOnSYq4ZqbyzLpFESDCkGEuXQW0C/zmC4Rf4QyuB/0a/9KbJPPGfJST+9Er++EpALESARHhEcMoiIwLji4gKAirCgnDIMr/5hsSS9AgLIHQQmaLEMlsM52wUgFQ0FhLEo66hmO60V2451JWWxLo6+A90jLt4Dvn/omdCAUuOPDAtICIoiAuJ/3Rf8TcX5lNSP9GxRcYWGBEWXxAVEsIRI6g+16OO0JpfW14JsWsaQUMTsW+l+9C+xv3yYTYZ39niWbVBIyHxFZH5E5vN6zaOmYXPWGZe88qsyp6xLbMZp9XsK3+za3slV//Xynx67ou+n0/7gfCI+PQTHZKIjIiLCEuMqMRwboK/BgltxOuaVzIyfeYVb7QWPzeIFhJq33UiArv2bTY3be81nPziiQfMvfdtzcUEgbmopiedCABG/ETLKwHxUpoiYiMiI+IiwjIIUSGslSK0FfrSquFWYtD2NaVMtJDQFuDDQ/ue3kiAmIBPOOfuB0/Ip+XwloSk2sAWln6igqeUQtBSeCOA6x0iJjSadskoqIFSlNEkSkgIafm2AzzDTJiv3fqYee3kB4s1Pb72lQe8hGT3T3oeyKqTHs2nIOtoJ2kbl6iIkNFwL431TbyU8xKOpQr1SroU3grtDaQMh5BnTCsHc4MoIbkh4Fttr5w835w2ucA8d+KMYo0xx49Pmpe9fMKrRxNGG2NODy6B5WEgoiLhr6vuXJWvxzOyvZRQUnYLDm0Q7Mr/Q6vBUZTRJdoj8eXb29eZ55yw0Xxk65p8ecG8CfPRj/dGpH7s/fmklnL4KEU4qSmIytV3rqz0UkIEJaWQxDS4d8GId0XQlHoYT+E7ME8rCHODKCEJMXyEtiYWbDGf+NtdeZfBx361y5z+ssl8nMXDHl9iFtGQcBaId0L34GFjeykkEZSQUNfdCdu8Q9tJgP+UGOYLz7n5bpIyGoxy+FRph7HMuPt1CLcgJIXx8x1sJ9AmElr7xihTwyeMhAcAjFgHxopU8boPFDMOnvxZMdMSiw72xG/vmF8I7tnHGvOnf1IsJCDmD3sw5IP+dpEQ+0dYoXnGoOkfWwW/7k+Dcy5fvtz7WJStixWF0PckxbWDkOcQ2vwkfiqiPBIahxlgyMBC/rPDl5gQjowX2fFQr/eW9NSi5l/FyadkD/v+6vTQE+2me588Ik+u31xpqtl/Wj2NmI/k8aIPwytRb2T04NkKaYtLGbbE+FPxUC+nW0QJiYCHwR8+IShtfeKDNgfCRyIc0lPLDnWNOnv2FjMJifmsNjXbQYpJaG1a6Q4hbXHc51SGX7xXavQ8OywrwycqtFXm324x5rqbi4WErD3xcfPO3/yZuf3hw80nv/XMfN1lpx0wK45+wlz3gwXm+vsC/u62w6xYbsxf/kGxkJAYYaC2yadK2nalyRdhhSYGJjQkpKGtdGGS0PBM0+sJVaEojo2HxL8PhnhKGtpKR7RHsvP+noD83nvbERHY8/PDzM4fz5shGIgIzBYRgeMWFTOJifFKMEw85L5GMAZepKYiosQRWrGoQoy3L5y3ifcgFQ8X/Mbzansp+mwNlighIRSzM6tctCUgAiJyxdePMHse62VTRESWZwsrWoruUMuNFRNeWl7MVIZH4CXnuF1/0VOXuyukKhdCEvr/4xj72Pvu6zlQPjw87U4+WKIsMjXoNS815vXrixUD4gVH/yqfEuqaTbTlkQBiEusW89JTwxPvoYkR4hgca5Qa1kdBTELvLUKeqlwhHglwXp6DEM+EfWIqHqEipzQjumqP8XvdWcZc+LvtGkKbFx7T80i+snt+PlXqwdDEeCU2dthAREWExWWUWCfxZ/Zh8BrLrm27DLXaUchziJhQnrpycW99DH7Ms8V5qUzwXPBMVMF2nJ/tQkWEPIWKnNKMJI3thLruuKf9UBcct/CpToa2ENO1K405drwX9svDf/cXP9bAfghym/BStukNYFRSGV3fY4U2UmOQEMQQyAtGyc4T83XnxRD3M5Q2oeUoE1NjpwwiAoxUly9BSwUBfPLFtpw/9t6TD5nKNQ4tSxk6i/gIiVR2fNHG9mqSWGTxTj7y7l64q00PpUsiQjkpL+UmcQ1EFOiFJdeDXln98BWcJmAQ2hSSWENShjx2qTZJuTA45IspKVVZUxFzvSgDZSKJ6MWUDQO3ZcuWYikczkfCuHL+piKi3shwSGqVRVAuy4woxrTOgI4ilAlx+OcPHBKPKuGU62GLimvbEO+lCW2LSVMwAOSxrdpX12t1sYR+Xy013Lem4dMUNBU1JZ5WqvcYS2rmYkCZrzK2Ar93UXjIFwJAWRAPpohDKByH/bgeck3s8l53SzHTMl0VE4yA/NVuyEcBQ+Acs1FMumDIea6G7QmoiAyP1uNEGFC8EzGgIi52kto9vw1TTETMbOEgXwhAynzJNZFrwTxpUIiYdMWolmuSbeZrNgoJDLuXktzDYYmJb7uI0g4DbXAQQ83UTjZtG1Q5pwhGWTSYTy0c/SAvPh5bahATXr5h12R5+WlMHJQRmK3GhnIN29MUMRnkM8U5VUSGT3dargswqE3EBKMsgiCJZYRCxMIWjEGKRteQF58XcRg1dTl3mTaNQpttMMOmC2FLru2g8iHPr4rI8OmckABigKcQAw3X4nFIGnRtf9TgRcQr4KUchJHlfHXeUJv56ELDcFt0IWwpYsIz1da1poyD9GSV/nRSSABPAa8hVAR+lAmJEgcvPS8nRr4NY2Qff5gGoAvGtk0oXxdq6lxf8pEqLxxPBIQyKt0hyYDENpHBjt+937+LLCEsJQ3062ewGlMZY+A71oAXHwNC99TQmqnPpzxijmtDmeQ8vmWiPDRs152XMREyyK+OpuXoR0wZyQt5oqwpxZbzy/PE9fGB88tzlFo8yEvIN7kQxBRwHbgnvqQ6b5t0XkhsEBWwvQ5Zh+dybJY0jDUYbMOEYaDLLkjNM6UBGgQilFNTU/mylEcMmcyPMpQR+pVzkGWU50eeJTtP5EOeJaX7jJSQKIqiKN2js20kiqIoymigQqIoiqI0QoVEURRFaYQKiaIoitIIFRJFURSlESokiqIoSiNUSBRFUZRGqJAoiqIojVAhURRFURqhQqIoiqI0QoVEURRFaYQKiaIoitIIFRJFURSlEfr1X0VRusfuR7K0uzddsri3bsmSYlosjwJXf7xXBpuL/6i6DJf+VTFjce45xqw+tVjoJiokiqJ0h+u/4DamwiWZEcYQjwrrX/10Idn26WphWPHiYsbiyr825rzfKRa6iYa2FEXpBtTe+4mI0llUSBRFGT7U2q/KhKSOU1cVM0qXUCFRFGX40B7iQ8fbCuYqKiSKonQX2hN23ttLzCudRIVEURQv9u7/ibnuxv80H77qU+ZT//T5PLEuCeUGaaBnk+2B+HgjNG6X0113Fz8qbaFCMgfgxZfk++JjJGQfRdk19VD+LNxz73fyZ4jlffv2m0VHHVls0QLS3TcEejchSpI4hobDWkeFZJbDS2+nL9/+1eKX/mAkZB9lOHDtMdwkDPcwoWIhLFt6knnpi08xL/2tU4o1HaLcGL86ceO8y3NSVEjmGmKYlO6DeBBKIt1yx9eKtYPHrkwgIhf8/hvM689+lTlzzenF2g6AgXd1H2Zcij0okFAXYzXsxDZVyHFlP3tK4nwkjkEIbY6G0XRA4iwHI1AOTxGOeMfb3tg3LGGHwa647M/yqTJYEHxEBMSADwM7H2etPT2dgGCkb8gMMFMMsBj7KghRlRvc5Rh1XYelvcV1nqoBfxveEScM9qBJxKauXPb5Eaky9u8+xwPKe/N/9OZ9yzF/vjHfjBNC9UjmIAjEpz/zuWJJ6Qp2zb+rjKduE0EAqM37GMcy7IM34DP+hG1DzhMrInMU9UhmOWWPBC9EDFa/2qWvR8I2/53VWO+fejhvV6HmvGzpiXkM3YWdl3ddckExN5NU25SRfcbHj8pr9+SdNiNCSMz3Yv8vzKc+jcjU1Pdl++3d17tOlJv92N/Fl+/4qrnnf3phxTOza881knWcX+6HvZ3cA5A8cXxCS6HY9wp6ea3Osysf9nWR6xgNRp0ati+2RxK6bz/KHgkCgpC4oKYvnQDkW2Bl1CNRZjMYAUJaAkYithEXwyI9u26xjLGEQS674u9yQ1QG48N2JNe52V9+99mmymi7kH2kIwF5l2MB5yLvrJd1LigX5cvbLrKycwwpt1yTKiQPIPu7zmVvJ8g61/b9YPvyvSLZeWbqonw+WSZxHRuTG+YiubB/t7dJJSIuqgw1IoZxZirzjG/B0CNypKpylKkqVxvUHV/ysPiEYkU4KiRzDMSEmi9gDKoMSD/YD6MkRl6OSe2UWrbUWjFaZTGhxi/serBXM7bZVdSWhXvu/W4xdwh7G2rUoZB/Ce2RX2r35N8WJX5nuzKUh3IJUnaSlFuuTz8oA4Yc8h5QWZKw0bKTT8yPxzrBPo99DX2ouldMpczkpXyvXPlg++l8NO21hfHCGJNcH2LEMMvvJAw20PjtguPhDWDkmco+dYa0zN07ihkLjkF+XOAt2OJS91FJ2U5S1XFdsD3ixdQFeSn/zjUQwXPBera/6d+LFeGokMxBXpIZBjEgMWJib89xCC0RkmEeo2w35JfFRM4LEjaxEeMqiAG0sdfZRi4Eyo0xJL8cg/yLcZXfy+1IrLNFhO2l7CTKbV9XV94Fysm2hA3Jg+QDWN+7nodEEk9OzhNS5nK3XfteMeW8kmfXvSrnAxGTfJCGwtWfKGYsRHQw4swzxfjnRv7anrD4UiU8PiGlQVElbP1CWDc4hIJjhAhZBSokcxCMPAZEwKj1M3pl7G3t4whPO74lGPwmhgtja2OLiAhR2SCzjewXKyLA8V2GkHX2uct5RDwoG1Mph8B+trdQ3teGbTlG29jX7qw1LyvmDkE+qu5VJ8EbcTXrUsuvAqN7biYoVQJRxvVhSERkw9sPdfXtAhf/YTFjQT5d+WO9S2T4r5MEqJDMUcoGBC+jn+ETbGOPIRWjW8b+rWyQl1s1XNvQ0XANuYdQeAZQla+YsJbQLyxj/2bnj/JQLvJXFhEXUh4XPvs3xc4756s6J+Wy75W9X+dweQVVIRs4/4LePohIv+1sqkbUi5FGTGQsCfPD6t1VNWrfJbZV4UBpxG+ICskcxjaIGBCfUe+2cawSEYFwjGA3zBJ7F+w2kOneROMzexHZ29jzTYyxnYcydhfXcpuNkF+vO3qhIESYEJI0wAvSm8sFZWwbW4BD7lWncQmJy5iyHb2VLrrwkCfi+8kVtvcJhYmwcB7f3lQpyT0th0dBPsri5hK7RCICKiRzHLwSMTJ4G+UG1zK2cQwxhnbDui0Adu1X5mnDIU+ynS1Csg2/1xnHKuxju7CPW/aGOD+N19IDihQaGhwUVSLowi6zqxNEZ3B9br5sJDHuGHYMrR2mYuCiL7SxhLSr5ML19sF7J1XtG1+4sZjJ4Hq4RK6uU0AAKiRzHAxIOUZeNp429m/9atxlygPZxJBzPIywq31EQmCubZp4IxyvXxltQzrDwGZ5wPOw9+V38iIN94No94ihX3lHCpdBFI9DYBkDS219bKxYmSEN8L6wPQ34vjV38kaoa5BIWcvYglbVyB5yLWpQIVGmDSFgcPqNercNa51xmhHOKhl+u+GX40jt2W5At8NPGHe7hh3aBbaM7xgI2+uyw2pcB3pAkRAPGunJe5dCREEeo+VRJR+9npKqGrgN29D4Xt62qmbeD4ytdI9liqj0ywPH5zyDpKrRnXYRBMXlJSVqZBdUSJQcCScBhr1KJGwD3s8Yl49hCxDYBhcDLYas3OVVoP3ENnZNPBKoCt+QZ7uL7wwxs85PZ4BymcDeZtjYeedeVd3T8r1qem1bJTeAlpcBvl6Aq2buC4KCiCAmMg6EeVet/pFAsWoKwuYSNwStqswJ20dAhUTJwSjao96rsI07xqdqDEp5rEkZzifrbSNnb2tvg4GWbWyvJRbEwjaeAp8QsbHzY5fdJSJgey3DpnyvqjpTlO9hVdk6AQazpCNeIaXUvatsYSlT5/WEekU+VDW6u7yjxCICKiTKNBgQCXFVwTYz2lQyw4shYpobq6IXk10zd41fAPFubIEoGzFXCKtJt1+B89BgLnklMW97I+X2Drsc5TJSBtpP7HVNsQWT43J8rq9LAF1QRkJvQvleMeV4dp672sYzDQa8qvZNA7uIhUwxpvSqCgk3sY+d+uH63eWl2LThsfQLt5VJ2MguqJAoM7BHvVeBgXOJifRkYllgu6rjlde7YvqufVN4JIwVwdCSVww0yc43glo+NzV8EToRDspMt1+mGOQUebOxhZXjc319/5wM2L/qXpWFk7zX3ftOcMX73cYaoy5dcfFAZKxHnSdCWwL7CSyznyS7rUGEgyni5BqfsdjKm6vLMV8r5nySQkSuCq6HTy8zvJE6oYtAhUSZQdnwVIHRcRlb4Bisp3bbz7DKdgIiVqa8TSpDTeM45eT4Nhyf9a5R72xL+M/Og3gH/EZ5U3hLNngUnM/Op69HIkiZqkSCY/O7z31PCsYYg09yxfLp6iu/22KAIeSzJ1VwXDH4PtRtaxt+hMUejOja1/YOqoy2CBPJ9W0vG64N53KJlg2j9+soh8DIP0JmX98I9DPysxzb6JSNZj9C9pNtqTGzbZXBcuFzntgylMFzEMqfxifvofmWth27zHV5bVIW8mh7RTHI+UPvlezX5NxPAyOGQfaB2nY5JINh9fkvEh8w/vKZFYx2rJdQzicGGgHqh31u12fkBUSJRv5+cK5+osDHG20op4TaTlttzKqVvflA1COZ5fDiSwohZD/ZjppviDEGn/P4bNOUmHyzT7nMdXmt+70fnCdmPxs5d+i9is1zq8g4j5CBgy2EdaZxiR0iUdd+0dAbmIGrK7Dg6hggIhLiwTlQIVEUZXRBGDDe1OiJ/7uMNttg5KmN9wuJCRhcBIpjMk+SY5eFiGXWs31ZRAQ5jmt/1qXsRcXxSC5c62nPIRHyatAJQENbypyhX2hLGRK+tXEarctGuAq7du3ax3XO0OP7bltF1THqrkeVSNi4wluIlcsjAbleDcqkQqLMGVRIlFkPAuJqk8Fjaip+fdDQljJnoF1AejApyqyjSkRa6vJrox6JoijKqCJhKXqwVfU0a9kbARUSRVGUUQLBoIuyDzT0+7SrNERDW4qiKKOEb+8qeqoNQERAhURRFGWUsHulVUG7SFV35BZQIVEURZlNyLiVAaJtJIqiKKNE/hHJHZlnsvvQeBRCWEz53lbLDesuVEgURVGURmhoS1EURWmEComiKIrSCBUSRVEUpQHG/D8tD9uJE+bmEwAAAABJRU5ErkJggg==;fontColor=#FFFFFF;" parent="1" vertex="1">
          <mxGeometry x="-484" y="662.17" width="103.08" height="35.89" as="geometry" />
        </mxCell>
        <mxCell id="TaVSvGBADPzD679VYjAK-238" value="Administrator" style="rounded=1;whiteSpace=wrap;html=1;fontSize=20;fillColor=#000000;strokeColor=#FFFFFF;fontColor=#FFFFFF;" parent="1" vertex="1">
          <mxGeometry x="-1300" y="167" width="220" height="30" as="geometry" />
        </mxCell>
        <mxCell id="TaVSvGBADPzD679VYjAK-249" value="folder/admin1" style="rounded=1;whiteSpace=wrap;html=1;fontSize=20;fillColor=#000000;strokeColor=#FFFFFF;fontColor=#FFFFFF;align=center;" parent="1" vertex="1">
          <mxGeometry x="-1300" y="328" width="160" height="30" as="geometry" />
        </mxCell>
        <mxCell id="TaVSvGBADPzD679VYjAK-259" value="image" style="rounded=1;whiteSpace=wrap;html=1;strokeColor=#FFFFFF;fontColor=#FFFFFF;fillColor=#000000;" parent="1" vertex="1">
          <mxGeometry x="-1300" y="358" width="60" height="20" as="geometry" />
        </mxCell>
        <mxCell id="TaVSvGBADPzD679VYjAK-260" value="image" style="rounded=1;whiteSpace=wrap;html=1;strokeColor=#FFFFFF;fontColor=#FFFFFF;fillColor=#000000;" parent="1" vertex="1">
          <mxGeometry x="-1295" y="358" width="60" height="20" as="geometry" />
        </mxCell>
        <mxCell id="TaVSvGBADPzD679VYjAK-261" value="image" style="rounded=1;whiteSpace=wrap;html=1;strokeColor=#FFFFFF;fontColor=#FFFFFF;fillColor=#000000;" parent="1" vertex="1">
          <mxGeometry x="-1290" y="358" width="60" height="20" as="geometry" />
        </mxCell>
        <mxCell id="TaVSvGBADPzD679VYjAK-262" value="image" style="rounded=1;whiteSpace=wrap;html=1;strokeColor=#FFFFFF;fontColor=#FFFFFF;fillColor=#000000;" parent="1" vertex="1">
          <mxGeometry x="-1285" y="358" width="60" height="20" as="geometry" />
        </mxCell>
        <mxCell id="TaVSvGBADPzD679VYjAK-263" value="image" style="rounded=1;whiteSpace=wrap;html=1;strokeColor=#FFFFFF;fontColor=#FFFFFF;fillColor=#000000;" parent="1" vertex="1">
          <mxGeometry x="-1280" y="358" width="60" height="20" as="geometry" />
        </mxCell>
        <mxCell id="TaVSvGBADPzD679VYjAK-264" value="image" style="rounded=1;whiteSpace=wrap;html=1;strokeColor=#FFFFFF;fontColor=#FFFFFF;fillColor=#000000;" parent="1" vertex="1">
          <mxGeometry x="-1280" y="358" width="60" height="20" as="geometry" />
        </mxCell>
        <mxCell id="TaVSvGBADPzD679VYjAK-265" value="image" style="rounded=1;whiteSpace=wrap;html=1;strokeColor=#FFFFFF;fontColor=#FFFFFF;fillColor=#000000;" parent="1" vertex="1">
          <mxGeometry x="-1275" y="358" width="60" height="20" as="geometry" />
        </mxCell>
        <mxCell id="TaVSvGBADPzD679VYjAK-266" value="image" style="rounded=1;whiteSpace=wrap;html=1;strokeColor=#FFFFFF;fontColor=#FFFFFF;fillColor=#000000;" parent="1" vertex="1">
          <mxGeometry x="-1270" y="358" width="60" height="20" as="geometry" />
        </mxCell>
        <mxCell id="TaVSvGBADPzD679VYjAK-267" value="image" style="rounded=1;whiteSpace=wrap;html=1;strokeColor=#FFFFFF;fontColor=#FFFFFF;fillColor=#000000;" parent="1" vertex="1">
          <mxGeometry x="-1265" y="358" width="60" height="20" as="geometry" />
        </mxCell>
        <mxCell id="TaVSvGBADPzD679VYjAK-268" value="folder/admin2" style="rounded=1;whiteSpace=wrap;html=1;fontSize=20;fillColor=#000000;strokeColor=#FFFFFF;fontColor=#FFFFFF;align=center;" parent="1" vertex="1">
          <mxGeometry x="-1025" y="328" width="160" height="30" as="geometry" />
        </mxCell>
        <mxCell id="TaVSvGBADPzD679VYjAK-269" value="image" style="rounded=1;whiteSpace=wrap;html=1;strokeColor=#FFFFFF;fontColor=#FFFFFF;fillColor=#000000;" parent="1" vertex="1">
          <mxGeometry x="-1025" y="358" width="60" height="20" as="geometry" />
        </mxCell>
        <mxCell id="TaVSvGBADPzD679VYjAK-270" value="image" style="rounded=1;whiteSpace=wrap;html=1;strokeColor=#FFFFFF;fontColor=#FFFFFF;fillColor=#000000;" parent="1" vertex="1">
          <mxGeometry x="-1020" y="358" width="60" height="20" as="geometry" />
        </mxCell>
        <mxCell id="TaVSvGBADPzD679VYjAK-271" value="image" style="rounded=1;whiteSpace=wrap;html=1;strokeColor=#FFFFFF;fontColor=#FFFFFF;fillColor=#000000;" parent="1" vertex="1">
          <mxGeometry x="-1015" y="358" width="60" height="20" as="geometry" />
        </mxCell>
        <mxCell id="TaVSvGBADPzD679VYjAK-272" value="image" style="rounded=1;whiteSpace=wrap;html=1;strokeColor=#FFFFFF;fontColor=#FFFFFF;fillColor=#000000;" parent="1" vertex="1">
          <mxGeometry x="-1010" y="358" width="60" height="20" as="geometry" />
        </mxCell>
        <mxCell id="TaVSvGBADPzD679VYjAK-273" value="image" style="rounded=1;whiteSpace=wrap;html=1;strokeColor=#FFFFFF;fontColor=#FFFFFF;fillColor=#000000;" parent="1" vertex="1">
          <mxGeometry x="-1005" y="358" width="60" height="20" as="geometry" />
        </mxCell>
        <mxCell id="TaVSvGBADPzD679VYjAK-274" value="image" style="rounded=1;whiteSpace=wrap;html=1;strokeColor=#FFFFFF;fontColor=#FFFFFF;fillColor=#000000;" parent="1" vertex="1">
          <mxGeometry x="-1005" y="358" width="60" height="20" as="geometry" />
        </mxCell>
        <mxCell id="TaVSvGBADPzD679VYjAK-275" value="image" style="rounded=1;whiteSpace=wrap;html=1;strokeColor=#FFFFFF;fontColor=#FFFFFF;fillColor=#000000;" parent="1" vertex="1">
          <mxGeometry x="-1000" y="358" width="60" height="20" as="geometry" />
        </mxCell>
        <mxCell id="TaVSvGBADPzD679VYjAK-276" value="image" style="rounded=1;whiteSpace=wrap;html=1;strokeColor=#FFFFFF;fontColor=#FFFFFF;fillColor=#000000;" parent="1" vertex="1">
          <mxGeometry x="-995" y="358" width="60" height="20" as="geometry" />
        </mxCell>
        <mxCell id="TaVSvGBADPzD679VYjAK-277" value="image" style="rounded=1;whiteSpace=wrap;html=1;strokeColor=#FFFFFF;fontColor=#FFFFFF;fillColor=#000000;" parent="1" vertex="1">
          <mxGeometry x="-990" y="358" width="60" height="20" as="geometry" />
        </mxCell>
        <mxCell id="TaVSvGBADPzD679VYjAK-278" value="folder/admin3" style="rounded=1;whiteSpace=wrap;html=1;fontSize=20;fillColor=#000000;strokeColor=#FFFFFF;fontColor=#FFFFFF;align=center;" parent="1" vertex="1">
          <mxGeometry x="-753" y="328" width="160" height="30" as="geometry" />
        </mxCell>
        <mxCell id="TaVSvGBADPzD679VYjAK-279" value="image" style="rounded=1;whiteSpace=wrap;html=1;strokeColor=#FFFFFF;fontColor=#FFFFFF;fillColor=#000000;" parent="1" vertex="1">
          <mxGeometry x="-753" y="358" width="60" height="20" as="geometry" />
        </mxCell>
        <mxCell id="TaVSvGBADPzD679VYjAK-280" value="image" style="rounded=1;whiteSpace=wrap;html=1;strokeColor=#FFFFFF;fontColor=#FFFFFF;fillColor=#000000;" parent="1" vertex="1">
          <mxGeometry x="-748" y="358" width="60" height="20" as="geometry" />
        </mxCell>
        <mxCell id="TaVSvGBADPzD679VYjAK-281" value="image" style="rounded=1;whiteSpace=wrap;html=1;strokeColor=#FFFFFF;fontColor=#FFFFFF;fillColor=#000000;" parent="1" vertex="1">
          <mxGeometry x="-743" y="358" width="60" height="20" as="geometry" />
        </mxCell>
        <mxCell id="TaVSvGBADPzD679VYjAK-282" value="image" style="rounded=1;whiteSpace=wrap;html=1;strokeColor=#FFFFFF;fontColor=#FFFFFF;fillColor=#000000;" parent="1" vertex="1">
          <mxGeometry x="-738" y="358" width="60" height="20" as="geometry" />
        </mxCell>
        <mxCell id="TaVSvGBADPzD679VYjAK-283" value="image" style="rounded=1;whiteSpace=wrap;html=1;strokeColor=#FFFFFF;fontColor=#FFFFFF;fillColor=#000000;" parent="1" vertex="1">
          <mxGeometry x="-733" y="358" width="60" height="20" as="geometry" />
        </mxCell>
        <mxCell id="TaVSvGBADPzD679VYjAK-284" value="image" style="rounded=1;whiteSpace=wrap;html=1;strokeColor=#FFFFFF;fontColor=#FFFFFF;fillColor=#000000;" parent="1" vertex="1">
          <mxGeometry x="-733" y="358" width="60" height="20" as="geometry" />
        </mxCell>
        <mxCell id="TaVSvGBADPzD679VYjAK-285" value="image" style="rounded=1;whiteSpace=wrap;html=1;strokeColor=#FFFFFF;fontColor=#FFFFFF;fillColor=#000000;" parent="1" vertex="1">
          <mxGeometry x="-728" y="358" width="60" height="20" as="geometry" />
        </mxCell>
        <mxCell id="TaVSvGBADPzD679VYjAK-286" value="image" style="rounded=1;whiteSpace=wrap;html=1;strokeColor=#FFFFFF;fontColor=#FFFFFF;fillColor=#000000;" parent="1" vertex="1">
          <mxGeometry x="-723" y="358" width="60" height="20" as="geometry" />
        </mxCell>
        <mxCell id="TaVSvGBADPzD679VYjAK-287" value="image" style="rounded=1;whiteSpace=wrap;html=1;strokeColor=#FFFFFF;fontColor=#FFFFFF;fillColor=#000000;" parent="1" vertex="1">
          <mxGeometry x="-718" y="358" width="60" height="20" as="geometry" />
        </mxCell>
        <mxCell id="TaVSvGBADPzD679VYjAK-288" value="GoogleSheets/admin3" style="rounded=1;whiteSpace=wrap;html=1;fontSize=20;fillColor=#000000;strokeColor=#FFFFFF;fontColor=#FFFFFF;align=center;" parent="1" vertex="1">
          <mxGeometry x="-753" y="419" width="213" height="30" as="geometry" />
        </mxCell>
        <mxCell id="TaVSvGBADPzD679VYjAK-289" value="GoogleSheets/admin2" style="rounded=1;whiteSpace=wrap;html=1;fontSize=20;fillColor=#000000;strokeColor=#FFFFFF;fontColor=#FFFFFF;align=center;" parent="1" vertex="1">
          <mxGeometry x="-1025" y="419" width="220" height="30" as="geometry" />
        </mxCell>
        <mxCell id="TaVSvGBADPzD679VYjAK-290" value="GoogleSheets/admin1" style="rounded=1;whiteSpace=wrap;html=1;fontSize=20;fillColor=#000000;strokeColor=#FFFFFF;fontColor=#FFFFFF;align=center;" parent="1" vertex="1">
          <mxGeometry x="-1300" y="419" width="220" height="30" as="geometry" />
        </mxCell>
        <mxCell id="TaVSvGBADPzD679VYjAK-292" value="&lt;span style=&quot;font-family: Helvetica; font-size: 20px; font-style: normal; font-variant-ligatures: normal; font-variant-caps: normal; font-weight: 400; letter-spacing: normal; orphans: 2; text-align: left; text-indent: 0px; text-transform: none; widows: 2; word-spacing: 0px; -webkit-text-stroke-width: 0px; text-decoration-thickness: initial; text-decoration-style: initial; text-decoration-color: initial; float: none; display: inline !important;&quot;&gt;&lt;font&gt;&amp;nbsp; &amp;nbsp;Image server&lt;/font&gt;&lt;/span&gt;" style="text;whiteSpace=wrap;html=1;fillColor=none;labelBackgroundColor=none;fontColor=#FFFFFF;" parent="1" vertex="1">
          <mxGeometry x="-522" y="262" width="170" height="50" as="geometry" />
        </mxCell>
        <mxCell id="TaVSvGBADPzD679VYjAK-294" value="&lt;div style=&quot;&quot;&gt;&lt;span style=&quot;font-size: 20px;&quot;&gt;Data server&lt;/span&gt;&lt;/div&gt;" style="text;whiteSpace=wrap;html=1;align=center;fontColor=#FFFFFF;" parent="1" vertex="1">
          <mxGeometry x="-511" y="461" width="150" height="30" as="geometry" />
        </mxCell>
        <mxCell id="TaVSvGBADPzD679VYjAK-298" value="&lt;b&gt;&lt;span&gt;get CDN link&lt;/span&gt;&lt;/b&gt;" style="text;html=1;align=center;verticalAlign=middle;resizable=0;points=[];autosize=1;strokeColor=none;fillColor=none;fontStyle=2;fontColor=#FFB570;" parent="1" vertex="1">
          <mxGeometry x="-1213" y="367" width="90" height="30" as="geometry" />
        </mxCell>
        <mxCell id="TaVSvGBADPzD679VYjAK-304" value="" style="endArrow=classic;html=1;rounded=0;fontColor=#FFFFFF;strokeColor=#FFB570;exitX=0.366;exitY=1.081;exitDx=0;exitDy=0;exitPerimeter=0;strokeWidth=2;" parent="1" source="TaVSvGBADPzD679VYjAK-238" target="TaVSvGBADPzD679VYjAK-249" edge="1">
          <mxGeometry width="50" height="50" relative="1" as="geometry">
            <mxPoint x="-1220" y="158" as="sourcePoint" />
            <mxPoint x="-1220" y="198.00000000000023" as="targetPoint" />
            <Array as="points" />
          </mxGeometry>
        </mxCell>
        <mxCell id="TaVSvGBADPzD679VYjAK-305" value="" style="endArrow=classic;html=1;rounded=0;fontColor=#FFFFFF;strokeColor=#FFB570;entryX=0.207;entryY=0.143;entryDx=0;entryDy=0;entryPerimeter=0;exitX=0.804;exitY=1.03;exitDx=0;exitDy=0;exitPerimeter=0;strokeWidth=2;" parent="1" source="TaVSvGBADPzD679VYjAK-238" edge="1">
          <mxGeometry width="50" height="50" relative="1" as="geometry">
            <mxPoint x="-1120" y="153" as="sourcePoint" />
            <mxPoint x="-1122.5599999999995" y="418.02" as="targetPoint" />
            <Array as="points" />
          </mxGeometry>
        </mxCell>
        <mxCell id="TaVSvGBADPzD679VYjAK-306" value="" style="endArrow=classic;html=1;rounded=0;fontColor=#FFFFFF;strokeColor=#FFFFFF;entryX=0.5;entryY=0;entryDx=0;entryDy=0;strokeWidth=2;" parent="1" edge="1">
          <mxGeometry width="50" height="50" relative="1" as="geometry">
            <mxPoint x="-953" y="378" as="sourcePoint" />
            <mxPoint x="-953" y="418.0000000000002" as="targetPoint" />
            <Array as="points" />
          </mxGeometry>
        </mxCell>
        <mxCell id="TaVSvGBADPzD679VYjAK-308" value="" style="endArrow=classic;html=1;rounded=0;fontColor=#FFFFFF;strokeColor=#FFFFFF;entryX=0.5;entryY=0;entryDx=0;entryDy=0;strokeWidth=2;" parent="1" edge="1">
          <mxGeometry width="50" height="50" relative="1" as="geometry">
            <mxPoint x="-677" y="378" as="sourcePoint" />
            <mxPoint x="-677" y="418.0000000000002" as="targetPoint" />
            <Array as="points" />
          </mxGeometry>
        </mxCell>
        <mxCell id="TaVSvGBADPzD679VYjAK-310" value="" style="endArrow=classic;html=1;rounded=0;fontColor=#FFFFFF;strokeColor=#33FF33;entryX=0.207;entryY=0.143;entryDx=0;entryDy=0;entryPerimeter=0;exitX=0.856;exitY=1.021;exitDx=0;exitDy=0;exitPerimeter=0;strokeWidth=2;" parent="1" source="TaVSvGBADPzD679VYjAK-238" edge="1">
          <mxGeometry width="50" height="50" relative="1" as="geometry">
            <mxPoint x="-1108" y="153" as="sourcePoint" />
            <mxPoint x="-1111" y="418" as="targetPoint" />
            <Array as="points" />
          </mxGeometry>
        </mxCell>
        <mxCell id="TaVSvGBADPzD679VYjAK-311" value="" style="endArrow=classic;html=1;rounded=0;fontColor=#FFFFFF;strokeColor=#FFB570;exitX=0.334;exitY=0.998;exitDx=0;exitDy=0;exitPerimeter=0;strokeWidth=2;" parent="1" source="TaVSvGBADPzD679VYjAK-300" edge="1">
          <mxGeometry width="50" height="50" relative="1" as="geometry">
            <mxPoint x="-951" y="153" as="sourcePoint" />
            <mxPoint x="-952" y="327" as="targetPoint" />
            <Array as="points" />
          </mxGeometry>
        </mxCell>
        <mxCell id="TaVSvGBADPzD679VYjAK-314" value="" style="endArrow=classic;html=1;rounded=0;fontColor=#FFFFFF;strokeColor=#FFB570;strokeWidth=2;" parent="1" edge="1">
          <mxGeometry width="50" height="50" relative="1" as="geometry">
            <mxPoint x="-676" y="184" as="sourcePoint" />
            <mxPoint x="-677" y="327" as="targetPoint" />
            <Array as="points" />
          </mxGeometry>
        </mxCell>
        <mxCell id="TaVSvGBADPzD679VYjAK-317" value="" style="endArrow=classic;html=1;rounded=0;fontColor=#FFFFFF;strokeColor=#FFB570;entryX=0.207;entryY=0.143;entryDx=0;entryDy=0;entryPerimeter=0;exitX=0.805;exitY=1.034;exitDx=0;exitDy=0;exitPerimeter=0;strokeWidth=2;" parent="1" source="TaVSvGBADPzD679VYjAK-300" edge="1">
          <mxGeometry width="50" height="50" relative="1" as="geometry">
            <mxPoint x="-848" y="153" as="sourcePoint" />
            <mxPoint x="-847.5599999999995" y="418.02" as="targetPoint" />
            <Array as="points" />
          </mxGeometry>
        </mxCell>
        <mxCell id="TaVSvGBADPzD679VYjAK-318" value="" style="endArrow=classic;html=1;rounded=0;fontColor=#FFFFFF;strokeColor=#33FF33;entryX=0.207;entryY=0.143;entryDx=0;entryDy=0;entryPerimeter=0;exitX=0.864;exitY=0.233;exitDx=0;exitDy=0;exitPerimeter=0;strokeWidth=2;" parent="1" source="TaVSvGBADPzD679VYjAK-300" edge="1">
          <mxGeometry width="50" height="50" relative="1" as="geometry">
            <mxPoint x="-835" y="194" as="sourcePoint" />
            <mxPoint x="-836" y="418" as="targetPoint" />
            <Array as="points" />
          </mxGeometry>
        </mxCell>
        <mxCell id="TaVSvGBADPzD679VYjAK-319" value="" style="endArrow=classic;html=1;rounded=0;fontColor=#FFFFFF;strokeColor=#FFB570;entryX=0.207;entryY=0.143;entryDx=0;entryDy=0;entryPerimeter=0;strokeWidth=2;" parent="1" edge="1">
          <mxGeometry width="50" height="50" relative="1" as="geometry">
            <mxPoint x="-576" y="184" as="sourcePoint" />
            <mxPoint x="-575.5599999999995" y="418.02" as="targetPoint" />
            <Array as="points" />
          </mxGeometry>
        </mxCell>
        <mxCell id="TaVSvGBADPzD679VYjAK-320" value="" style="endArrow=classic;html=1;rounded=0;fontColor=#FFFFFF;strokeColor=#33FF33;entryX=0.207;entryY=0.143;entryDx=0;entryDy=0;entryPerimeter=0;strokeWidth=2;" parent="1" edge="1">
          <mxGeometry width="50" height="50" relative="1" as="geometry">
            <mxPoint x="-564" y="184" as="sourcePoint" />
            <mxPoint x="-564" y="418" as="targetPoint" />
            <Array as="points" />
          </mxGeometry>
        </mxCell>
        <mxCell id="TaVSvGBADPzD679VYjAK-347" value="" style="endArrow=classic;html=1;rounded=0;fontColor=#FFFFFF;strokeColor=#FFFFFF;entryX=0.427;entryY=0;entryDx=0;entryDy=0;entryPerimeter=0;exitX=0.366;exitY=1.009;exitDx=0;exitDy=0;exitPerimeter=0;strokeWidth=2;" parent="1" source="TaVSvGBADPzD679VYjAK-290" target="TaVSvGBADPzD679VYjAK-324" edge="1">
          <mxGeometry width="50" height="50" relative="1" as="geometry">
            <mxPoint x="-1220" y="414" as="sourcePoint" />
            <mxPoint x="-1220" y="454.0000000000002" as="targetPoint" />
            <Array as="points" />
          </mxGeometry>
        </mxCell>
        <mxCell id="TaVSvGBADPzD679VYjAK-349" value="" style="endArrow=classic;html=1;rounded=0;fontColor=#FFFFFF;strokeColor=#FFFFFF;entryX=0.444;entryY=-0.004;entryDx=0;entryDy=0;entryPerimeter=0;strokeWidth=2;" parent="1" target="TaVSvGBADPzD679VYjAK-363" edge="1">
          <mxGeometry width="50" height="50" relative="1" as="geometry">
            <mxPoint x="-1220" y="594" as="sourcePoint" />
            <mxPoint x="-1220.3559999999998" y="738.95" as="targetPoint" />
            <Array as="points" />
          </mxGeometry>
        </mxCell>
        <mxCell id="TaVSvGBADPzD679VYjAK-350" value="page1.htm" style="text;html=1;align=center;verticalAlign=middle;resizable=0;points=[];autosize=1;strokeColor=none;fillColor=none;fontColor=#FFFFFF;" parent="1" vertex="1">
          <mxGeometry x="-1169" y="599" width="80" height="30" as="geometry" />
        </mxCell>
        <mxCell id="TaVSvGBADPzD679VYjAK-353" value="" style="endArrow=classic;html=1;rounded=0;fontColor=#FFFFFF;strokeColor=#FFFFFF;entryX=0.359;entryY=0.028;entryDx=0;entryDy=0;entryPerimeter=0;exitX=0.327;exitY=1.021;exitDx=0;exitDy=0;exitPerimeter=0;strokeWidth=2;" parent="1" source="TaVSvGBADPzD679VYjAK-289" target="TaVSvGBADPzD679VYjAK-352" edge="1">
          <mxGeometry width="50" height="50" relative="1" as="geometry">
            <mxPoint x="-953" y="454" as="sourcePoint" />
            <mxPoint x="-953" y="454.0000000000002" as="targetPoint" />
            <Array as="points" />
          </mxGeometry>
        </mxCell>
        <mxCell id="TaVSvGBADPzD679VYjAK-354" value="" style="endArrow=classic;html=1;rounded=0;fontColor=#FFFFFF;strokeColor=#FFFFFF;entryX=0.383;entryY=-0.007;entryDx=0;entryDy=0;entryPerimeter=0;strokeWidth=2;" parent="1" target="TaVSvGBADPzD679VYjAK-365" edge="1">
          <mxGeometry width="50" height="50" relative="1" as="geometry">
            <mxPoint x="-953" y="594" as="sourcePoint" />
            <mxPoint x="-952.576" y="742.49" as="targetPoint" />
            <Array as="points" />
          </mxGeometry>
        </mxCell>
        <mxCell id="TaVSvGBADPzD679VYjAK-355" value="page2.htm" style="text;html=1;align=center;verticalAlign=middle;resizable=0;points=[];autosize=1;strokeColor=none;fillColor=none;fontColor=#FFFFFF;" parent="1" vertex="1">
          <mxGeometry x="-893" y="599" width="80" height="30" as="geometry" />
        </mxCell>
        <mxCell id="TaVSvGBADPzD679VYjAK-359" value="" style="endArrow=classic;html=1;rounded=0;fontColor=#FFFFFF;strokeColor=#FFFFFF;entryX=0.362;entryY=-0.018;entryDx=0;entryDy=0;entryPerimeter=0;strokeWidth=2;" parent="1" target="TaVSvGBADPzD679VYjAK-366" edge="1">
          <mxGeometry width="50" height="50" relative="1" as="geometry">
            <mxPoint x="-676" y="594" as="sourcePoint" />
            <mxPoint x="-675.5200000000004" y="740.5699999999999" as="targetPoint" />
            <Array as="points" />
          </mxGeometry>
        </mxCell>
        <mxCell id="TaVSvGBADPzD679VYjAK-357" value="parse &amp;amp; show" style="rounded=1;whiteSpace=wrap;html=1;fontSize=20;fillColor=#000000;strokeColor=#FFFFFF;fontColor=#FFFFFF;verticalAlign=middle;" parent="1" vertex="1">
          <mxGeometry x="-732" y="568" width="152" height="30" as="geometry" />
        </mxCell>
        <mxCell id="TaVSvGBADPzD679VYjAK-358" value="" style="endArrow=classic;html=1;rounded=0;fontColor=#FFFFFF;strokeColor=#FFFFFF;entryX=0.374;entryY=0.007;entryDx=0;entryDy=0;entryPerimeter=0;exitX=0.362;exitY=1.019;exitDx=0;exitDy=0;exitPerimeter=0;strokeWidth=2;" parent="1" source="TaVSvGBADPzD679VYjAK-288" target="TaVSvGBADPzD679VYjAK-357" edge="1">
          <mxGeometry width="50" height="50" relative="1" as="geometry">
            <mxPoint x="-676" y="454" as="sourcePoint" />
            <mxPoint x="-676" y="454.0000000000002" as="targetPoint" />
            <Array as="points" />
          </mxGeometry>
        </mxCell>
        <mxCell id="TaVSvGBADPzD679VYjAK-360" value="page3.htm" style="text;html=1;align=center;verticalAlign=middle;resizable=0;points=[];autosize=1;strokeColor=none;fillColor=none;fontColor=#FFFFFF;" parent="1" vertex="1">
          <mxGeometry x="-619" y="599" width="80" height="30" as="geometry" />
        </mxCell>
        <mxCell id="TaVSvGBADPzD679VYjAK-363" value="Sellist1" style="rounded=1;whiteSpace=wrap;html=1;fontSize=20;fillColor=#000000;strokeColor=#FFFFFF;fontColor=#FFFFFF;align=center;" parent="1" vertex="1">
          <mxGeometry x="-1285" y="760" width="145" height="30" as="geometry" />
        </mxCell>
        <mxCell id="TaVSvGBADPzD679VYjAK-365" value="Sellist2" style="rounded=1;whiteSpace=wrap;html=1;fontSize=20;fillColor=#000000;strokeColor=#FFFFFF;fontColor=#FFFFFF;align=center;" parent="1" vertex="1">
          <mxGeometry x="-1010" y="760" width="150" height="30" as="geometry" />
        </mxCell>
        <mxCell id="TaVSvGBADPzD679VYjAK-366" value="Sellist3" style="rounded=1;whiteSpace=wrap;html=1;fontSize=20;fillColor=#000000;strokeColor=#FFFFFF;fontColor=#FFFFFF;align=center;" parent="1" vertex="1">
          <mxGeometry x="-730" y="760" width="150" height="30" as="geometry" />
        </mxCell>
        <mxCell id="TaVSvGBADPzD679VYjAK-371" value="Sellers / admins Hub" style="rounded=1;whiteSpace=wrap;html=1;fontSize=20;fillColor=#000000;strokeColor=#FFFFFF;fontColor=#FFFFFF;align=center;" parent="1" vertex="1">
          <mxGeometry x="-1285" y="703" width="705" height="30" as="geometry" />
        </mxCell>
        <mxCell id="TaVSvGBADPzD679VYjAK-372" value="&lt;div style=&quot;&quot;&gt;&lt;span style=&quot;font-size: 20px;&quot;&gt;Hosting Service&lt;/span&gt;&lt;/div&gt;" style="text;whiteSpace=wrap;html=1;align=center;fontColor=#FFFFFF;" parent="1" vertex="1">
          <mxGeometry x="-530" y="694" width="150" height="30" as="geometry" />
        </mxCell>
        <mxCell id="TaVSvGBADPzD679VYjAK-373" value="&lt;div style=&quot;&quot;&gt;&lt;span style=&quot;font-size: 20px;&quot;&gt;Public interface&lt;/span&gt;&lt;/div&gt;" style="text;whiteSpace=wrap;html=1;align=center;fontColor=#FFFFFF;" parent="1" vertex="1">
          <mxGeometry x="-527" y="874" width="150" height="30" as="geometry" />
        </mxCell>
        <mxCell id="TaVSvGBADPzD679VYjAK-376" value="" style="endArrow=classic;startArrow=classic;html=1;rounded=0;strokeColor=#FFFFFF;strokeWidth=2;fontColor=#FFFFFF;" parent="1" edge="1">
          <mxGeometry width="50" height="50" relative="1" as="geometry">
            <mxPoint x="-1221" y="840" as="sourcePoint" />
            <mxPoint x="-1221" y="790" as="targetPoint" />
          </mxGeometry>
        </mxCell>
        <mxCell id="TaVSvGBADPzD679VYjAK-378" value="" style="endArrow=classic;startArrow=classic;html=1;rounded=0;strokeColor=#FFFFFF;strokeWidth=2;fontColor=#FFFFFF;" parent="1" edge="1">
          <mxGeometry width="50" height="50" relative="1" as="geometry">
            <mxPoint x="-953" y="840" as="sourcePoint" />
            <mxPoint x="-953" y="790" as="targetPoint" />
          </mxGeometry>
        </mxCell>
        <mxCell id="TaVSvGBADPzD679VYjAK-379" value="" style="endArrow=classic;startArrow=classic;html=1;rounded=0;strokeColor=#FFFFFF;strokeWidth=2;fontColor=#FFFFFF;" parent="1" edge="1">
          <mxGeometry width="50" height="50" relative="1" as="geometry">
            <mxPoint x="-676" y="840" as="sourcePoint" />
            <mxPoint x="-676" y="790" as="targetPoint" />
          </mxGeometry>
        </mxCell>
        <mxCell id="TaVSvGBADPzD679VYjAK-380" value="" style="endArrow=classic;html=1;rounded=0;fontColor=#FFFFFF;strokeColor=#FFFFFF;exitX=0;exitY=0.5;exitDx=0;exitDy=0;shape=flexArrow;entryX=-0.001;entryY=0.734;entryDx=0;entryDy=0;entryPerimeter=0;strokeWidth=2;" parent="1" edge="1">
          <mxGeometry width="50" height="50" relative="1" as="geometry">
            <mxPoint x="-1281" y="856" as="sourcePoint" />
            <mxPoint x="-1318.9499999999998" y="183.74" as="targetPoint" />
            <Array as="points">
              <mxPoint x="-1388" y="856" />
              <mxPoint x="-1388" y="184" />
            </Array>
          </mxGeometry>
        </mxCell>
        <mxCell id="TaVSvGBADPzD679VYjAK-383" value="&lt;b style=&quot;border-color: var(--border-color); font-family: Helvetica; font-size: 16px; font-style: normal; font-variant-ligatures: normal; font-variant-caps: normal; letter-spacing: normal; orphans: 2; text-align: center; text-indent: 0px; text-transform: none; widows: 2; word-spacing: 0px; -webkit-text-stroke-width: 0px; text-decoration-thickness: initial; text-decoration-style: initial; text-decoration-color: initial;&quot;&gt;&lt;span style=&quot;border-color: var(--border-color); font-size: 16px;&quot;&gt;add&lt;/span&gt;&lt;/b&gt;" style="text;whiteSpace=wrap;html=1;fontSize=16;opacity=80;textOpacity=80;labelBackgroundColor=none;fontColor=#FFB570;" parent="1" vertex="1">
          <mxGeometry x="-1260" y="262" width="30" height="30" as="geometry" />
        </mxCell>
        <mxCell id="TaVSvGBADPzD679VYjAK-384" value="&lt;span style=&quot;font-size: 16px;&quot;&gt;&lt;span style=&quot;font-size: 16px;&quot;&gt;update&lt;/span&gt;&lt;/span&gt;" style="text;html=1;align=center;verticalAlign=middle;resizable=0;points=[];autosize=1;strokeColor=none;fillColor=none;fontStyle=1;fontSize=16;fontColor=#80FF00;opacity=80;textOpacity=80;" parent="1" vertex="1">
          <mxGeometry x="-1110" y="262" width="80" height="30" as="geometry" />
        </mxCell>
        <mxCell id="TaVSvGBADPzD679VYjAK-574" value="" style="shape=table;startSize=0;container=1;collapsible=0;childLayout=tableLayout;strokeColor=#FFFFFF;fillColor=none;fontColor=#FFFFFF;" parent="1" vertex="1">
          <mxGeometry x="-1215" y="454" width="80" height="20" as="geometry" />
        </mxCell>
        <mxCell id="TaVSvGBADPzD679VYjAK-575" value="" style="shape=tableRow;horizontal=0;startSize=0;swimlaneHead=0;swimlaneBody=0;strokeColor=#7A7A7A;top=0;left=0;bottom=0;right=0;collapsible=0;dropTarget=0;fillColor=none;points=[[0,0.5],[1,0.5]];portConstraint=eastwest;fontColor=#FFFFFF;" parent="TaVSvGBADPzD679VYjAK-574" vertex="1">
          <mxGeometry width="80" height="7" as="geometry" />
        </mxCell>
        <mxCell id="TaVSvGBADPzD679VYjAK-576" value="" style="shape=partialRectangle;html=1;whiteSpace=wrap;connectable=0;strokeColor=inherit;overflow=hidden;fillColor=none;top=0;left=0;bottom=0;right=0;pointerEvents=1;fontColor=#FFFFFF;" parent="TaVSvGBADPzD679VYjAK-575" vertex="1">
          <mxGeometry width="16" height="7" as="geometry">
            <mxRectangle width="16" height="7" as="alternateBounds" />
          </mxGeometry>
        </mxCell>
        <mxCell id="TaVSvGBADPzD679VYjAK-577" value="" style="shape=partialRectangle;html=1;whiteSpace=wrap;connectable=0;strokeColor=inherit;overflow=hidden;fillColor=none;top=0;left=0;bottom=0;right=0;pointerEvents=1;fontColor=#FFFFFF;" parent="TaVSvGBADPzD679VYjAK-575" vertex="1">
          <mxGeometry x="16" width="16" height="7" as="geometry">
            <mxRectangle width="16" height="7" as="alternateBounds" />
          </mxGeometry>
        </mxCell>
        <mxCell id="TaVSvGBADPzD679VYjAK-578" value="" style="shape=partialRectangle;html=1;whiteSpace=wrap;connectable=0;strokeColor=inherit;overflow=hidden;fillColor=none;top=0;left=0;bottom=0;right=0;pointerEvents=1;fontColor=#FFFFFF;" parent="TaVSvGBADPzD679VYjAK-575" vertex="1">
          <mxGeometry x="32" width="16" height="7" as="geometry">
            <mxRectangle width="16" height="7" as="alternateBounds" />
          </mxGeometry>
        </mxCell>
        <mxCell id="TaVSvGBADPzD679VYjAK-579" value="" style="shape=partialRectangle;html=1;whiteSpace=wrap;connectable=0;strokeColor=inherit;overflow=hidden;fillColor=none;top=0;left=0;bottom=0;right=0;pointerEvents=1;fontColor=#FFFFFF;" parent="TaVSvGBADPzD679VYjAK-575" vertex="1">
          <mxGeometry x="48" width="16" height="7" as="geometry">
            <mxRectangle width="16" height="7" as="alternateBounds" />
          </mxGeometry>
        </mxCell>
        <mxCell id="TaVSvGBADPzD679VYjAK-580" value="" style="shape=partialRectangle;html=1;whiteSpace=wrap;connectable=0;strokeColor=inherit;overflow=hidden;fillColor=none;top=0;left=0;bottom=0;right=0;pointerEvents=1;fontColor=#FFFFFF;" parent="TaVSvGBADPzD679VYjAK-575" vertex="1">
          <mxGeometry x="64" width="16" height="7" as="geometry">
            <mxRectangle width="16" height="7" as="alternateBounds" />
          </mxGeometry>
        </mxCell>
        <mxCell id="TaVSvGBADPzD679VYjAK-581" value="" style="shape=tableRow;horizontal=0;startSize=0;swimlaneHead=0;swimlaneBody=0;strokeColor=inherit;top=0;left=0;bottom=0;right=0;collapsible=0;dropTarget=0;fillColor=none;points=[[0,0.5],[1,0.5]];portConstraint=eastwest;fontColor=#FFFFFF;" parent="TaVSvGBADPzD679VYjAK-574" vertex="1">
          <mxGeometry y="7" width="80" height="6" as="geometry" />
        </mxCell>
        <mxCell id="TaVSvGBADPzD679VYjAK-582" value="" style="shape=partialRectangle;html=1;whiteSpace=wrap;connectable=0;strokeColor=inherit;overflow=hidden;fillColor=none;top=0;left=0;bottom=0;right=0;pointerEvents=1;fontColor=#FFFFFF;" parent="TaVSvGBADPzD679VYjAK-581" vertex="1">
          <mxGeometry width="16" height="6" as="geometry">
            <mxRectangle width="16" height="6" as="alternateBounds" />
          </mxGeometry>
        </mxCell>
        <mxCell id="TaVSvGBADPzD679VYjAK-583" value="" style="shape=partialRectangle;html=1;whiteSpace=wrap;connectable=0;strokeColor=inherit;overflow=hidden;fillColor=none;top=0;left=0;bottom=0;right=0;pointerEvents=1;fontColor=#FFFFFF;" parent="TaVSvGBADPzD679VYjAK-581" vertex="1">
          <mxGeometry x="16" width="16" height="6" as="geometry">
            <mxRectangle width="16" height="6" as="alternateBounds" />
          </mxGeometry>
        </mxCell>
        <mxCell id="TaVSvGBADPzD679VYjAK-584" value="" style="shape=partialRectangle;html=1;whiteSpace=wrap;connectable=0;strokeColor=inherit;overflow=hidden;fillColor=none;top=0;left=0;bottom=0;right=0;pointerEvents=1;fontColor=#FFFFFF;" parent="TaVSvGBADPzD679VYjAK-581" vertex="1">
          <mxGeometry x="32" width="16" height="6" as="geometry">
            <mxRectangle width="16" height="6" as="alternateBounds" />
          </mxGeometry>
        </mxCell>
        <mxCell id="TaVSvGBADPzD679VYjAK-585" value="" style="shape=partialRectangle;html=1;whiteSpace=wrap;connectable=0;strokeColor=inherit;overflow=hidden;fillColor=none;top=0;left=0;bottom=0;right=0;pointerEvents=1;fontColor=#FFFFFF;" parent="TaVSvGBADPzD679VYjAK-581" vertex="1">
          <mxGeometry x="48" width="16" height="6" as="geometry">
            <mxRectangle width="16" height="6" as="alternateBounds" />
          </mxGeometry>
        </mxCell>
        <mxCell id="TaVSvGBADPzD679VYjAK-586" value="" style="shape=partialRectangle;html=1;whiteSpace=wrap;connectable=0;strokeColor=inherit;overflow=hidden;fillColor=none;top=0;left=0;bottom=0;right=0;pointerEvents=1;fontColor=#FFFFFF;" parent="TaVSvGBADPzD679VYjAK-581" vertex="1">
          <mxGeometry x="64" width="16" height="6" as="geometry">
            <mxRectangle width="16" height="6" as="alternateBounds" />
          </mxGeometry>
        </mxCell>
        <mxCell id="TaVSvGBADPzD679VYjAK-587" value="" style="shape=tableRow;horizontal=0;startSize=0;swimlaneHead=0;swimlaneBody=0;strokeColor=inherit;top=0;left=0;bottom=0;right=0;collapsible=0;dropTarget=0;fillColor=none;points=[[0,0.5],[1,0.5]];portConstraint=eastwest;fontColor=#FFFFFF;" parent="TaVSvGBADPzD679VYjAK-574" vertex="1">
          <mxGeometry y="13" width="80" height="7" as="geometry" />
        </mxCell>
        <mxCell id="TaVSvGBADPzD679VYjAK-588" value="" style="shape=partialRectangle;html=1;whiteSpace=wrap;connectable=0;strokeColor=inherit;overflow=hidden;fillColor=none;top=0;left=0;bottom=0;right=0;pointerEvents=1;fontColor=#FFFFFF;" parent="TaVSvGBADPzD679VYjAK-587" vertex="1">
          <mxGeometry width="16" height="7" as="geometry">
            <mxRectangle width="16" height="7" as="alternateBounds" />
          </mxGeometry>
        </mxCell>
        <mxCell id="TaVSvGBADPzD679VYjAK-589" value="" style="shape=partialRectangle;html=1;whiteSpace=wrap;connectable=0;strokeColor=inherit;overflow=hidden;fillColor=none;top=0;left=0;bottom=0;right=0;pointerEvents=1;fontColor=#FFFFFF;" parent="TaVSvGBADPzD679VYjAK-587" vertex="1">
          <mxGeometry x="16" width="16" height="7" as="geometry">
            <mxRectangle width="16" height="7" as="alternateBounds" />
          </mxGeometry>
        </mxCell>
        <mxCell id="TaVSvGBADPzD679VYjAK-590" value="" style="shape=partialRectangle;html=1;whiteSpace=wrap;connectable=0;strokeColor=inherit;overflow=hidden;fillColor=none;top=0;left=0;bottom=0;right=0;pointerEvents=1;fontColor=#FFFFFF;" parent="TaVSvGBADPzD679VYjAK-587" vertex="1">
          <mxGeometry x="32" width="16" height="7" as="geometry">
            <mxRectangle width="16" height="7" as="alternateBounds" />
          </mxGeometry>
        </mxCell>
        <mxCell id="TaVSvGBADPzD679VYjAK-591" value="" style="shape=partialRectangle;html=1;whiteSpace=wrap;connectable=0;strokeColor=inherit;overflow=hidden;fillColor=none;top=0;left=0;bottom=0;right=0;pointerEvents=1;fontColor=#FFFFFF;" parent="TaVSvGBADPzD679VYjAK-587" vertex="1">
          <mxGeometry x="48" width="16" height="7" as="geometry">
            <mxRectangle width="16" height="7" as="alternateBounds" />
          </mxGeometry>
        </mxCell>
        <mxCell id="TaVSvGBADPzD679VYjAK-592" value="" style="shape=partialRectangle;html=1;whiteSpace=wrap;connectable=0;strokeColor=inherit;overflow=hidden;fillColor=none;top=0;left=0;bottom=0;right=0;pointerEvents=1;fontColor=#FFFFFF;" parent="TaVSvGBADPzD679VYjAK-587" vertex="1">
          <mxGeometry x="64" width="16" height="7" as="geometry">
            <mxRectangle width="16" height="7" as="alternateBounds" />
          </mxGeometry>
        </mxCell>
        <mxCell id="TaVSvGBADPzD679VYjAK-593" value="" style="shape=table;startSize=0;container=1;collapsible=0;childLayout=tableLayout;strokeColor=#FFFFFF;fillColor=none;fontColor=#FFFFFF;" parent="1" vertex="1">
          <mxGeometry x="-670" y="455" width="80" height="20" as="geometry" />
        </mxCell>
        <mxCell id="TaVSvGBADPzD679VYjAK-594" value="" style="shape=tableRow;horizontal=0;startSize=0;swimlaneHead=0;swimlaneBody=0;strokeColor=#7A7A7A;top=0;left=0;bottom=0;right=0;collapsible=0;dropTarget=0;fillColor=none;points=[[0,0.5],[1,0.5]];portConstraint=eastwest;fontColor=#FFFFFF;" parent="TaVSvGBADPzD679VYjAK-593" vertex="1">
          <mxGeometry width="80" height="7" as="geometry" />
        </mxCell>
        <mxCell id="TaVSvGBADPzD679VYjAK-595" value="" style="shape=partialRectangle;html=1;whiteSpace=wrap;connectable=0;strokeColor=inherit;overflow=hidden;fillColor=none;top=0;left=0;bottom=0;right=0;pointerEvents=1;fontColor=#FFFFFF;" parent="TaVSvGBADPzD679VYjAK-594" vertex="1">
          <mxGeometry width="16" height="7" as="geometry">
            <mxRectangle width="16" height="7" as="alternateBounds" />
          </mxGeometry>
        </mxCell>
        <mxCell id="TaVSvGBADPzD679VYjAK-596" value="" style="shape=partialRectangle;html=1;whiteSpace=wrap;connectable=0;strokeColor=inherit;overflow=hidden;fillColor=none;top=0;left=0;bottom=0;right=0;pointerEvents=1;fontColor=#FFFFFF;" parent="TaVSvGBADPzD679VYjAK-594" vertex="1">
          <mxGeometry x="16" width="16" height="7" as="geometry">
            <mxRectangle width="16" height="7" as="alternateBounds" />
          </mxGeometry>
        </mxCell>
        <mxCell id="TaVSvGBADPzD679VYjAK-597" value="" style="shape=partialRectangle;html=1;whiteSpace=wrap;connectable=0;strokeColor=inherit;overflow=hidden;fillColor=none;top=0;left=0;bottom=0;right=0;pointerEvents=1;fontColor=#FFFFFF;" parent="TaVSvGBADPzD679VYjAK-594" vertex="1">
          <mxGeometry x="32" width="16" height="7" as="geometry">
            <mxRectangle width="16" height="7" as="alternateBounds" />
          </mxGeometry>
        </mxCell>
        <mxCell id="TaVSvGBADPzD679VYjAK-598" value="" style="shape=partialRectangle;html=1;whiteSpace=wrap;connectable=0;strokeColor=inherit;overflow=hidden;fillColor=none;top=0;left=0;bottom=0;right=0;pointerEvents=1;fontColor=#FFFFFF;" parent="TaVSvGBADPzD679VYjAK-594" vertex="1">
          <mxGeometry x="48" width="16" height="7" as="geometry">
            <mxRectangle width="16" height="7" as="alternateBounds" />
          </mxGeometry>
        </mxCell>
        <mxCell id="TaVSvGBADPzD679VYjAK-599" value="" style="shape=partialRectangle;html=1;whiteSpace=wrap;connectable=0;strokeColor=inherit;overflow=hidden;fillColor=none;top=0;left=0;bottom=0;right=0;pointerEvents=1;fontColor=#FFFFFF;" parent="TaVSvGBADPzD679VYjAK-594" vertex="1">
          <mxGeometry x="64" width="16" height="7" as="geometry">
            <mxRectangle width="16" height="7" as="alternateBounds" />
          </mxGeometry>
        </mxCell>
        <mxCell id="TaVSvGBADPzD679VYjAK-600" value="" style="shape=tableRow;horizontal=0;startSize=0;swimlaneHead=0;swimlaneBody=0;strokeColor=inherit;top=0;left=0;bottom=0;right=0;collapsible=0;dropTarget=0;fillColor=none;points=[[0,0.5],[1,0.5]];portConstraint=eastwest;fontColor=#FFFFFF;" parent="TaVSvGBADPzD679VYjAK-593" vertex="1">
          <mxGeometry y="7" width="80" height="6" as="geometry" />
        </mxCell>
        <mxCell id="TaVSvGBADPzD679VYjAK-601" value="" style="shape=partialRectangle;html=1;whiteSpace=wrap;connectable=0;strokeColor=inherit;overflow=hidden;fillColor=none;top=0;left=0;bottom=0;right=0;pointerEvents=1;fontColor=#FFFFFF;" parent="TaVSvGBADPzD679VYjAK-600" vertex="1">
          <mxGeometry width="16" height="6" as="geometry">
            <mxRectangle width="16" height="6" as="alternateBounds" />
          </mxGeometry>
        </mxCell>
        <mxCell id="TaVSvGBADPzD679VYjAK-602" value="" style="shape=partialRectangle;html=1;whiteSpace=wrap;connectable=0;strokeColor=inherit;overflow=hidden;fillColor=none;top=0;left=0;bottom=0;right=0;pointerEvents=1;fontColor=#FFFFFF;" parent="TaVSvGBADPzD679VYjAK-600" vertex="1">
          <mxGeometry x="16" width="16" height="6" as="geometry">
            <mxRectangle width="16" height="6" as="alternateBounds" />
          </mxGeometry>
        </mxCell>
        <mxCell id="TaVSvGBADPzD679VYjAK-603" value="" style="shape=partialRectangle;html=1;whiteSpace=wrap;connectable=0;strokeColor=inherit;overflow=hidden;fillColor=none;top=0;left=0;bottom=0;right=0;pointerEvents=1;fontColor=#FFFFFF;" parent="TaVSvGBADPzD679VYjAK-600" vertex="1">
          <mxGeometry x="32" width="16" height="6" as="geometry">
            <mxRectangle width="16" height="6" as="alternateBounds" />
          </mxGeometry>
        </mxCell>
        <mxCell id="TaVSvGBADPzD679VYjAK-604" value="" style="shape=partialRectangle;html=1;whiteSpace=wrap;connectable=0;strokeColor=inherit;overflow=hidden;fillColor=none;top=0;left=0;bottom=0;right=0;pointerEvents=1;fontColor=#FFFFFF;" parent="TaVSvGBADPzD679VYjAK-600" vertex="1">
          <mxGeometry x="48" width="16" height="6" as="geometry">
            <mxRectangle width="16" height="6" as="alternateBounds" />
          </mxGeometry>
        </mxCell>
        <mxCell id="TaVSvGBADPzD679VYjAK-605" value="" style="shape=partialRectangle;html=1;whiteSpace=wrap;connectable=0;strokeColor=inherit;overflow=hidden;fillColor=none;top=0;left=0;bottom=0;right=0;pointerEvents=1;fontColor=#FFFFFF;" parent="TaVSvGBADPzD679VYjAK-600" vertex="1">
          <mxGeometry x="64" width="16" height="6" as="geometry">
            <mxRectangle width="16" height="6" as="alternateBounds" />
          </mxGeometry>
        </mxCell>
        <mxCell id="TaVSvGBADPzD679VYjAK-606" value="" style="shape=tableRow;horizontal=0;startSize=0;swimlaneHead=0;swimlaneBody=0;strokeColor=inherit;top=0;left=0;bottom=0;right=0;collapsible=0;dropTarget=0;fillColor=none;points=[[0,0.5],[1,0.5]];portConstraint=eastwest;fontColor=#FFFFFF;" parent="TaVSvGBADPzD679VYjAK-593" vertex="1">
          <mxGeometry y="13" width="80" height="7" as="geometry" />
        </mxCell>
        <mxCell id="TaVSvGBADPzD679VYjAK-607" value="" style="shape=partialRectangle;html=1;whiteSpace=wrap;connectable=0;strokeColor=inherit;overflow=hidden;fillColor=none;top=0;left=0;bottom=0;right=0;pointerEvents=1;fontColor=#FFFFFF;" parent="TaVSvGBADPzD679VYjAK-606" vertex="1">
          <mxGeometry width="16" height="7" as="geometry">
            <mxRectangle width="16" height="7" as="alternateBounds" />
          </mxGeometry>
        </mxCell>
        <mxCell id="TaVSvGBADPzD679VYjAK-608" value="" style="shape=partialRectangle;html=1;whiteSpace=wrap;connectable=0;strokeColor=inherit;overflow=hidden;fillColor=none;top=0;left=0;bottom=0;right=0;pointerEvents=1;fontColor=#FFFFFF;" parent="TaVSvGBADPzD679VYjAK-606" vertex="1">
          <mxGeometry x="16" width="16" height="7" as="geometry">
            <mxRectangle width="16" height="7" as="alternateBounds" />
          </mxGeometry>
        </mxCell>
        <mxCell id="TaVSvGBADPzD679VYjAK-609" value="" style="shape=partialRectangle;html=1;whiteSpace=wrap;connectable=0;strokeColor=inherit;overflow=hidden;fillColor=none;top=0;left=0;bottom=0;right=0;pointerEvents=1;fontColor=#FFFFFF;" parent="TaVSvGBADPzD679VYjAK-606" vertex="1">
          <mxGeometry x="32" width="16" height="7" as="geometry">
            <mxRectangle width="16" height="7" as="alternateBounds" />
          </mxGeometry>
        </mxCell>
        <mxCell id="TaVSvGBADPzD679VYjAK-610" value="" style="shape=partialRectangle;html=1;whiteSpace=wrap;connectable=0;strokeColor=inherit;overflow=hidden;fillColor=none;top=0;left=0;bottom=0;right=0;pointerEvents=1;fontColor=#FFFFFF;" parent="TaVSvGBADPzD679VYjAK-606" vertex="1">
          <mxGeometry x="48" width="16" height="7" as="geometry">
            <mxRectangle width="16" height="7" as="alternateBounds" />
          </mxGeometry>
        </mxCell>
        <mxCell id="TaVSvGBADPzD679VYjAK-611" value="" style="shape=partialRectangle;html=1;whiteSpace=wrap;connectable=0;strokeColor=inherit;overflow=hidden;fillColor=none;top=0;left=0;bottom=0;right=0;pointerEvents=1;fontColor=#FFFFFF;" parent="TaVSvGBADPzD679VYjAK-606" vertex="1">
          <mxGeometry x="64" width="16" height="7" as="geometry">
            <mxRectangle width="16" height="7" as="alternateBounds" />
          </mxGeometry>
        </mxCell>
        <mxCell id="TaVSvGBADPzD679VYjAK-620" value="" style="shape=table;startSize=0;container=1;collapsible=0;childLayout=tableLayout;strokeColor=#FFFFFF;fillColor=none;fontColor=#FFFFFF;" parent="1" vertex="1">
          <mxGeometry x="-948" y="454" width="80" height="20" as="geometry" />
        </mxCell>
        <mxCell id="TaVSvGBADPzD679VYjAK-621" value="" style="shape=tableRow;horizontal=0;startSize=0;swimlaneHead=0;swimlaneBody=0;strokeColor=#7A7A7A;top=0;left=0;bottom=0;right=0;collapsible=0;dropTarget=0;fillColor=none;points=[[0,0.5],[1,0.5]];portConstraint=eastwest;fontColor=#FFFFFF;" parent="TaVSvGBADPzD679VYjAK-620" vertex="1">
          <mxGeometry width="80" height="7" as="geometry" />
        </mxCell>
        <mxCell id="TaVSvGBADPzD679VYjAK-622" value="" style="shape=partialRectangle;html=1;whiteSpace=wrap;connectable=0;strokeColor=inherit;overflow=hidden;fillColor=none;top=0;left=0;bottom=0;right=0;pointerEvents=1;fontColor=#FFFFFF;" parent="TaVSvGBADPzD679VYjAK-621" vertex="1">
          <mxGeometry width="16" height="7" as="geometry">
            <mxRectangle width="16" height="7" as="alternateBounds" />
          </mxGeometry>
        </mxCell>
        <mxCell id="TaVSvGBADPzD679VYjAK-623" value="" style="shape=partialRectangle;html=1;whiteSpace=wrap;connectable=0;strokeColor=inherit;overflow=hidden;fillColor=none;top=0;left=0;bottom=0;right=0;pointerEvents=1;fontColor=#FFFFFF;" parent="TaVSvGBADPzD679VYjAK-621" vertex="1">
          <mxGeometry x="16" width="16" height="7" as="geometry">
            <mxRectangle width="16" height="7" as="alternateBounds" />
          </mxGeometry>
        </mxCell>
        <mxCell id="TaVSvGBADPzD679VYjAK-624" value="" style="shape=partialRectangle;html=1;whiteSpace=wrap;connectable=0;strokeColor=inherit;overflow=hidden;fillColor=none;top=0;left=0;bottom=0;right=0;pointerEvents=1;fontColor=#FFFFFF;" parent="TaVSvGBADPzD679VYjAK-621" vertex="1">
          <mxGeometry x="32" width="16" height="7" as="geometry">
            <mxRectangle width="16" height="7" as="alternateBounds" />
          </mxGeometry>
        </mxCell>
        <mxCell id="TaVSvGBADPzD679VYjAK-625" value="" style="shape=partialRectangle;html=1;whiteSpace=wrap;connectable=0;strokeColor=inherit;overflow=hidden;fillColor=none;top=0;left=0;bottom=0;right=0;pointerEvents=1;fontColor=#FFFFFF;" parent="TaVSvGBADPzD679VYjAK-621" vertex="1">
          <mxGeometry x="48" width="16" height="7" as="geometry">
            <mxRectangle width="16" height="7" as="alternateBounds" />
          </mxGeometry>
        </mxCell>
        <mxCell id="TaVSvGBADPzD679VYjAK-626" value="" style="shape=partialRectangle;html=1;whiteSpace=wrap;connectable=0;strokeColor=inherit;overflow=hidden;fillColor=none;top=0;left=0;bottom=0;right=0;pointerEvents=1;fontColor=#FFFFFF;" parent="TaVSvGBADPzD679VYjAK-621" vertex="1">
          <mxGeometry x="64" width="16" height="7" as="geometry">
            <mxRectangle width="16" height="7" as="alternateBounds" />
          </mxGeometry>
        </mxCell>
        <mxCell id="TaVSvGBADPzD679VYjAK-627" value="" style="shape=tableRow;horizontal=0;startSize=0;swimlaneHead=0;swimlaneBody=0;strokeColor=inherit;top=0;left=0;bottom=0;right=0;collapsible=0;dropTarget=0;fillColor=none;points=[[0,0.5],[1,0.5]];portConstraint=eastwest;fontColor=#FFFFFF;" parent="TaVSvGBADPzD679VYjAK-620" vertex="1">
          <mxGeometry y="7" width="80" height="6" as="geometry" />
        </mxCell>
        <mxCell id="TaVSvGBADPzD679VYjAK-628" value="" style="shape=partialRectangle;html=1;whiteSpace=wrap;connectable=0;strokeColor=inherit;overflow=hidden;fillColor=none;top=0;left=0;bottom=0;right=0;pointerEvents=1;fontColor=#FFFFFF;" parent="TaVSvGBADPzD679VYjAK-627" vertex="1">
          <mxGeometry width="16" height="6" as="geometry">
            <mxRectangle width="16" height="6" as="alternateBounds" />
          </mxGeometry>
        </mxCell>
        <mxCell id="TaVSvGBADPzD679VYjAK-629" value="" style="shape=partialRectangle;html=1;whiteSpace=wrap;connectable=0;strokeColor=inherit;overflow=hidden;fillColor=none;top=0;left=0;bottom=0;right=0;pointerEvents=1;fontColor=#FFFFFF;" parent="TaVSvGBADPzD679VYjAK-627" vertex="1">
          <mxGeometry x="16" width="16" height="6" as="geometry">
            <mxRectangle width="16" height="6" as="alternateBounds" />
          </mxGeometry>
        </mxCell>
        <mxCell id="TaVSvGBADPzD679VYjAK-630" value="" style="shape=partialRectangle;html=1;whiteSpace=wrap;connectable=0;strokeColor=inherit;overflow=hidden;fillColor=none;top=0;left=0;bottom=0;right=0;pointerEvents=1;fontColor=#FFFFFF;" parent="TaVSvGBADPzD679VYjAK-627" vertex="1">
          <mxGeometry x="32" width="16" height="6" as="geometry">
            <mxRectangle width="16" height="6" as="alternateBounds" />
          </mxGeometry>
        </mxCell>
        <mxCell id="TaVSvGBADPzD679VYjAK-631" value="" style="shape=partialRectangle;html=1;whiteSpace=wrap;connectable=0;strokeColor=inherit;overflow=hidden;fillColor=none;top=0;left=0;bottom=0;right=0;pointerEvents=1;fontColor=#FFFFFF;" parent="TaVSvGBADPzD679VYjAK-627" vertex="1">
          <mxGeometry x="48" width="16" height="6" as="geometry">
            <mxRectangle width="16" height="6" as="alternateBounds" />
          </mxGeometry>
        </mxCell>
        <mxCell id="TaVSvGBADPzD679VYjAK-632" value="" style="shape=partialRectangle;html=1;whiteSpace=wrap;connectable=0;strokeColor=inherit;overflow=hidden;fillColor=none;top=0;left=0;bottom=0;right=0;pointerEvents=1;fontColor=#FFFFFF;" parent="TaVSvGBADPzD679VYjAK-627" vertex="1">
          <mxGeometry x="64" width="16" height="6" as="geometry">
            <mxRectangle width="16" height="6" as="alternateBounds" />
          </mxGeometry>
        </mxCell>
        <mxCell id="TaVSvGBADPzD679VYjAK-633" value="" style="shape=tableRow;horizontal=0;startSize=0;swimlaneHead=0;swimlaneBody=0;strokeColor=inherit;top=0;left=0;bottom=0;right=0;collapsible=0;dropTarget=0;fillColor=none;points=[[0,0.5],[1,0.5]];portConstraint=eastwest;fontColor=#FFFFFF;" parent="TaVSvGBADPzD679VYjAK-620" vertex="1">
          <mxGeometry y="13" width="80" height="7" as="geometry" />
        </mxCell>
        <mxCell id="TaVSvGBADPzD679VYjAK-634" value="" style="shape=partialRectangle;html=1;whiteSpace=wrap;connectable=0;strokeColor=inherit;overflow=hidden;fillColor=none;top=0;left=0;bottom=0;right=0;pointerEvents=1;fontColor=#FFFFFF;" parent="TaVSvGBADPzD679VYjAK-633" vertex="1">
          <mxGeometry width="16" height="7" as="geometry">
            <mxRectangle width="16" height="7" as="alternateBounds" />
          </mxGeometry>
        </mxCell>
        <mxCell id="TaVSvGBADPzD679VYjAK-635" value="" style="shape=partialRectangle;html=1;whiteSpace=wrap;connectable=0;strokeColor=inherit;overflow=hidden;fillColor=none;top=0;left=0;bottom=0;right=0;pointerEvents=1;fontColor=#FFFFFF;" parent="TaVSvGBADPzD679VYjAK-633" vertex="1">
          <mxGeometry x="16" width="16" height="7" as="geometry">
            <mxRectangle width="16" height="7" as="alternateBounds" />
          </mxGeometry>
        </mxCell>
        <mxCell id="TaVSvGBADPzD679VYjAK-636" value="" style="shape=partialRectangle;html=1;whiteSpace=wrap;connectable=0;strokeColor=inherit;overflow=hidden;fillColor=none;top=0;left=0;bottom=0;right=0;pointerEvents=1;fontColor=#FFFFFF;" parent="TaVSvGBADPzD679VYjAK-633" vertex="1">
          <mxGeometry x="32" width="16" height="7" as="geometry">
            <mxRectangle width="16" height="7" as="alternateBounds" />
          </mxGeometry>
        </mxCell>
        <mxCell id="TaVSvGBADPzD679VYjAK-637" value="" style="shape=partialRectangle;html=1;whiteSpace=wrap;connectable=0;strokeColor=inherit;overflow=hidden;fillColor=none;top=0;left=0;bottom=0;right=0;pointerEvents=1;fontColor=#FFFFFF;" parent="TaVSvGBADPzD679VYjAK-633" vertex="1">
          <mxGeometry x="48" width="16" height="7" as="geometry">
            <mxRectangle width="16" height="7" as="alternateBounds" />
          </mxGeometry>
        </mxCell>
        <mxCell id="TaVSvGBADPzD679VYjAK-638" value="" style="shape=partialRectangle;html=1;whiteSpace=wrap;connectable=0;strokeColor=inherit;overflow=hidden;fillColor=none;top=0;left=0;bottom=0;right=0;pointerEvents=1;fontColor=#FFFFFF;" parent="TaVSvGBADPzD679VYjAK-633" vertex="1">
          <mxGeometry x="64" width="16" height="7" as="geometry">
            <mxRectangle width="16" height="7" as="alternateBounds" />
          </mxGeometry>
        </mxCell>
        <mxCell id="TaVSvGBADPzD679VYjAK-640" value="Single entrance / homepage" style="rounded=1;whiteSpace=wrap;html=1;fontSize=20;fillColor=#000000;strokeColor=#FFFFFF;fontColor=#FFFFFF;align=center;" parent="1" vertex="1">
          <mxGeometry x="-1285" y="639" width="705" height="30" as="geometry" />
        </mxCell>
        <mxCell id="TaVSvGBADPzD679VYjAK-352" value="parse &amp;amp; show" style="rounded=1;whiteSpace=wrap;html=1;fontSize=20;fillColor=#000000;strokeColor=#FFFFFF;fontColor=#FFFFFF;verticalAlign=middle;" parent="1" vertex="1">
          <mxGeometry x="-1007" y="568" width="150" height="30" as="geometry" />
        </mxCell>
        <mxCell id="TaVSvGBADPzD679VYjAK-324" value="parse &amp;amp; show" style="rounded=1;whiteSpace=wrap;html=1;fontSize=20;fillColor=#000000;strokeColor=#FFFFFF;fontColor=#FFFFFF;verticalAlign=middle;" parent="1" vertex="1">
          <mxGeometry x="-1284" y="568" width="150" height="30" as="geometry" />
        </mxCell>
        <mxCell id="TaVSvGBADPzD679VYjAK-300" value="Administrator" style="rounded=1;whiteSpace=wrap;html=1;fontSize=20;fillColor=#000000;strokeColor=#FFFFFF;fontColor=#FFFFFF;" parent="1" vertex="1">
          <mxGeometry x="-1025" y="167" width="220" height="30" as="geometry" />
        </mxCell>
        <mxCell id="TaVSvGBADPzD679VYjAK-301" value="Administrator" style="rounded=1;whiteSpace=wrap;html=1;fontSize=20;fillColor=#000000;strokeColor=#FFFFFF;fontColor=#FFFFFF;" parent="1" vertex="1">
          <mxGeometry x="-754" y="167" width="220" height="30" as="geometry" />
        </mxCell>
        <mxCell id="TaVSvGBADPzD679VYjAK-97" value="&lt;b&gt;&lt;font color=&quot;#ffffff&quot;&gt;Image server&lt;/font&gt;&lt;/b&gt;" style="rounded=1;whiteSpace=wrap;html=1;fontSize=20;fillColor=#000000;strokeColor=#FFFFFF;fontColor=#383838;strokeWidth=2;" parent="1" vertex="1">
          <mxGeometry x="-936" y="-890" width="290" height="54" as="geometry" />
        </mxCell>
        <mxCell id="TaVSvGBADPzD679VYjAK-34" value="&lt;font color=&quot;#ffffff&quot;&gt;index&lt;/font&gt;" style="rounded=1;whiteSpace=wrap;html=1;fontSize=20;fillColor=#000000;strokeColor=#FFFFFF;fontColor=#383838;strokeWidth=2;" parent="1" vertex="1">
          <mxGeometry x="-596" y="-314" width="70" height="33" as="geometry" />
        </mxCell>
        <mxCell id="TaVSvGBADPzD679VYjAK-47" value="&lt;font color=&quot;#ffffff&quot;&gt;tag&lt;/font&gt;" style="rounded=1;whiteSpace=wrap;html=1;fontSize=20;fillColor=#000000;strokeColor=#FFFFFF;fontColor=#383838;strokeWidth=2;" parent="1" vertex="1">
          <mxGeometry x="-956" y="-314" width="60" height="33" as="geometry" />
        </mxCell>
        <mxCell id="TaVSvGBADPzD679VYjAK-48" value="&lt;font color=&quot;#ffffff&quot;&gt;category&lt;/font&gt;" style="rounded=1;whiteSpace=wrap;html=1;fontSize=20;fillColor=#000000;strokeColor=#FFFFFF;fontColor=#383838;strokeWidth=2;" parent="1" vertex="1">
          <mxGeometry x="-838.5" y="-314" width="95" height="33" as="geometry" />
        </mxCell>
        <mxCell id="TaVSvGBADPzD679VYjAK-49" value="&lt;font color=&quot;#ffffff&quot;&gt;items&lt;/font&gt;" style="rounded=1;whiteSpace=wrap;html=1;fontSize=20;fillColor=#000000;strokeColor=#FFFFFF;fontColor=#383838;strokeWidth=2;" parent="1" vertex="1">
          <mxGeometry x="-686" y="-314" width="60" height="33" as="geometry" />
        </mxCell>
        <mxCell id="TaVSvGBADPzD679VYjAK-644" value="&lt;font style=&quot;font-size: 24px;&quot;&gt;Multi mode / sellers&lt;/font&gt;" style="text;html=1;align=left;verticalAlign=middle;resizable=0;points=[];autosize=1;strokeColor=none;fillColor=none;fontStyle=3;fontColor=#FFFFFF;" parent="1" vertex="1">
          <mxGeometry x="-1354" y="27" width="225" height="41" as="geometry" />
        </mxCell>
        <mxCell id="TaVSvGBADPzD679VYjAK-645" value="" style="shape=image;verticalLabelPosition=bottom;labelBackgroundColor=default;verticalAlign=top;aspect=fixed;imageAspect=0;image=data:image/png,iVBORw0KGgoAAAANSUhEUgAAASwAAACoCAMAAABt9SM9AAAAkFBMVEX///8XFRYiIiIAAAAfHx8oKCgMDAwQEBAcHBwUFBShoaGcnJwXFxcZGRnr6+sTExNKSkqOjo7CwsL19fVFRUXe3t7i4uLt7e14eHhAQECCgoLS0tLLy8tvb2+pqaldXV1mZmYvLy+EhIS3t7c4ODiurq6SkpJnZ2fPz898entgXl87OztVVVUHAAVEQkNMSUp/aAaiAAAJtklEQVR4nO2ca6OqKhCGSxTsYlZk95vda9Ve///fHVFQUEytdXat3TyfSoH0FYaZAavVAAAAAAAAAAAAAAAAAAAAAAAAAAAAAAAAAAAAAAAAAAAAAAAAAOBvQQWvvpD3hnb6h0XXQhH+dXHod159Te/JqH/+wzTCpB5BMPv6PZ1DF0sxGwcdCtezBIr509mrL++d2HYRIhqleBdDqNt/9SW+C9udtk+p/esL5AqYDQqliuS6Dl99qS+nV0oqxg21Xn2xr8UboJJSMdD3J3euLblV0CpQq/65lutwZwrUg1Hz1Rf9Is5VhiDHRb1XX/ZLWDygVQDavPrCX8CDWn2kWodHtQrU+jS7tU20IuWsvFQMfdac6MW5hTrZGfoQWuaGkLVLqqBP8rfon9i/Qhs68pYrdG9UInTZDykdx2Vu36++g79IL5EGRekXb4yEfi7B+IaTrofQ2QvL9KVanxP5zKRuhMRB74IwjlKk39fLdeCHn4NDRzHmRmYsoIu8wl+h822rt9kcmtv+bx613cREYWlA9a0/h62X5EWpt+19+fOkwCSph1b3f2K0HIRZV9eNEq7X5ajctdGZx5jJ6VnqZY/p6ETlip9jBbZyxzpXqLiWIsm7MyI9EGQbMjaK+2Jnu79zOy2+AiAHClN+rMhlafNyP5nY9SVfoVL0MpZUxt38ct4EmUYaxNc+QjUuuf2shcPSRBGrER7DRWJZ0a/iHxRL7ljV3HHF6c/vWifHyUhlmFZ0shXqSAZ5ld9MLF92qtCiQs2VnNC5XXNKDR07q5XhRuN9ZEc3hLY5td9LrJniUWG/QtWd4uvnTYhduV+Ztm2akjpzxLWbhl87q4hpXPu9xBqr7icqvyroqX5+jrlrolioYB60JpNdYNyRy01WSiwPOww3GZXvJRZy5Tsu4zAJTmpV4ugKUV/YdtdoibaH/TMftNTkwzCyeF47/GYns8VbidVPdaw826Fjmaqru6i96Fg51nDJDLyJuXZvLpaaHq1k31MWXj8OV9xi4TwHbhmEBs6YD/43F2snGx73Vm3jx1CdHL6yJTpGdMH2JNcWjk7zOPx5b7GGSvaqctJTTa+ibIE+H4Ulh/fQ+Z/EGs36+/38ycBHNVkVrHuE6negU6bAgUQToZ/XsVqXNWMVdi6vyQetdWTH9rViseaLCPEwDtHXM/s9LhY59VdWGJE2Jk8ldVvy3eJcPzqXttIx95nzi2hctXNt4YCEzkIwGw4vFsHCzWizY8zMCbEOUp2NJFYLtRnC2NIdYV/dMB3JxTIs7PBPNto9scNMjViqRNG6+tlRfLULRkzXFq7DNh1Ahr4XF8scLBImpiRWdL4xjpqjk6g9Ioslt+uQx7eXXZVYp3onVXrmLZOnoTvFjarRoUQYPMtiqVopYhlmO4HffGmxFBoFyaQ7DBSxqi887JVhPEmfHvHrFcZwgSTC0mXF0lBFLNOMP2ssazmoEt490IySsiBWRizhZXHnYNxO7tUepMVykpDbZjbrp8SyMfJ3jmioUc2XlG7GV8SaF9e4K1Ym4Bm5KbEa+WKdutdrV5jkK2P5M2LZg+ZwREciSM2fmYvEshSxnhyGdTfTPikvFsNzpFMhPyCWwydAoZb7oJOaEis79RfRVMRqZNrnczYqMQwZwoPPiuXgBLuaWG2ehqWGOttUharD8FBcI0VPGYZm+nRs4Lk1XLAUjP2AWM56vxTsV/ZDYol+Xej550C/lNlwXLkBec2iTjKZQ/rFxeJ9tslMEdenkliqU+o+JpaurSp0ZbHuLTrkYJD79a+REXJld3WGHhArL9ypIlZT01YVLkqSBZdczIvpFCV4eM+3ZRnnrxJr+aRYG/Vuq5o+dTLULOLzh2nIIfrLxGo+OQz3z+T+arVvJQ2vycPMxHQthZ3Pi/WczXrUwNdOqczwM8m/umbnEf3ic58UHbxMrF7k9VVKnSs3Y6jLWdXmw7W6E1yT/KttuFtquvFAvCdW5JdVF6tdRiw+2+DqgQqnm1rPquLdphY7bhdNGc+NU0kt3m2Le5ZpxPVLiuXwXIJGLNPh4U2HZ3vshzfxtNQbxlb5wKljpYRe6kqNedcKbo5cz5vNeb0zc8XqCOc8tsFFYvEZzmiEY2t44L+lhDuH8CnRNX8Su4oSJXipLX4obxU+A72mq2oNXsdIVu/thus24qylRqyaWGXEg/F4wSbXIrFEkt9sr6fjlS0iSSXrgBvX8Xnh87i0Ud31jvFJWq1yzlanm9Iqz6Xtp/NUQjmdWBex1m+3G+hYKxarY4tEldOIn0M6n2U67YZIGRoP5FZiUuMwUMsv421tjUw97SisMfdEl7HUiyUrGybui8SqHRuZljNiZX/2QSi/6TB5GXURtC5a5ZldM6/5uPm7JPrYzV60iXcasWrd5N7LiTVLPYooTpfEIsp5s/IKlsIxlIgtNsw2N8yF+97mG/rR8kuz9/vemiMdY2zL12zaGI/D4T5wTEYsVhDai4JcrPA8lsU6k6hO5FzuUbJNx2yj64q1GCbQLJt9avnSrkPnYScrIjLx+A+tjabeN+9nONCrt/VS5ouOZsvpl36b/P298MPDwEa4wVa42i7GRrfJm16YFsONfVbas1jBdgOHTl+zHZ535Eiq54TH2nzcn7oEuaxhgox1v7Z0Dcsy2GQzMVjLtNacEOy2A7sVzMfPrk6vQ4FuVvBwT/NkBYMtS6ZsNmVblvUvFBS7s8N+67y4rFbHc1P+e4hOiPxUKCu4ODej/0SIzisTLU0f85bn42q16EXtDkV7NG7Z208X6+N5+fxCvidMVbM2W1JpHxGpp52BTtqqx0Xxw57eL0OkHth4bkr7iDSZ07x3Eh9Isv5SRCaeOJ3aykv00JihmV4svPucvxERQV64fj8/R2bJRToF9GI94+j9OqZCrU7gd81PV2bc62udAl3tTPhR7/5S/hcF7K5pbXYYnraz0VJns4+a9/PTk+a/ztDk7ijzb4dT6qF5Z6XzdTVvB2Ojaur+t3OK4hds8O6UlzLNioXxj75J9CvoRw4WNu/HAxmxyEcZdwFXi6DBMuoqns7fTdss/JFasXQv5vePiGnZRLvWkxIL3x7d7fTb8SwxxlxCiD7cU9cokP8pUU6W0Up+w6RQLBetP8dx19BCiRjaYSiJhW6f9u8XabxunAO9LxZGWj/sw9hbXC6tWHwnCUH+cynHfwXaqodyacUK323CyG5+tLWSoUv2L6Voqjm1QOyfSqvvp/ynmU197VTXWfkb+E9XAAAAAAAAAAAAAAAAAAAAAAAAAAAAAAAAAAAAAAAAAAAAAAAAAAAAAAD+Zf4DnIOyIcvCVlYAAAAASUVORK5CYII=;" parent="1" vertex="1">
          <mxGeometry x="-636" y="-894" width="118" height="66.14" as="geometry" />
        </mxCell>
        <mxCell id="EghCQmFBMft_IwWeYbYt-2" value="&lt;b&gt;&lt;i&gt;&lt;font style=&quot;font-size: 18px;&quot;&gt;Service code&lt;/font&gt;&lt;/i&gt;&lt;/b&gt;" style="text;html=1;align=center;verticalAlign=middle;resizable=0;points=[];autosize=1;strokeColor=none;fillColor=none;fontColor=#FFFFFF;" parent="1" vertex="1">
          <mxGeometry x="-506" y="-511" width="130" height="40" as="geometry" />
        </mxCell>
        <mxCell id="TaVSvGBADPzD679VYjAK-53" value="&lt;b&gt;&lt;font color=&quot;#ffffff&quot;&gt;Web UI&lt;/font&gt;&lt;/b&gt;" style="rounded=1;whiteSpace=wrap;html=1;fontSize=20;fillColor=#000000;strokeColor=#FFFFFF;fontColor=#383838;strokeWidth=2;" parent="1" vertex="1">
          <mxGeometry x="-956" y="-250" width="430" height="46" as="geometry" />
        </mxCell>
        <mxCell id="TaVSvGBADPzD679VYjAK-18" value="&lt;b&gt;&lt;font color=&quot;#ffffff&quot;&gt;parseCSV&lt;/font&gt;&lt;/b&gt;" style="rounded=1;whiteSpace=wrap;html=1;fontSize=20;fillColor=#000000;strokeColor=#FFFFFF;fontColor=#383838;strokeWidth=2;" parent="1" vertex="1">
          <mxGeometry x="-936" y="-624" width="290" height="40" as="geometry" />
        </mxCell>
        <mxCell id="TaVSvGBADPzD679VYjAK-374" value="browser, select, and send links" style="rounded=1;whiteSpace=wrap;html=1;fontSize=20;fillColor=#000000;strokeColor=#FFFFFF;fontColor=#FFFFFF;align=center;" parent="1" vertex="1">
          <mxGeometry x="-1285" y="841" width="704" height="30" as="geometry" />
        </mxCell>
        <mxCell id="v7lTY6zvw72GwzH2N9rf-4" value="" style="shape=image;verticalLabelPosition=bottom;labelBackgroundColor=default;verticalAlign=top;aspect=fixed;imageAspect=0;image=data:image/png,iVBORw0KGgoAAAANSUhEUgAAAI0AAAAwCAYAAAAsCvkOAAAAAXNSR0IArs4c6QAAAARnQU1BAACxjwv8YQUAAAAJcEhZcwAADsMAAA7DAcdvqGQAAAxCSURBVHhe7ZwJVFXVGsf/4I0IZCxUKBwIIpxyQEQzp9cCyVIXPdHUoBTH0rRUHPKp762npg9xehYiOb16ipouTUO0lOcQDoigYDigkfOEYDxAhPP2d86+cO7EPcfAR63zW2uvu/e39zn3XM7/fPv79j5qIzCgoaECW/6poaEYTTQaqtFEo6EaTTQaqtFEo6EaTTQaqtFEo6EaTTQaqtFEo6EaTTQaqqndbYSzPwMpx4FHlYB3I8DTHWjCit8LfEDd8+2332Lnzp1IT0/H9evXce3aNbRq1QotW7aEj48P3njjDXTv3p2Prpm5c+fyWjWzZ8/mtWqMx/Xo0QM9e/bkLVPKy8sRExODxYsXc0vtc+DAAaSmpvKWhLlrfyxINLXC1duCMHO1IEz9wrTEbRaEvcf5wLohPj5e6NixIz0AVktISIjw5Zdf8iMtM2fOHIPjqG0O+Rgq+/fv5z2mUF9QUJDARMUtdQN9j/F11RaPNz3dug9sZSqO3wks2QL8fQOwYht7hB7xAUZcvwvsTQcWJwGFxdxYe0RERGD06NGid1FCSkoKhg8fjokTJ3LLk4E8Uq9evXDs2DFu+X2iXjTbDwGxm4BjPwF51yRBFP0XqGBTEiP1YlNk3/DAzQeOqBBsRFsVNwuAef8C/sGOJ9Gl5wIFD3gnh0SVfg5IOiCJ0gokmM2bN/OWIY0bNxaniZdeeglOTk7cWs3SpUsxbNgw3qpbaLpgnoq3ft8oF03+TWDOWuDHbMDBHvDxYhFRtSiiNr4lfo7ZGoZFB4LxHmt3WjIcAQtHV5U3EyOw4nAgHlxhIiPRkTDI+6zbA+w7AazeBXz2NbPvlwRlBTYlmQjG2dkZW7ZsQX5+Pm7cuAHmppGbm4uioiJ89dVX6Nu3Lx8pQbaFCxfy1uPBPLZBqSme+SOgXDT/3A6UlIGch//yaWgxfQQqerXjnUAf/zz8cKEZAhrdwdrBO/HdyI04OSkRZ6fGV5XYft+jpFyHoKXviyL6cFso8m85ADmXpenr/JUqjyXyoievmEIB7rx583hLonnz5mIg/Pbbb8Pb25tbqxkyZIjYP3DgQG6RWLRokSgyDWUoE82uNF4BHlY8wrzZc3Cl8B6KnmnArUAoE81nP3RFv9bncbXQdCog/D3uYkrPNFFAxz5aA2/XIoSuegevrohESq4PHyXj9UBeMSUhIcHkRpOHee2113jLMklJSWBBM28Bd+7cwYIFC3irfkNx282bzOvXAqdOnRI9sFqUieY/mbwCPG2rQ7u7lTiTsBFuaee5VeLFZwugs61EYenT3GJEU+Y5WjzPBnrDqY0nYsbdwNl1+xA/LRsbcjth0Vk2dXRqDQS3BV5lXizrF36gIQ8fPsSqVat4S2LUqFEGQrAGjXd3d8fgwYOxY8cOrFy5kveoh4JbeaH4RY/eZi59lx9DxRz379/HJ598IqbxDg4OCAwMRJMmTfDKK6+I9kOHWIypgqNHjyIqKkr0xO3bt4eLiwtCQ0PNXp8llK/THDoDZObxhilHf26E+4U6JGc9j1kDsuDesIz3GCK0se4J9Nj4sqnLy1SAly9fRosWLXhL4sSJE6pEQ+Tk5IjrN5agP6Q8eKW6ubUOuuFyoVAcpY9rbGRxX03QeDpOTkZGBsaOHSve6JqYNGmSyZoPXY+xEMk7T5gwASUlJdxiyIgRI7B69Wresox1T1NaCSG3GELl8+INt1Q8e7RE90G+8Bz4HNy6BJkdQ0UVDtXTnxxatJPj7++vWjBETYL5f0MLlDTVWhMMERcXJ3pMa4wcOdKiYIjExETMnDmTtyxjXTT2trDxd4SNH3vq7SwP93aqwEMWw77pU8otKnHRid+lBAqC5ZBo6ivknfRFDnkWeZ9xxrVs2TIUFxuuadHK9rhx4xASEsIt1WzatAlff80yTwVQojBlyhRER0eb/O1oGeLMGTar1ARNT4opqxCEyyVCZXqhUJl6z2KZ91651TLnnXJh5cflQs7+ckGoqORfwLhVJlTm/CpUHmTnOlfMjYawJ8tgpXPq1Km8xzzmVkfNFRonh91Mg35qm4PdcINxxuchjK+BjrHEmjVrDMZS+fzzz3mvxMWLFwUmIoMxLN7hvZZ/M0sC+AgJc+OmT5/Oe82j7NHWwzzNrafsEbfZGa17uaHrAFeERbkiYoILome4YOJ8Z3y6Qsqc1q/VmZQDh3Rw99Wh2yAdJsfrMDZWh4CezMPYyuZ9DzvYBDgiz80N27+z48aauXfvHq/9MaBpQs748eMxZswY3pKgfTR2c+Hq6ooBAwZg/fr1OH78OO81D3kX4+UG8nCUFMi5evUqr5lHlWjWL2GujYUOCSw7rWRT0f0CG/x82QZnMm1x5LAtUpIboFPxQXhcSkdUYBb6BlxA56bXxKzKxb4M+ReAJZ+yzCUMCO8AzB4NJBst5u7YAESHsmmOJVHbtzFBmcF4DebCBXbiPxC0GCmnd+/evGbI0KFDxU3Jbdu24d133+VWy9BmrTmM40FaFK0JxaJZwTKy+ZOAO+x89q7n0TnsJ7g+yzsZcf33ip99Xs7D9QcN4fZMKbo2v4LozqfERb3d0RvF9ZlvorZiVHAGO1ERkljWPCkC6OoBRLFAnz5jIoHDKeKpLOLl5cVrEufPG6b+5pDHD/pSH6F47fbt27wl0bo1e4Is0LZtW16zjp+fH68ZQtsscmhJo0b4NFUjGUcE4WU2kkpLXZng/YKf0MDmGWHdsuIq+0T/i8KCwEzhyKCdQi+nB1V24zLM+5qQ1CdVKP04QdwB/yH8OyHEtdDs2HVx/AKMuHTpksk8nJyczHuVwVJ0k3PUh5jGXIzxOKg5j9Jr06PI05CH0SNUNEDkn2PxVIPnWBpO3yGRnOuDmN4/IiGtPZq7F3KrKSd+8cRfkruj3eJo/OmLoci754o9o/6Nv/VJFVeI5bxcvUthAHkaY29Dc7oajhw5wmv1C+Onnqhv068i0TR0BhwaSnVBaIDDW99CRLd8xE1zlIyMJk7FSMoMQEDjO7j5q2Tv1A/ox2IYSyVwQkOc6xaMGLvRqOjghSHjCgz6t34vnsYEOzs7k+CN0k1a4FPKrl27eK1+QQ+Dhwebp2VkZWXxmikVFRW89uRQJJq4b1hMc6j6ZgZFMZF0A0InV9s+nF6Ioi4BCBtQho5jHUWbJ5turzxSVnZU+mFvZTMDWziLdyxBC1VNmzblLYmwsDAxKLQGvTW3Z88e3qp/GK+d0EKfOWi/TKfTiSu/tJJbUFDAe+oWRaLJYxnYaiYc+Q01Lt8UeeHoo+dQ6tsSFx89VWX/LThXOzIT6ImcMWMGb0nQxmN4eLi4/E/7SbRvI4devqI9m8d9FYK2Lx4X2uORQ8v82dnZvCVtROr54IMPeE1i7dq1JntDaWlpYspN0LnoIYqNjRXbdY0i0bRjwp8RLe0jMmFbpLTCButzHHhLOYGtgE9HAq8HS6/qKIXe1jNedyAoM+rfvz/c3NzETTkSCm3y0cac3NWrzaDo5kVGRor7N2rx9DR9zWPQoEGiGIKDgzF5MnPbHNoSMN4WoGul3xAUFIRGjRqhS5cuvEfC3t5eTMGfBIpEQ7zoDYx/B1jEguLIt4AAH6l0bgO04ZkcxcV3S62fsglL1UO7AhOGAMunsbR7mHSu9/szl/sRm3rCgd5B7GmyPJVXQa85mBOOHtr+J6EYv05AS+gkqJowl6Ju2LABy5cv5y3l0A03Xg8hT0NiMLe/RHbj1zzoN9ACnnFKTsyaNQsBAQG8VcfwLOo3kX9dEEb9VRCGTDMsW/ZKZe+PgnDyrDSuuIQfVMuoebGc3RDxmJycHAO7caqckZEhuLq6GozRFzlKUm4iMzPTYJy8mEtzy8vLBeZNzY7XFzZNC4mJifyIauoy5a61f8KSdQ44zTLDbFZus3jMnU3hk1nA7OHGBzwh9P+E5eTJk+KTSYXem6G3+ujNPQqWfX19xbEUOFIMpIdee2B/MN6S2L17t/hK6b59+1BYWChOMzQ9HDx4kI+QXo2QY+48euh6KGY5ffq0+BIZBfMdOnQQr2/+/Pl8lCH0chllhuRlqDg6OqJZs2bib6FYxnj5gaA4xzgOYuLgNUPUjCW0/z5NQzWKYxoNDT2aaDRUo4lGQzWaaDRUo4lGQzWaaDRUo4lGQzWaaDRUo4lGQzWaaDRUo4lGQzWaaDRUAvwP6BO46s5COBEAAAAASUVORK5CYII=;" vertex="1" parent="1">
          <mxGeometry x="-521.0047088068185" y="-551.0036615545101" width="141" height="48" as="geometry" />
        </mxCell>
      </root>
    </mxGraphModel>
  </diagram>
</mxfile>
